%TF.GenerationSoftware,KiCad,Pcbnew,8.0.5*%
%TF.CreationDate,2025-02-15T20:25:57+11:00*%
%TF.ProjectId,hello_world,68656c6c-6f5f-4776-9f72-6c642e6b6963,1*%
%TF.SameCoordinates,Original*%
%TF.FileFunction,Copper,L2,Bot*%
%TF.FilePolarity,Positive*%
%FSLAX46Y46*%
G04 Gerber Fmt 4.6, Leading zero omitted, Abs format (unit mm)*
G04 Created by KiCad (PCBNEW 8.0.5) date 2025-02-15 20:25:57*
%MOMM*%
%LPD*%
G01*
G04 APERTURE LIST*
%TA.AperFunction,ComponentPad*%
%ADD10R,1.700000X1.700000*%
%TD*%
%TA.AperFunction,ComponentPad*%
%ADD11O,1.700000X1.700000*%
%TD*%
%TA.AperFunction,ComponentPad*%
%ADD12C,0.800000*%
%TD*%
%TA.AperFunction,ComponentPad*%
%ADD13C,5.000000*%
%TD*%
%TA.AperFunction,ComponentPad*%
%ADD14R,2.600000X2.600000*%
%TD*%
%TA.AperFunction,ComponentPad*%
%ADD15C,2.600000*%
%TD*%
%TA.AperFunction,ComponentPad*%
%ADD16R,1.524000X1.524000*%
%TD*%
%TA.AperFunction,ComponentPad*%
%ADD17C,1.524000*%
%TD*%
%TA.AperFunction,ViaPad*%
%ADD18C,0.600000*%
%TD*%
%TA.AperFunction,Conductor*%
%ADD19C,0.200000*%
%TD*%
G04 APERTURE END LIST*
D10*
%TO.P,J1,1,Pin_1*%
%TO.N,EN*%
X136139095Y-115720093D03*
D11*
%TO.P,J1,2,Pin_2*%
%TO.N,VP*%
X136139095Y-118260093D03*
%TO.P,J1,3,Pin_3*%
%TO.N,VN*%
X136139095Y-120800093D03*
%TO.P,J1,4,Pin_4*%
%TO.N,D34*%
X136139095Y-123340093D03*
%TO.P,J1,5,Pin_5*%
%TO.N,D35*%
X136139095Y-125880093D03*
%TO.P,J1,6,Pin_6*%
%TO.N,D32*%
X136139095Y-128420093D03*
%TO.P,J1,7,Pin_7*%
%TO.N,D33*%
X136139095Y-130960093D03*
%TO.P,J1,8,Pin_8*%
%TO.N,D25*%
X136139095Y-133500093D03*
%TO.P,J1,9,Pin_9*%
%TO.N,D26*%
X136139095Y-136040093D03*
%TO.P,J1,10,Pin_10*%
%TO.N,D27*%
X136139095Y-138580093D03*
%TO.P,J1,11,Pin_11*%
%TO.N,D14*%
X136139095Y-141120093D03*
%TO.P,J1,12,Pin_12*%
%TO.N,D12*%
X136139095Y-143660093D03*
%TO.P,J1,13,Pin_13*%
%TO.N,D13*%
X136139095Y-146200093D03*
%TO.P,J1,14,Pin_14*%
%TO.N,GND*%
X136139095Y-148740093D03*
%TO.P,J1,15,Pin_15*%
%TO.N,VIN*%
X136139095Y-151280093D03*
%TD*%
D10*
%TO.P,J2,1,Pin_1*%
%TO.N,D23*%
X161639095Y-115920093D03*
D11*
%TO.P,J2,2,Pin_2*%
%TO.N,D22*%
X161639095Y-118460093D03*
%TO.P,J2,3,Pin_3*%
%TO.N,TX0*%
X161639095Y-121000093D03*
%TO.P,J2,4,Pin_4*%
%TO.N,RX0*%
X161639095Y-123540093D03*
%TO.P,J2,5,Pin_5*%
%TO.N,D21*%
X161639095Y-126080093D03*
%TO.P,J2,6,Pin_6*%
%TO.N,D19*%
X161639095Y-128620093D03*
%TO.P,J2,7,Pin_7*%
%TO.N,D18*%
X161639095Y-131160093D03*
%TO.P,J2,8,Pin_8*%
%TO.N,D5*%
X161639095Y-133700093D03*
%TO.P,J2,9,Pin_9*%
%TO.N,TX2*%
X161639095Y-136240093D03*
%TO.P,J2,10,Pin_10*%
%TO.N,RX2*%
X161639095Y-138780093D03*
%TO.P,J2,11,Pin_11*%
%TO.N,D4*%
X161639095Y-141320093D03*
%TO.P,J2,12,Pin_12*%
%TO.N,D2*%
X161639095Y-143860093D03*
%TO.P,J2,13,Pin_13*%
%TO.N,D15*%
X161639095Y-146400093D03*
%TO.P,J2,14,Pin_14*%
%TO.N,GND*%
X161639095Y-148940093D03*
%TO.P,J2,15,Pin_15*%
%TO.N,3V3*%
X161639095Y-151480093D03*
%TD*%
D12*
%TO.P,REF\u002A\u002A,1*%
%TO.N,N/C*%
X164625000Y-160000000D03*
X165174175Y-158674175D03*
X165174175Y-161325825D03*
X166500000Y-158125000D03*
D13*
X166500000Y-160000000D03*
D12*
X166500000Y-161875000D03*
X167825825Y-158674175D03*
X167825825Y-161325825D03*
X168375000Y-160000000D03*
%TD*%
D10*
%TO.P,J3,1,Pin_1*%
%TO.N,D23*%
X166160000Y-97000000D03*
D11*
%TO.P,J3,2,Pin_2*%
%TO.N,D22*%
X163620000Y-97000000D03*
%TO.P,J3,3,Pin_3*%
%TO.N,TX0*%
X161080000Y-97000000D03*
%TO.P,J3,4,Pin_4*%
%TO.N,RX0*%
X158540000Y-97000000D03*
%TO.P,J3,5,Pin_5*%
%TO.N,D21*%
X156000000Y-97000000D03*
%TO.P,J3,6,Pin_6*%
%TO.N,D19*%
X153460000Y-97000000D03*
%TO.P,J3,7,Pin_7*%
%TO.N,D18*%
X150920000Y-97000000D03*
%TO.P,J3,8,Pin_8*%
%TO.N,D5*%
X148380000Y-97000000D03*
%TO.P,J3,9,Pin_9*%
%TO.N,TX2*%
X145840000Y-97000000D03*
%TO.P,J3,10,Pin_10*%
%TO.N,RX2*%
X143300000Y-97000000D03*
%TO.P,J3,11,Pin_11*%
%TO.N,D4*%
X140760000Y-97000000D03*
%TO.P,J3,12,Pin_12*%
%TO.N,D2*%
X138220000Y-97000000D03*
%TO.P,J3,13,Pin_13*%
%TO.N,D15*%
X135680000Y-97000000D03*
%TO.P,J3,14,Pin_14*%
%TO.N,GND*%
X133140000Y-97000000D03*
%TO.P,J3,15,Pin_15*%
%TO.N,3V3*%
X130600000Y-97000000D03*
%TD*%
D12*
%TO.P,REF\u002A\u002A,1*%
%TO.N,N/C*%
X171625000Y-108500000D03*
X172174175Y-107174175D03*
X172174175Y-109825825D03*
X173500000Y-106625000D03*
D13*
X173500000Y-108500000D03*
D12*
X173500000Y-110375000D03*
X174825825Y-107174175D03*
X174825825Y-109825825D03*
X175375000Y-108500000D03*
%TD*%
D14*
%TO.P,screwBottom1,1,Pin_1*%
%TO.N,EN*%
X113500000Y-90000000D03*
D15*
%TO.P,screwBottom1,2,Pin_2*%
%TO.N,VP*%
X118500000Y-90000000D03*
%TO.P,screwBottom1,3,Pin_3*%
%TO.N,VN*%
X123500000Y-90000000D03*
%TO.P,screwBottom1,4,Pin_4*%
%TO.N,D34*%
X128500000Y-90000000D03*
%TO.P,screwBottom1,5,Pin_5*%
%TO.N,D35*%
X133500000Y-90000000D03*
%TO.P,screwBottom1,6,Pin_6*%
%TO.N,D32*%
X138500000Y-90000000D03*
%TO.P,screwBottom1,7,Pin_7*%
%TO.N,D33*%
X143500000Y-90000000D03*
%TO.P,screwBottom1,8,Pin_8*%
%TO.N,D25*%
X148500000Y-90000000D03*
%TO.P,screwBottom1,9,Pin_9*%
%TO.N,D26*%
X153500000Y-90000000D03*
%TO.P,screwBottom1,10,Pin_10*%
%TO.N,D27*%
X158500000Y-90000000D03*
%TO.P,screwBottom1,11,Pin_11*%
%TO.N,D14*%
X163500000Y-90000000D03*
%TO.P,screwBottom1,12,Pin_12*%
%TO.N,D12*%
X168500000Y-90000000D03*
%TO.P,screwBottom1,13,Pin_13*%
%TO.N,D13*%
X173500000Y-90000000D03*
%TO.P,screwBottom1,14,Pin_14*%
%TO.N,GND*%
X178500000Y-90000000D03*
%TO.P,screwBottom1,15,Pin_15*%
%TO.N,VIN*%
X183500000Y-90000000D03*
%TD*%
D12*
%TO.P,REF\u002A\u002A,1*%
%TO.N,N/C*%
X123625000Y-108000000D03*
X124174175Y-106674175D03*
X124174175Y-109325825D03*
X125500000Y-106125000D03*
D13*
X125500000Y-108000000D03*
D12*
X125500000Y-109875000D03*
X126825825Y-106674175D03*
X126825825Y-109325825D03*
X127375000Y-108000000D03*
%TD*%
D14*
%TO.P,screwTop1,1,Pin_1*%
%TO.N,3V3*%
X113500000Y-75000000D03*
D15*
%TO.P,screwTop1,2,Pin_2*%
%TO.N,GND*%
X118500000Y-75000000D03*
%TO.P,screwTop1,3,Pin_3*%
%TO.N,D15*%
X123500000Y-75000000D03*
%TO.P,screwTop1,4,Pin_4*%
%TO.N,D2*%
X128500000Y-75000000D03*
%TO.P,screwTop1,5,Pin_5*%
%TO.N,D4*%
X133500000Y-75000000D03*
%TO.P,screwTop1,6,Pin_6*%
%TO.N,RX2*%
X138500000Y-75000000D03*
%TO.P,screwTop1,7,Pin_7*%
%TO.N,TX2*%
X143500000Y-75000000D03*
%TO.P,screwTop1,8,Pin_8*%
%TO.N,D5*%
X148500000Y-75000000D03*
%TO.P,screwTop1,9,Pin_9*%
%TO.N,D18*%
X153500000Y-75000000D03*
%TO.P,screwTop1,10,Pin_10*%
%TO.N,D19*%
X158500000Y-75000000D03*
%TO.P,screwTop1,11,Pin_11*%
%TO.N,D21*%
X163500000Y-75000000D03*
%TO.P,screwTop1,12,Pin_12*%
%TO.N,RX0*%
X168500000Y-75000000D03*
%TO.P,screwTop1,13,Pin_13*%
%TO.N,TX0*%
X173500000Y-75000000D03*
%TO.P,screwTop1,14,Pin_14*%
%TO.N,D22*%
X178500000Y-75000000D03*
%TO.P,screwTop1,15,Pin_15*%
%TO.N,D23*%
X183500000Y-75000000D03*
%TD*%
D12*
%TO.P,REF\u002A\u002A,1*%
%TO.N,N/C*%
X108625000Y-97500000D03*
X109174175Y-96174175D03*
X109174175Y-98825825D03*
X110500000Y-95625000D03*
D13*
X110500000Y-97500000D03*
D12*
X110500000Y-99375000D03*
X111825825Y-96174175D03*
X111825825Y-98825825D03*
X112375000Y-97500000D03*
%TD*%
%TO.P,REF\u002A\u002A,1*%
%TO.N,N/C*%
X129625000Y-160000000D03*
X130174175Y-158674175D03*
X130174175Y-161325825D03*
X131500000Y-158125000D03*
D13*
X131500000Y-160000000D03*
D12*
X131500000Y-161875000D03*
X132825825Y-158674175D03*
X132825825Y-161325825D03*
X133375000Y-160000000D03*
%TD*%
%TO.P,REF\u002A\u002A,1*%
%TO.N,N/C*%
X183625000Y-97500000D03*
X184174175Y-96174175D03*
X184174175Y-98825825D03*
X185500000Y-95625000D03*
D13*
X185500000Y-97500000D03*
D12*
X185500000Y-99375000D03*
X186825825Y-96174175D03*
X186825825Y-98825825D03*
X187375000Y-97500000D03*
%TD*%
D10*
%TO.P,J4,1,Pin_1*%
%TO.N,VIN*%
X166250000Y-104525000D03*
D11*
%TO.P,J4,2,Pin_2*%
%TO.N,GND*%
X163710000Y-104525000D03*
%TO.P,J4,3,Pin_3*%
%TO.N,D13*%
X161170000Y-104525000D03*
%TO.P,J4,4,Pin_4*%
%TO.N,D12*%
X158630000Y-104525000D03*
%TO.P,J4,5,Pin_5*%
%TO.N,D14*%
X156090000Y-104525000D03*
%TO.P,J4,6,Pin_6*%
%TO.N,D27*%
X153550000Y-104525000D03*
%TO.P,J4,7,Pin_7*%
%TO.N,D26*%
X151010000Y-104525000D03*
%TO.P,J4,8,Pin_8*%
%TO.N,D25*%
X148470000Y-104525000D03*
%TO.P,J4,9,Pin_9*%
%TO.N,D33*%
X145930000Y-104525000D03*
%TO.P,J4,10,Pin_10*%
%TO.N,D32*%
X143390000Y-104525000D03*
%TO.P,J4,11,Pin_11*%
%TO.N,D35*%
X140850000Y-104525000D03*
%TO.P,J4,12,Pin_12*%
%TO.N,D34*%
X138310000Y-104525000D03*
%TO.P,J4,13,Pin_13*%
%TO.N,VN*%
X135770000Y-104525000D03*
%TO.P,J4,14,Pin_14*%
%TO.N,VP*%
X133230000Y-104525000D03*
%TO.P,J4,15,Pin_15*%
%TO.N,EN*%
X130690000Y-104525000D03*
%TD*%
D16*
%TO.P,U1,1,EN*%
%TO.N,EN*%
X136139095Y-115920093D03*
D17*
%TO.P,U1,2,SENSOR_VP*%
%TO.N,VP*%
X136139095Y-118460093D03*
%TO.P,U1,3,SENSOR_VN*%
%TO.N,VN*%
X136139095Y-121000093D03*
%TO.P,U1,4,IO34*%
%TO.N,D34*%
X136139095Y-123540093D03*
%TO.P,U1,5,IO35*%
%TO.N,D35*%
X136139095Y-126080093D03*
%TO.P,U1,6,IO32*%
%TO.N,D32*%
X136139095Y-128620093D03*
%TO.P,U1,7,IO33*%
%TO.N,D33*%
X136139095Y-131160093D03*
%TO.P,U1,8,IO25*%
%TO.N,D25*%
X136139095Y-133700093D03*
%TO.P,U1,9,IO26*%
%TO.N,D26*%
X136139095Y-136240093D03*
%TO.P,U1,10,IO27*%
%TO.N,D27*%
X136139095Y-138780093D03*
%TO.P,U1,11,IO14*%
%TO.N,D14*%
X136139095Y-141320093D03*
%TO.P,U1,12,IO12*%
%TO.N,D12*%
X136139095Y-143860093D03*
%TO.P,U1,13,IO13*%
%TO.N,D13*%
X136139095Y-146400093D03*
%TO.P,U1,14,GND*%
%TO.N,GND*%
X136139095Y-148940093D03*
%TO.P,U1,15,VIN*%
%TO.N,VIN*%
X136139095Y-151480093D03*
%TO.P,U1,16,3V3*%
%TO.N,3V3*%
X161539095Y-151480093D03*
%TO.P,U1,17,GND*%
%TO.N,GND*%
X161539095Y-148940093D03*
%TO.P,U1,18,IO15*%
%TO.N,D15*%
X161539095Y-146400093D03*
%TO.P,U1,19,IO2*%
%TO.N,D2*%
X161539095Y-143860093D03*
%TO.P,U1,20,IO4*%
%TO.N,D4*%
X161539095Y-141320093D03*
%TO.P,U1,21,IO16*%
%TO.N,RX2*%
X161539095Y-138780093D03*
%TO.P,U1,22,IO17*%
%TO.N,TX2*%
X161539095Y-136240093D03*
%TO.P,U1,23,IO5*%
%TO.N,D5*%
X161539095Y-133700093D03*
%TO.P,U1,24,IO18*%
%TO.N,D18*%
X161539095Y-131160093D03*
%TO.P,U1,25,IO19*%
%TO.N,D19*%
X161539095Y-128620093D03*
%TO.P,U1,26,IO21*%
%TO.N,D21*%
X161539095Y-126080093D03*
%TO.P,U1,27,RXD0/IO3*%
%TO.N,RX0*%
X161539095Y-123540093D03*
%TO.P,U1,28,TXD0/IO1*%
%TO.N,TX0*%
X161539095Y-121000093D03*
%TO.P,U1,29,IO22*%
%TO.N,D22*%
X161539095Y-118460093D03*
%TO.P,U1,30,IO23*%
%TO.N,D23*%
X161539095Y-115920093D03*
%TD*%
D18*
%TO.N,TX0*%
X161000000Y-99500000D03*
%TO.N,D22*%
X169500000Y-83500000D03*
%TO.N,D21*%
X157500000Y-118500000D03*
X156000000Y-100500000D03*
%TO.N,3V3*%
X127000000Y-97000000D03*
%TO.N,D23*%
X164000000Y-99500000D03*
%TO.N,D15*%
X125000000Y-83500000D03*
%TO.N,GND*%
X152500000Y-129000000D03*
X151825735Y-127825735D03*
%TO.N,D14*%
X159500000Y-99000000D03*
%TO.N,D25*%
X148500000Y-102000000D03*
%TO.N,D12*%
X161016765Y-100983235D03*
%TO.N,VN*%
X140500000Y-107000000D03*
%TO.N,D13*%
X152000000Y-130000000D03*
X139000000Y-146000000D03*
X151000000Y-128500000D03*
X163000000Y-102500000D03*
%TO.N,EN*%
X132000000Y-115500000D03*
%TO.N,D26*%
X151010000Y-102010000D03*
%TO.N,D32*%
X139500000Y-100000000D03*
%TO.N,D27*%
X154000000Y-102000000D03*
%TO.N,D33*%
X145930000Y-102070000D03*
%TD*%
D19*
%TO.N,TX0*%
X161000000Y-99500000D02*
X162000000Y-100500000D01*
X162000000Y-102068654D02*
X160020000Y-104048654D01*
X162000000Y-100500000D02*
X162000000Y-102068654D01*
X160020000Y-119480998D02*
X161539095Y-121000093D01*
X160020000Y-104048654D02*
X160020000Y-119480998D01*
%TO.N,D19*%
X155081095Y-122062093D02*
X161639095Y-128620093D01*
X135699200Y-122062093D02*
X155081095Y-122062093D01*
X153460000Y-101108654D02*
X152160000Y-102408654D01*
X135699200Y-122062093D02*
X134989095Y-121351988D01*
X139000000Y-117265534D02*
X139000000Y-107651471D01*
X148400000Y-106400000D02*
X150250000Y-108250000D01*
X134989095Y-120323747D02*
X135662749Y-119650093D01*
X153460000Y-97000000D02*
X153460000Y-101108654D01*
X152160000Y-102408654D02*
X152160000Y-106340000D01*
X136615441Y-119650093D02*
X139000000Y-117265534D01*
X152160000Y-106340000D02*
X150250000Y-108250000D01*
X140251471Y-106400000D02*
X148400000Y-106400000D01*
X154981095Y-122062093D02*
X161539095Y-128620093D01*
X135699200Y-122062093D02*
X154981095Y-122062093D01*
X134989095Y-121351988D02*
X134989095Y-120323747D01*
X139000000Y-107651471D02*
X140251471Y-106400000D01*
X135662749Y-119650093D02*
X136615441Y-119650093D01*
%TO.N,D22*%
X164860000Y-115139188D02*
X161539095Y-118460093D01*
X169500000Y-83500000D02*
X169500000Y-86262742D01*
X163620000Y-92142742D02*
X163620000Y-97000000D01*
X169500000Y-86262742D02*
X163620000Y-92142742D01*
X163620000Y-97000000D02*
X164860000Y-98240000D01*
X164860000Y-98240000D02*
X164860000Y-115139188D01*
%TO.N,D21*%
X156000000Y-97000000D02*
X156000000Y-100500000D01*
X157500000Y-122040998D02*
X161539095Y-126080093D01*
X157500000Y-118500000D02*
X157500000Y-122040998D01*
%TO.N,3V3*%
X127000000Y-97000000D02*
X130600000Y-97000000D01*
X135699200Y-129682093D02*
X139741095Y-129682093D01*
X131000000Y-124982893D02*
X135699200Y-129682093D01*
X131000000Y-107660000D02*
X131000000Y-124982893D01*
X132080000Y-98480000D02*
X132080000Y-106580000D01*
X130600000Y-97000000D02*
X132080000Y-98480000D01*
X132080000Y-106580000D02*
X131000000Y-107660000D01*
X139741095Y-129682093D02*
X161539095Y-151480093D01*
%TO.N,D23*%
X164000000Y-102608654D02*
X162320000Y-104288654D01*
X164000000Y-99500000D02*
X164000000Y-102608654D01*
X162320000Y-115239188D02*
X161639095Y-115920093D01*
X162320000Y-104288654D02*
X162320000Y-115239188D01*
%TO.N,RX0*%
X160100000Y-98560000D02*
X160100000Y-101428654D01*
X160477095Y-122378093D02*
X161639095Y-123540093D01*
X157480000Y-105001346D02*
X158478654Y-106000000D01*
X160100000Y-101428654D02*
X157480000Y-104048654D01*
X157480000Y-104048654D02*
X157480000Y-105001346D01*
X160489095Y-120523747D02*
X160477095Y-120535747D01*
X158478654Y-118513306D02*
X160489095Y-120523747D01*
X160477095Y-120535747D02*
X160477095Y-122378093D01*
X158540000Y-97000000D02*
X160100000Y-98560000D01*
X158478654Y-106000000D02*
X158478654Y-118513306D01*
%TO.N,D15*%
X135680000Y-97000000D02*
X135680000Y-100028654D01*
X139700000Y-105001346D02*
X131400000Y-113301346D01*
X131400000Y-122842893D02*
X135699200Y-127142093D01*
X142381095Y-127142093D02*
X161639095Y-146400093D01*
X139700000Y-104048654D02*
X139700000Y-105001346D01*
X131400000Y-113301346D02*
X131400000Y-122842893D01*
X135699200Y-127142093D02*
X142381095Y-127142093D01*
X135680000Y-100028654D02*
X139700000Y-104048654D01*
X125000000Y-83500000D02*
X130100000Y-88600000D01*
X135680000Y-96614314D02*
X135680000Y-97000000D01*
X130100000Y-91034314D02*
X135680000Y-96614314D01*
X130100000Y-88600000D02*
X130100000Y-91034314D01*
%TO.N,D5*%
X168000000Y-127239188D02*
X161539095Y-133700093D01*
X148380000Y-92857258D02*
X158737258Y-82500000D01*
X186000000Y-82500000D02*
X186500000Y-83000000D01*
X186500000Y-91000000D02*
X175500000Y-102000000D01*
X186500000Y-83000000D02*
X186500000Y-91000000D01*
X175500000Y-102000000D02*
X173500000Y-102000000D01*
X173500000Y-102000000D02*
X168000000Y-107500000D01*
X148380000Y-97000000D02*
X148380000Y-92857258D01*
X158737258Y-82500000D02*
X186000000Y-82500000D01*
X168000000Y-107500000D02*
X168000000Y-127239188D01*
%TO.N,D18*%
X148565686Y-106000000D02*
X140085785Y-106000000D01*
X134589095Y-123491988D02*
X135699200Y-124602093D01*
X155081095Y-124602093D02*
X161639095Y-131160093D01*
X140085785Y-106000000D02*
X137289095Y-108796690D01*
X134589095Y-118183747D02*
X134589095Y-123491988D01*
X135662749Y-117110093D02*
X134589095Y-118183747D01*
X137289095Y-117783747D02*
X136615441Y-117110093D01*
X135699200Y-124602093D02*
X155081095Y-124602093D01*
X149860000Y-107294314D02*
X148565686Y-106000000D01*
X149860000Y-98060000D02*
X149860000Y-107294314D01*
X137289095Y-108796690D02*
X137289095Y-117783747D01*
X150920000Y-97000000D02*
X149860000Y-98060000D01*
X136615441Y-117110093D02*
X135662749Y-117110093D01*
%TO.N,GND*%
X152500000Y-128500000D02*
X152500000Y-129000000D01*
X151825735Y-127825735D02*
X152500000Y-128500000D01*
%TO.N,D14*%
X159500000Y-101115000D02*
X156090000Y-104525000D01*
X159500000Y-99000000D02*
X159500000Y-101115000D01*
%TO.N,D25*%
X148500000Y-102000000D02*
X147230000Y-100730000D01*
X147230000Y-91270000D02*
X148500000Y-90000000D01*
X147230000Y-100730000D02*
X147230000Y-91270000D01*
%TO.N,D34*%
X138310000Y-104525000D02*
X134530000Y-100745000D01*
X134530000Y-96030000D02*
X128500000Y-90000000D01*
X134530000Y-100745000D02*
X134530000Y-96030000D01*
%TO.N,D12*%
X161016765Y-102138235D02*
X158630000Y-104525000D01*
X161016765Y-100983235D02*
X161016765Y-102138235D01*
%TO.N,VN*%
X140500000Y-107000000D02*
X139400000Y-108100000D01*
X139400000Y-108100000D02*
X139400000Y-117739188D01*
X139400000Y-117739188D02*
X136139095Y-121000093D01*
%TO.N,D13*%
X139000000Y-146000000D02*
X138500000Y-146000000D01*
X138500000Y-146000000D02*
X138299907Y-146200093D01*
X151500000Y-129000000D02*
X151500000Y-129500000D01*
X163000000Y-102695000D02*
X161170000Y-104525000D01*
X138299907Y-146200093D02*
X136139095Y-146200093D01*
X163000000Y-102500000D02*
X163000000Y-102695000D01*
X151000000Y-128500000D02*
X151500000Y-129000000D01*
X151500000Y-129500000D02*
X152000000Y-130000000D01*
%TO.N,D35*%
X140850000Y-104525000D02*
X137000000Y-100675000D01*
X137000000Y-93500000D02*
X133500000Y-90000000D01*
X137000000Y-100675000D02*
X137000000Y-93500000D01*
%TO.N,EN*%
X132500000Y-115500000D02*
X132720093Y-115720093D01*
X132720093Y-115720093D02*
X136139095Y-115720093D01*
X132000000Y-115500000D02*
X132500000Y-115500000D01*
%TO.N,D26*%
X151010000Y-102010000D02*
X152070000Y-100950000D01*
X152070000Y-91430000D02*
X153500000Y-90000000D01*
X152070000Y-100950000D02*
X152070000Y-91430000D01*
%TO.N,D32*%
X139500000Y-100000000D02*
X139500000Y-91000000D01*
X139500000Y-91000000D02*
X138500000Y-90000000D01*
%TO.N,D27*%
X154850000Y-93650000D02*
X158500000Y-90000000D01*
X154000000Y-102000000D02*
X154850000Y-101150000D01*
X154850000Y-101150000D02*
X154850000Y-93650000D01*
%TO.N,D33*%
X144500000Y-100640000D02*
X144500000Y-91000000D01*
X144500000Y-91000000D02*
X143500000Y-90000000D01*
X145930000Y-102070000D02*
X144500000Y-100640000D01*
%TD*%
%TA.AperFunction,Conductor*%
%TO.N,GND*%
G36*
X142148037Y-127762278D02*
G01*
X142168679Y-127778912D01*
X160299312Y-145909546D01*
X160332797Y-145970869D01*
X160331406Y-146029320D01*
X160291026Y-146180019D01*
X160291024Y-146180030D01*
X160271772Y-146400090D01*
X160271772Y-146400095D01*
X160291024Y-146620155D01*
X160291025Y-146620163D01*
X160348199Y-146833538D01*
X160348200Y-146833540D01*
X160348201Y-146833543D01*
X160401628Y-146948118D01*
X160441562Y-147033758D01*
X160444028Y-147037279D01*
X160454833Y-147055993D01*
X160465058Y-147077921D01*
X160465060Y-147077924D01*
X160560838Y-147214708D01*
X160600600Y-147271494D01*
X160767694Y-147438588D01*
X160911360Y-147539184D01*
X160953690Y-147568824D01*
X160997314Y-147623401D01*
X161004507Y-147692900D01*
X160972985Y-147755254D01*
X160953689Y-147771974D01*
X160818905Y-147866349D01*
X160818904Y-147866350D01*
X161433816Y-148481261D01*
X161332088Y-148539994D01*
X161238996Y-148633086D01*
X161173170Y-148747100D01*
X161139095Y-148874267D01*
X161139095Y-149005919D01*
X161173170Y-149133086D01*
X161206083Y-149190093D01*
X160299563Y-149190093D01*
X160298268Y-149191781D01*
X160241840Y-149232983D01*
X160172094Y-149237138D01*
X160112212Y-149203975D01*
X159598329Y-148690092D01*
X160299563Y-148690092D01*
X160299564Y-148690093D01*
X160935542Y-148690093D01*
X160935542Y-148690092D01*
X160482985Y-148237535D01*
X160482984Y-148237535D01*
X160465495Y-148262513D01*
X160455267Y-148284446D01*
X160444476Y-148303139D01*
X160441999Y-148306677D01*
X160441991Y-148306690D01*
X160348675Y-148506808D01*
X160348670Y-148506822D01*
X160299563Y-148690092D01*
X159598329Y-148690092D01*
X140228685Y-129320448D01*
X140228683Y-129320445D01*
X140109812Y-129201574D01*
X140109804Y-129201568D01*
X139988067Y-129131284D01*
X139988064Y-129131283D01*
X139985521Y-129129815D01*
X139972880Y-129122516D01*
X139820152Y-129081592D01*
X139662038Y-129081592D01*
X139654442Y-129081592D01*
X139654426Y-129081593D01*
X137515386Y-129081593D01*
X137448347Y-129061908D01*
X137402592Y-129009104D01*
X137392648Y-128939946D01*
X137403004Y-128905189D01*
X137412995Y-128883762D01*
X137412998Y-128883756D01*
X137474158Y-128655501D01*
X137494754Y-128420093D01*
X137491656Y-128384689D01*
X137474158Y-128184689D01*
X137474158Y-128184685D01*
X137412998Y-127956430D01*
X137395543Y-127918998D01*
X137385051Y-127849920D01*
X137413571Y-127786136D01*
X137472047Y-127747897D01*
X137507925Y-127742593D01*
X142080998Y-127742593D01*
X142148037Y-127762278D01*
G37*
%TD.AperFunction*%
%TA.AperFunction,Conductor*%
G36*
X154848037Y-125222278D02*
G01*
X154868679Y-125238912D01*
X160299312Y-130669546D01*
X160332797Y-130730869D01*
X160331406Y-130789320D01*
X160291026Y-130940019D01*
X160291024Y-130940030D01*
X160271772Y-131160090D01*
X160271772Y-131160095D01*
X160291024Y-131380155D01*
X160291025Y-131380163D01*
X160348199Y-131593538D01*
X160348200Y-131593540D01*
X160348201Y-131593543D01*
X160401628Y-131708118D01*
X160441562Y-131793758D01*
X160444028Y-131797279D01*
X160454833Y-131815993D01*
X160465058Y-131837921D01*
X160465060Y-131837924D01*
X160600596Y-132031488D01*
X160600601Y-132031495D01*
X160767692Y-132198586D01*
X160767698Y-132198591D01*
X160953253Y-132328518D01*
X160996878Y-132383095D01*
X161004072Y-132452593D01*
X160972549Y-132514948D01*
X160953253Y-132531668D01*
X160767692Y-132661598D01*
X160600600Y-132828690D01*
X160465061Y-133022261D01*
X160454832Y-133044195D01*
X160444041Y-133062888D01*
X160441564Y-133066426D01*
X160441559Y-133066435D01*
X160348202Y-133266641D01*
X160348199Y-133266647D01*
X160291025Y-133480022D01*
X160291024Y-133480030D01*
X160271772Y-133700090D01*
X160271772Y-133700095D01*
X160291024Y-133920155D01*
X160291025Y-133920163D01*
X160348199Y-134133538D01*
X160348200Y-134133540D01*
X160348201Y-134133543D01*
X160401628Y-134248118D01*
X160441562Y-134333758D01*
X160444028Y-134337279D01*
X160454833Y-134355993D01*
X160465058Y-134377921D01*
X160465060Y-134377924D01*
X160600596Y-134571488D01*
X160600601Y-134571495D01*
X160767692Y-134738586D01*
X160767698Y-134738591D01*
X160953253Y-134868518D01*
X160996878Y-134923095D01*
X161004072Y-134992593D01*
X160972549Y-135054948D01*
X160953253Y-135071668D01*
X160767692Y-135201598D01*
X160600600Y-135368690D01*
X160465061Y-135562261D01*
X160454832Y-135584195D01*
X160444041Y-135602888D01*
X160441564Y-135606426D01*
X160441559Y-135606435D01*
X160348202Y-135806641D01*
X160348199Y-135806647D01*
X160291025Y-136020022D01*
X160291024Y-136020030D01*
X160271772Y-136240090D01*
X160271772Y-136240095D01*
X160291024Y-136460155D01*
X160291025Y-136460163D01*
X160348199Y-136673538D01*
X160348200Y-136673540D01*
X160348201Y-136673543D01*
X160401628Y-136788118D01*
X160441562Y-136873758D01*
X160444028Y-136877279D01*
X160454833Y-136895993D01*
X160465058Y-136917921D01*
X160465060Y-136917924D01*
X160600596Y-137111488D01*
X160600601Y-137111495D01*
X160767692Y-137278586D01*
X160767698Y-137278591D01*
X160953253Y-137408518D01*
X160996878Y-137463095D01*
X161004072Y-137532593D01*
X160972549Y-137594948D01*
X160953253Y-137611668D01*
X160767692Y-137741598D01*
X160600600Y-137908690D01*
X160465061Y-138102261D01*
X160454832Y-138124195D01*
X160444041Y-138142888D01*
X160441564Y-138146426D01*
X160441559Y-138146435D01*
X160348202Y-138346641D01*
X160348199Y-138346647D01*
X160291025Y-138560022D01*
X160291024Y-138560030D01*
X160271772Y-138780090D01*
X160271772Y-138780095D01*
X160291024Y-139000155D01*
X160291025Y-139000163D01*
X160348199Y-139213538D01*
X160348200Y-139213540D01*
X160348201Y-139213543D01*
X160401628Y-139328118D01*
X160441562Y-139413758D01*
X160444028Y-139417279D01*
X160454833Y-139435993D01*
X160465058Y-139457921D01*
X160465060Y-139457924D01*
X160600596Y-139651488D01*
X160600601Y-139651495D01*
X160767692Y-139818586D01*
X160767698Y-139818591D01*
X160953253Y-139948518D01*
X160996878Y-140003095D01*
X161004072Y-140072593D01*
X160972549Y-140134948D01*
X160953253Y-140151668D01*
X160767692Y-140281598D01*
X160600600Y-140448690D01*
X160465061Y-140642261D01*
X160454832Y-140664195D01*
X160444041Y-140682888D01*
X160441564Y-140686426D01*
X160441559Y-140686435D01*
X160348202Y-140886641D01*
X160348199Y-140886647D01*
X160291025Y-141100022D01*
X160291024Y-141100030D01*
X160271772Y-141320090D01*
X160271772Y-141320095D01*
X160291024Y-141540155D01*
X160291025Y-141540163D01*
X160348199Y-141753538D01*
X160348200Y-141753540D01*
X160348201Y-141753543D01*
X160401628Y-141868118D01*
X160441562Y-141953758D01*
X160444028Y-141957279D01*
X160454833Y-141975993D01*
X160465058Y-141997921D01*
X160465060Y-141997924D01*
X160600596Y-142191488D01*
X160600601Y-142191495D01*
X160767692Y-142358586D01*
X160767698Y-142358591D01*
X160953253Y-142488518D01*
X160996878Y-142543095D01*
X161004072Y-142612593D01*
X160972549Y-142674948D01*
X160953253Y-142691668D01*
X160767692Y-142821598D01*
X160600600Y-142988690D01*
X160465061Y-143182261D01*
X160454832Y-143204195D01*
X160444041Y-143222888D01*
X160441564Y-143226426D01*
X160441559Y-143226435D01*
X160348202Y-143426641D01*
X160348199Y-143426647D01*
X160291025Y-143640022D01*
X160291024Y-143640030D01*
X160271772Y-143860090D01*
X160271772Y-143860099D01*
X160273089Y-143875157D01*
X160259321Y-143943656D01*
X160210705Y-143993838D01*
X160142675Y-144009770D01*
X160076832Y-143986393D01*
X160061880Y-143973642D01*
X144588233Y-128499996D01*
X150194435Y-128499996D01*
X150194435Y-128500003D01*
X150214630Y-128679249D01*
X150214631Y-128679254D01*
X150274211Y-128849523D01*
X150319088Y-128920944D01*
X150370184Y-129002262D01*
X150497738Y-129129816D01*
X150650478Y-129225789D01*
X150816455Y-129283867D01*
X150873230Y-129324588D01*
X150898978Y-129389540D01*
X150899500Y-129400908D01*
X150899500Y-129413330D01*
X150899499Y-129413348D01*
X150899499Y-129579054D01*
X150899498Y-129579054D01*
X150899499Y-129579057D01*
X150920810Y-129658591D01*
X150940424Y-129731787D01*
X150957376Y-129761148D01*
X150957377Y-129761150D01*
X151019477Y-129868712D01*
X151019481Y-129868717D01*
X151131284Y-129980520D01*
X151131285Y-129980522D01*
X151169298Y-130018535D01*
X151202783Y-130079858D01*
X151204837Y-130092332D01*
X151214630Y-130179249D01*
X151274210Y-130349521D01*
X151366524Y-130496437D01*
X151370184Y-130502262D01*
X151497738Y-130629816D01*
X151650478Y-130725789D01*
X151820745Y-130785368D01*
X151820750Y-130785369D01*
X151999996Y-130805565D01*
X152000000Y-130805565D01*
X152000004Y-130805565D01*
X152179249Y-130785369D01*
X152179252Y-130785368D01*
X152179255Y-130785368D01*
X152349522Y-130725789D01*
X152502262Y-130629816D01*
X152629816Y-130502262D01*
X152725789Y-130349522D01*
X152785368Y-130179255D01*
X152785369Y-130179249D01*
X152805565Y-130000003D01*
X152805565Y-129999996D01*
X152785369Y-129820750D01*
X152785368Y-129820745D01*
X152754240Y-129731787D01*
X152725789Y-129650478D01*
X152629816Y-129497738D01*
X152502262Y-129370184D01*
X152349521Y-129274210D01*
X152256845Y-129241781D01*
X152183544Y-129216132D01*
X152126770Y-129175412D01*
X152101022Y-129110460D01*
X152100500Y-129099092D01*
X152100500Y-129089060D01*
X152100501Y-129089047D01*
X152100501Y-128920944D01*
X152100501Y-128920943D01*
X152059577Y-128768216D01*
X152046978Y-128746394D01*
X151980524Y-128631290D01*
X151980522Y-128631287D01*
X151980521Y-128631286D01*
X151980520Y-128631284D01*
X151830698Y-128481463D01*
X151797215Y-128420142D01*
X151795163Y-128407686D01*
X151785368Y-128320745D01*
X151725789Y-128150478D01*
X151629816Y-127997738D01*
X151502262Y-127870184D01*
X151368501Y-127786136D01*
X151349523Y-127774211D01*
X151179254Y-127714631D01*
X151179249Y-127714630D01*
X151000004Y-127694435D01*
X150999996Y-127694435D01*
X150820750Y-127714630D01*
X150820745Y-127714631D01*
X150650476Y-127774211D01*
X150497737Y-127870184D01*
X150370184Y-127997737D01*
X150274211Y-128150476D01*
X150214631Y-128320745D01*
X150214630Y-128320750D01*
X150194435Y-128499996D01*
X144588233Y-128499996D01*
X142868685Y-126780448D01*
X142868683Y-126780445D01*
X142749812Y-126661574D01*
X142749811Y-126661573D01*
X142662999Y-126611453D01*
X142662999Y-126611452D01*
X142662995Y-126611451D01*
X142612880Y-126582516D01*
X142460152Y-126541592D01*
X142302038Y-126541592D01*
X142294442Y-126541592D01*
X142294426Y-126541593D01*
X137515386Y-126541593D01*
X137448347Y-126521908D01*
X137402592Y-126469104D01*
X137392648Y-126399946D01*
X137403004Y-126365189D01*
X137412995Y-126343762D01*
X137412998Y-126343756D01*
X137474158Y-126115501D01*
X137494754Y-125880093D01*
X137492997Y-125860016D01*
X137474158Y-125644689D01*
X137474158Y-125644685D01*
X137412998Y-125416430D01*
X137395543Y-125378998D01*
X137385051Y-125309920D01*
X137413571Y-125246136D01*
X137472047Y-125207897D01*
X137507925Y-125202593D01*
X154780998Y-125202593D01*
X154848037Y-125222278D01*
G37*
%TD.AperFunction*%
%TA.AperFunction,Conductor*%
G36*
X185766942Y-83120185D02*
G01*
X185787584Y-83136819D01*
X185863181Y-83212416D01*
X185896666Y-83273739D01*
X185899500Y-83300097D01*
X185899500Y-90699903D01*
X185879815Y-90766942D01*
X185863181Y-90787584D01*
X175287584Y-101363181D01*
X175226261Y-101396666D01*
X175199903Y-101399500D01*
X173586670Y-101399500D01*
X173586654Y-101399499D01*
X173579058Y-101399499D01*
X173420943Y-101399499D01*
X173344579Y-101419961D01*
X173268214Y-101440423D01*
X173268209Y-101440426D01*
X173131290Y-101519475D01*
X173131282Y-101519481D01*
X167519479Y-107131284D01*
X167508037Y-107151104D01*
X167490730Y-107181081D01*
X167440423Y-107268215D01*
X167399499Y-107420943D01*
X167399499Y-107420945D01*
X167399499Y-107589046D01*
X167399500Y-107589059D01*
X167399500Y-126939090D01*
X167379815Y-127006129D01*
X167363181Y-127026771D01*
X163201700Y-131188251D01*
X163140377Y-131221736D01*
X163070685Y-131216752D01*
X163014752Y-131174880D01*
X162990492Y-131111379D01*
X162974158Y-130924685D01*
X162922226Y-130730869D01*
X162913000Y-130696437D01*
X162912999Y-130696436D01*
X162912998Y-130696430D01*
X162813130Y-130482264D01*
X162748471Y-130389920D01*
X162677589Y-130288690D01*
X162510497Y-130121599D01*
X162510491Y-130121594D01*
X162324937Y-129991668D01*
X162281312Y-129937091D01*
X162274118Y-129867593D01*
X162305641Y-129805238D01*
X162324937Y-129788518D01*
X162405960Y-129731785D01*
X162510496Y-129658588D01*
X162677590Y-129491494D01*
X162813130Y-129297923D01*
X162912998Y-129083756D01*
X162974158Y-128855501D01*
X162994754Y-128620093D01*
X162974158Y-128384685D01*
X162912998Y-128156430D01*
X162813130Y-127942264D01*
X162762660Y-127870184D01*
X162677589Y-127748690D01*
X162510497Y-127581599D01*
X162510491Y-127581594D01*
X162324937Y-127451668D01*
X162281312Y-127397091D01*
X162274118Y-127327593D01*
X162305641Y-127265238D01*
X162324937Y-127248518D01*
X162347121Y-127232984D01*
X162510496Y-127118588D01*
X162677590Y-126951494D01*
X162813130Y-126757923D01*
X162912998Y-126543756D01*
X162974158Y-126315501D01*
X162994754Y-126080093D01*
X162974158Y-125844685D01*
X162912998Y-125616430D01*
X162813130Y-125402264D01*
X162777662Y-125351609D01*
X162677589Y-125208690D01*
X162510497Y-125041599D01*
X162510491Y-125041594D01*
X162324937Y-124911668D01*
X162281312Y-124857091D01*
X162274118Y-124787593D01*
X162305641Y-124725238D01*
X162324937Y-124708518D01*
X162361672Y-124682796D01*
X162510496Y-124578588D01*
X162677590Y-124411494D01*
X162813130Y-124217923D01*
X162912998Y-124003756D01*
X162974158Y-123775501D01*
X162994754Y-123540093D01*
X162974158Y-123304685D01*
X162922226Y-123110868D01*
X162913000Y-123076437D01*
X162912999Y-123076436D01*
X162912998Y-123076430D01*
X162813130Y-122862264D01*
X162810575Y-122858614D01*
X162677589Y-122668690D01*
X162510497Y-122501599D01*
X162510491Y-122501594D01*
X162324937Y-122371668D01*
X162281312Y-122317091D01*
X162274118Y-122247593D01*
X162305641Y-122185238D01*
X162324937Y-122168518D01*
X162394153Y-122120052D01*
X162510496Y-122038588D01*
X162677590Y-121871494D01*
X162813130Y-121677923D01*
X162912998Y-121463756D01*
X162974158Y-121235501D01*
X162994754Y-121000093D01*
X162974158Y-120764685D01*
X162912998Y-120536430D01*
X162813130Y-120322264D01*
X162677590Y-120128692D01*
X162677589Y-120128690D01*
X162510497Y-119961599D01*
X162510491Y-119961594D01*
X162324937Y-119831668D01*
X162281312Y-119777091D01*
X162274118Y-119707593D01*
X162305641Y-119645238D01*
X162324937Y-119628518D01*
X162347121Y-119612984D01*
X162510496Y-119498588D01*
X162677590Y-119331494D01*
X162813130Y-119137923D01*
X162912998Y-118923756D01*
X162974158Y-118695501D01*
X162994754Y-118460093D01*
X162974158Y-118224685D01*
X162942867Y-118107904D01*
X162918635Y-118017466D01*
X162920298Y-117947616D01*
X162950727Y-117897694D01*
X165218506Y-115629916D01*
X165218511Y-115629912D01*
X165228714Y-115619708D01*
X165228716Y-115619708D01*
X165340520Y-115507904D01*
X165390726Y-115420943D01*
X165419577Y-115370973D01*
X165460501Y-115218245D01*
X165460501Y-115060131D01*
X165460501Y-115052536D01*
X165460500Y-115052518D01*
X165460500Y-105999499D01*
X165480185Y-105932460D01*
X165532989Y-105886705D01*
X165584500Y-105875499D01*
X167147871Y-105875499D01*
X167147872Y-105875499D01*
X167207483Y-105869091D01*
X167342331Y-105818796D01*
X167457546Y-105732546D01*
X167543796Y-105617331D01*
X167594091Y-105482483D01*
X167600500Y-105422873D01*
X167600499Y-103627128D01*
X167594091Y-103567517D01*
X167543796Y-103432669D01*
X167543795Y-103432668D01*
X167543793Y-103432664D01*
X167457547Y-103317455D01*
X167457544Y-103317452D01*
X167342335Y-103231206D01*
X167342328Y-103231202D01*
X167207482Y-103180908D01*
X167207483Y-103180908D01*
X167147883Y-103174501D01*
X167147881Y-103174500D01*
X167147873Y-103174500D01*
X167147865Y-103174500D01*
X165584500Y-103174500D01*
X165517461Y-103154815D01*
X165471706Y-103102011D01*
X165460500Y-103050500D01*
X165460500Y-98474499D01*
X165480185Y-98407460D01*
X165532989Y-98361705D01*
X165584500Y-98350499D01*
X167057871Y-98350499D01*
X167057872Y-98350499D01*
X167117483Y-98344091D01*
X167252331Y-98293796D01*
X167367546Y-98207546D01*
X167453796Y-98092331D01*
X167504091Y-97957483D01*
X167510500Y-97897873D01*
X167510499Y-96102128D01*
X167504091Y-96042517D01*
X167502810Y-96039083D01*
X167453797Y-95907671D01*
X167453793Y-95907664D01*
X167367547Y-95792455D01*
X167367544Y-95792452D01*
X167252335Y-95706206D01*
X167252328Y-95706202D01*
X167117482Y-95655908D01*
X167117483Y-95655908D01*
X167057883Y-95649501D01*
X167057881Y-95649500D01*
X167057873Y-95649500D01*
X167057864Y-95649500D01*
X165262129Y-95649500D01*
X165262123Y-95649501D01*
X165202516Y-95655908D01*
X165067671Y-95706202D01*
X165067664Y-95706206D01*
X164952455Y-95792452D01*
X164952452Y-95792455D01*
X164866206Y-95907664D01*
X164866203Y-95907669D01*
X164817189Y-96039083D01*
X164775317Y-96095016D01*
X164709853Y-96119433D01*
X164641580Y-96104581D01*
X164613326Y-96083430D01*
X164491402Y-95961506D01*
X164491395Y-95961501D01*
X164297831Y-95825965D01*
X164297826Y-95825962D01*
X164292091Y-95823288D01*
X164239653Y-95777113D01*
X164220500Y-95710908D01*
X164220500Y-92442839D01*
X164240185Y-92375800D01*
X164256819Y-92355158D01*
X165330082Y-91281895D01*
X166497568Y-90114408D01*
X166558889Y-90080925D01*
X166628581Y-90085909D01*
X166684514Y-90127781D01*
X166708900Y-90192824D01*
X166714616Y-90269101D01*
X166774664Y-90532188D01*
X166774666Y-90532195D01*
X166873256Y-90783396D01*
X166873258Y-90783400D01*
X166875674Y-90787584D01*
X167008185Y-91017102D01*
X167084958Y-91113372D01*
X167176442Y-91228089D01*
X167328003Y-91368716D01*
X167374259Y-91411635D01*
X167597226Y-91563651D01*
X167840359Y-91680738D01*
X168098228Y-91760280D01*
X168098229Y-91760280D01*
X168098232Y-91760281D01*
X168365063Y-91800499D01*
X168365068Y-91800499D01*
X168365071Y-91800500D01*
X168365072Y-91800500D01*
X168634928Y-91800500D01*
X168634929Y-91800500D01*
X168634936Y-91800499D01*
X168901767Y-91760281D01*
X168901768Y-91760280D01*
X168901772Y-91760280D01*
X169159641Y-91680738D01*
X169402775Y-91563651D01*
X169625741Y-91411635D01*
X169779259Y-91269190D01*
X169823557Y-91228089D01*
X169823557Y-91228087D01*
X169823561Y-91228085D01*
X169991815Y-91017102D01*
X170126743Y-90783398D01*
X170225334Y-90532195D01*
X170285383Y-90269103D01*
X170305549Y-90000000D01*
X170305549Y-89999995D01*
X171694451Y-89999995D01*
X171694451Y-90000004D01*
X171714616Y-90269101D01*
X171774664Y-90532188D01*
X171774666Y-90532195D01*
X171873256Y-90783396D01*
X171873258Y-90783400D01*
X171875674Y-90787584D01*
X172008185Y-91017102D01*
X172084958Y-91113372D01*
X172176442Y-91228089D01*
X172328003Y-91368716D01*
X172374259Y-91411635D01*
X172597226Y-91563651D01*
X172840359Y-91680738D01*
X173098228Y-91760280D01*
X173098229Y-91760280D01*
X173098232Y-91760281D01*
X173365063Y-91800499D01*
X173365068Y-91800499D01*
X173365071Y-91800500D01*
X173365072Y-91800500D01*
X173634928Y-91800500D01*
X173634929Y-91800500D01*
X173634936Y-91800499D01*
X173901767Y-91760281D01*
X173901768Y-91760280D01*
X173901772Y-91760280D01*
X174159641Y-91680738D01*
X174402775Y-91563651D01*
X174625741Y-91411635D01*
X174779259Y-91269190D01*
X174823557Y-91228089D01*
X174823557Y-91228087D01*
X174823561Y-91228085D01*
X174991815Y-91017102D01*
X175126743Y-90783398D01*
X175225334Y-90532195D01*
X175285383Y-90269103D01*
X175305549Y-90000000D01*
X175305549Y-89999995D01*
X176694953Y-89999995D01*
X176694953Y-90000004D01*
X176715113Y-90269026D01*
X176715113Y-90269028D01*
X176775142Y-90532033D01*
X176775148Y-90532052D01*
X176873709Y-90783181D01*
X176873708Y-90783181D01*
X177008602Y-91016822D01*
X177062294Y-91084151D01*
X177062295Y-91084151D01*
X177898958Y-90247488D01*
X177923978Y-90307890D01*
X177995112Y-90414351D01*
X178085649Y-90504888D01*
X178192110Y-90576022D01*
X178252510Y-90601041D01*
X177414848Y-91438702D01*
X177597483Y-91563220D01*
X177597485Y-91563221D01*
X177840539Y-91680269D01*
X177840537Y-91680269D01*
X178098337Y-91759790D01*
X178098343Y-91759792D01*
X178365101Y-91799999D01*
X178365110Y-91800000D01*
X178634890Y-91800000D01*
X178634898Y-91799999D01*
X178901656Y-91759792D01*
X178901662Y-91759790D01*
X179159461Y-91680269D01*
X179402521Y-91563218D01*
X179585150Y-91438702D01*
X178747488Y-90601041D01*
X178807890Y-90576022D01*
X178914351Y-90504888D01*
X179004888Y-90414351D01*
X179076022Y-90307890D01*
X179101041Y-90247488D01*
X179937703Y-91084151D01*
X179937704Y-91084150D01*
X179991393Y-91016828D01*
X179991400Y-91016817D01*
X180126290Y-90783181D01*
X180224851Y-90532052D01*
X180224857Y-90532033D01*
X180284886Y-90269028D01*
X180284886Y-90269026D01*
X180305047Y-90000004D01*
X180305047Y-89999995D01*
X181694451Y-89999995D01*
X181694451Y-90000004D01*
X181714616Y-90269101D01*
X181774664Y-90532188D01*
X181774666Y-90532195D01*
X181873256Y-90783396D01*
X181873258Y-90783400D01*
X181875674Y-90787584D01*
X182008185Y-91017102D01*
X182084958Y-91113372D01*
X182176442Y-91228089D01*
X182328003Y-91368716D01*
X182374259Y-91411635D01*
X182597226Y-91563651D01*
X182840359Y-91680738D01*
X183098228Y-91760280D01*
X183098229Y-91760280D01*
X183098232Y-91760281D01*
X183365063Y-91800499D01*
X183365068Y-91800499D01*
X183365071Y-91800500D01*
X183365072Y-91800500D01*
X183634928Y-91800500D01*
X183634929Y-91800500D01*
X183634936Y-91800499D01*
X183901767Y-91760281D01*
X183901768Y-91760280D01*
X183901772Y-91760280D01*
X184159641Y-91680738D01*
X184402775Y-91563651D01*
X184625741Y-91411635D01*
X184779259Y-91269190D01*
X184823557Y-91228089D01*
X184823557Y-91228087D01*
X184823561Y-91228085D01*
X184991815Y-91017102D01*
X185126743Y-90783398D01*
X185225334Y-90532195D01*
X185285383Y-90269103D01*
X185305549Y-90000000D01*
X185299484Y-89919072D01*
X185285389Y-89730973D01*
X185285383Y-89730897D01*
X185225334Y-89467805D01*
X185126743Y-89216602D01*
X184991815Y-88982898D01*
X184823561Y-88771915D01*
X184823560Y-88771914D01*
X184823557Y-88771910D01*
X184625741Y-88588365D01*
X184526851Y-88520943D01*
X184402775Y-88436349D01*
X184402769Y-88436346D01*
X184402768Y-88436345D01*
X184402767Y-88436344D01*
X184159643Y-88319263D01*
X184159645Y-88319263D01*
X183901773Y-88239720D01*
X183901767Y-88239718D01*
X183634936Y-88199500D01*
X183634929Y-88199500D01*
X183365071Y-88199500D01*
X183365063Y-88199500D01*
X183098232Y-88239718D01*
X183098226Y-88239720D01*
X182840358Y-88319262D01*
X182597230Y-88436346D01*
X182374258Y-88588365D01*
X182176442Y-88771910D01*
X182008185Y-88982898D01*
X181873258Y-89216599D01*
X181873256Y-89216603D01*
X181774666Y-89467804D01*
X181774664Y-89467811D01*
X181714616Y-89730898D01*
X181694451Y-89999995D01*
X180305047Y-89999995D01*
X180284886Y-89730973D01*
X180284886Y-89730971D01*
X180224857Y-89467966D01*
X180224851Y-89467947D01*
X180126290Y-89216818D01*
X180126291Y-89216818D01*
X179991397Y-88983177D01*
X179937704Y-88915847D01*
X179101041Y-89752510D01*
X179076022Y-89692110D01*
X179004888Y-89585649D01*
X178914351Y-89495112D01*
X178807890Y-89423978D01*
X178747488Y-89398958D01*
X179585150Y-88561296D01*
X179402517Y-88436779D01*
X179402516Y-88436778D01*
X179159460Y-88319730D01*
X179159462Y-88319730D01*
X178901662Y-88240209D01*
X178901656Y-88240207D01*
X178634898Y-88200000D01*
X178365101Y-88200000D01*
X178098343Y-88240207D01*
X178098337Y-88240209D01*
X177840538Y-88319730D01*
X177597485Y-88436778D01*
X177597476Y-88436783D01*
X177414848Y-88561296D01*
X178252511Y-89398958D01*
X178192110Y-89423978D01*
X178085649Y-89495112D01*
X177995112Y-89585649D01*
X177923978Y-89692110D01*
X177898958Y-89752511D01*
X177062295Y-88915848D01*
X177008600Y-88983180D01*
X176873709Y-89216818D01*
X176775148Y-89467947D01*
X176775142Y-89467966D01*
X176715113Y-89730971D01*
X176715113Y-89730973D01*
X176694953Y-89999995D01*
X175305549Y-89999995D01*
X175299484Y-89919072D01*
X175285389Y-89730973D01*
X175285383Y-89730897D01*
X175225334Y-89467805D01*
X175126743Y-89216602D01*
X174991815Y-88982898D01*
X174823561Y-88771915D01*
X174823560Y-88771914D01*
X174823557Y-88771910D01*
X174625741Y-88588365D01*
X174526851Y-88520943D01*
X174402775Y-88436349D01*
X174402769Y-88436346D01*
X174402768Y-88436345D01*
X174402767Y-88436344D01*
X174159643Y-88319263D01*
X174159645Y-88319263D01*
X173901773Y-88239720D01*
X173901767Y-88239718D01*
X173634936Y-88199500D01*
X173634929Y-88199500D01*
X173365071Y-88199500D01*
X173365063Y-88199500D01*
X173098232Y-88239718D01*
X173098226Y-88239720D01*
X172840358Y-88319262D01*
X172597230Y-88436346D01*
X172374258Y-88588365D01*
X172176442Y-88771910D01*
X172008185Y-88982898D01*
X171873258Y-89216599D01*
X171873256Y-89216603D01*
X171774666Y-89467804D01*
X171774664Y-89467811D01*
X171714616Y-89730898D01*
X171694451Y-89999995D01*
X170305549Y-89999995D01*
X170299484Y-89919072D01*
X170285389Y-89730973D01*
X170285383Y-89730897D01*
X170225334Y-89467805D01*
X170126743Y-89216602D01*
X169991815Y-88982898D01*
X169823561Y-88771915D01*
X169823560Y-88771914D01*
X169823557Y-88771910D01*
X169625741Y-88588365D01*
X169526851Y-88520943D01*
X169402775Y-88436349D01*
X169402769Y-88436346D01*
X169402768Y-88436345D01*
X169402767Y-88436344D01*
X169159643Y-88319263D01*
X169159645Y-88319263D01*
X168901773Y-88239720D01*
X168901767Y-88239718D01*
X168684502Y-88206971D01*
X168621145Y-88177515D01*
X168583771Y-88118481D01*
X168584246Y-88048613D01*
X168615300Y-87996677D01*
X169980520Y-86631458D01*
X170059577Y-86494526D01*
X170100501Y-86341799D01*
X170100501Y-86183684D01*
X170100501Y-86176089D01*
X170100500Y-86176071D01*
X170100500Y-84082412D01*
X170120185Y-84015373D01*
X170127555Y-84005097D01*
X170129810Y-84002267D01*
X170129816Y-84002262D01*
X170225789Y-83849522D01*
X170285368Y-83679255D01*
X170305565Y-83500000D01*
X170296567Y-83420142D01*
X170285369Y-83320750D01*
X170285366Y-83320737D01*
X170266022Y-83265455D01*
X170262460Y-83195676D01*
X170297188Y-83135049D01*
X170359182Y-83102821D01*
X170383063Y-83100500D01*
X185699903Y-83100500D01*
X185766942Y-83120185D01*
G37*
%TD.AperFunction*%
%TA.AperFunction,Conductor*%
G36*
X163960000Y-105855633D02*
G01*
X164103407Y-105817209D01*
X164173257Y-105818872D01*
X164231119Y-105858035D01*
X164258623Y-105922263D01*
X164259500Y-105936984D01*
X164259500Y-114839090D01*
X164239815Y-114906129D01*
X164223181Y-114926771D01*
X163201275Y-115948677D01*
X163139952Y-115982162D01*
X163070260Y-115977178D01*
X163014327Y-115935306D01*
X162989910Y-115869842D01*
X162989594Y-115860996D01*
X162989594Y-115022222D01*
X162989593Y-115022216D01*
X162986731Y-114995593D01*
X162983912Y-114969360D01*
X162983186Y-114962609D01*
X162929792Y-114819453D01*
X162932034Y-114818616D01*
X162920500Y-114773420D01*
X162920500Y-105841051D01*
X162940185Y-105774012D01*
X162992989Y-105728257D01*
X163062147Y-105718313D01*
X163096905Y-105728669D01*
X163246507Y-105798429D01*
X163246516Y-105798433D01*
X163460000Y-105855634D01*
X163460000Y-104958012D01*
X163517007Y-104990925D01*
X163644174Y-105025000D01*
X163775826Y-105025000D01*
X163902993Y-104990925D01*
X163960000Y-104958012D01*
X163960000Y-105855633D01*
G37*
%TD.AperFunction*%
%TA.AperFunction,Conductor*%
G36*
X133390000Y-98330633D02*
G01*
X133603483Y-98273433D01*
X133603492Y-98273429D01*
X133753095Y-98203669D01*
X133822173Y-98193177D01*
X133885957Y-98221697D01*
X133924196Y-98280173D01*
X133929500Y-98316051D01*
X133929500Y-100658330D01*
X133929499Y-100658348D01*
X133929499Y-100824054D01*
X133929498Y-100824054D01*
X133929499Y-100824057D01*
X133970423Y-100976785D01*
X133970424Y-100976787D01*
X133970423Y-100976787D01*
X133988856Y-101008712D01*
X133988858Y-101008714D01*
X133988859Y-101008716D01*
X134016266Y-101056187D01*
X134049479Y-101113715D01*
X134168349Y-101232585D01*
X134168355Y-101232590D01*
X135896333Y-102960568D01*
X135929818Y-103021891D01*
X135924834Y-103091583D01*
X135882962Y-103147516D01*
X135817498Y-103171933D01*
X135797844Y-103171777D01*
X135770001Y-103169341D01*
X135769999Y-103169341D01*
X135534596Y-103189936D01*
X135534586Y-103189938D01*
X135306344Y-103251094D01*
X135306335Y-103251098D01*
X135092171Y-103350964D01*
X135092169Y-103350965D01*
X134898597Y-103486505D01*
X134731505Y-103653597D01*
X134601575Y-103839158D01*
X134546998Y-103882783D01*
X134477500Y-103889977D01*
X134415145Y-103858454D01*
X134398425Y-103839158D01*
X134268494Y-103653597D01*
X134101402Y-103486506D01*
X134101395Y-103486501D01*
X133907834Y-103350967D01*
X133907830Y-103350965D01*
X133843094Y-103320778D01*
X133693663Y-103251097D01*
X133693659Y-103251096D01*
X133693655Y-103251094D01*
X133465413Y-103189938D01*
X133465403Y-103189936D01*
X133230001Y-103169341D01*
X133229999Y-103169341D01*
X132994596Y-103189936D01*
X132994583Y-103189939D01*
X132836592Y-103232271D01*
X132766742Y-103230608D01*
X132708880Y-103191445D01*
X132681377Y-103127216D01*
X132680500Y-103112496D01*
X132680500Y-98436099D01*
X132700185Y-98369060D01*
X132752989Y-98323305D01*
X132822147Y-98313361D01*
X132836594Y-98316324D01*
X132890000Y-98330634D01*
X132890000Y-97433012D01*
X132947007Y-97465925D01*
X133074174Y-97500000D01*
X133205826Y-97500000D01*
X133332993Y-97465925D01*
X133390000Y-97433012D01*
X133390000Y-98330633D01*
G37*
%TD.AperFunction*%
%TA.AperFunction,Conductor*%
G36*
X185361555Y-70149966D02*
G01*
X185676793Y-70235924D01*
X185686087Y-70238856D01*
X186051907Y-70370326D01*
X186060949Y-70373984D01*
X186415276Y-70533840D01*
X186424015Y-70538205D01*
X186764631Y-70725443D01*
X186773000Y-70730482D01*
X187097842Y-70943967D01*
X187105788Y-70949650D01*
X187412801Y-71188033D01*
X187420275Y-71194323D01*
X187707581Y-71456145D01*
X187714537Y-71463005D01*
X187980330Y-71746622D01*
X187986724Y-71754008D01*
X188229376Y-72057681D01*
X188235169Y-72065547D01*
X188453153Y-72387365D01*
X188458309Y-72395663D01*
X188650287Y-72733652D01*
X188654773Y-72742329D01*
X188770970Y-72990591D01*
X188782663Y-73042949D01*
X188823414Y-97419234D01*
X188822707Y-97432660D01*
X188822095Y-97438363D01*
X188823513Y-97497242D01*
X188823549Y-97500027D01*
X188823559Y-97506245D01*
X188823503Y-97510155D01*
X188814234Y-97819762D01*
X188813113Y-97833098D01*
X188770635Y-98139144D01*
X188768082Y-98152282D01*
X188692871Y-98451959D01*
X188688917Y-98464745D01*
X188581850Y-98754560D01*
X188576542Y-98766846D01*
X188438854Y-99043454D01*
X188432252Y-99055095D01*
X188265566Y-99315236D01*
X188257748Y-99326099D01*
X188063993Y-99566766D01*
X188055050Y-99576723D01*
X187836478Y-99795113D01*
X187826514Y-99804047D01*
X187585693Y-99997598D01*
X187574824Y-100005407D01*
X187539118Y-100028244D01*
X187472036Y-100047783D01*
X187405039Y-100027952D01*
X187359400Y-99975048D01*
X187349607Y-99905868D01*
X187378770Y-99842376D01*
X187392589Y-99828802D01*
X187562558Y-99686183D01*
X187802412Y-99431953D01*
X188011130Y-99151596D01*
X188185889Y-98848904D01*
X188324326Y-98527971D01*
X188424569Y-98193136D01*
X188427467Y-98176704D01*
X188485260Y-97848938D01*
X188485259Y-97848938D01*
X188485262Y-97848927D01*
X188505453Y-97502262D01*
X188505585Y-97500003D01*
X188505585Y-97499996D01*
X188499766Y-97400099D01*
X188485262Y-97151073D01*
X188470231Y-97065826D01*
X188424571Y-96806872D01*
X188424569Y-96806865D01*
X188413438Y-96769685D01*
X188324326Y-96472029D01*
X188185889Y-96151096D01*
X188076429Y-95961505D01*
X188011129Y-95848402D01*
X187802415Y-95568050D01*
X187802410Y-95568044D01*
X187685654Y-95444291D01*
X187562558Y-95313817D01*
X187414488Y-95189572D01*
X187294813Y-95089152D01*
X187294805Y-95089146D01*
X187002796Y-94897088D01*
X186690458Y-94740226D01*
X186690452Y-94740223D01*
X186362012Y-94620681D01*
X186362009Y-94620680D01*
X186021915Y-94540077D01*
X185978519Y-94535004D01*
X185674759Y-94499500D01*
X185325241Y-94499500D01*
X185021480Y-94535004D01*
X184978085Y-94540077D01*
X184978083Y-94540077D01*
X184637990Y-94620680D01*
X184637987Y-94620681D01*
X184309547Y-94740223D01*
X184309541Y-94740226D01*
X183997203Y-94897088D01*
X183705194Y-95089146D01*
X183705186Y-95089152D01*
X183437442Y-95313817D01*
X183437440Y-95313819D01*
X183197589Y-95568044D01*
X183197584Y-95568050D01*
X182988870Y-95848402D01*
X182814113Y-96151091D01*
X182814107Y-96151104D01*
X182675674Y-96472027D01*
X182575430Y-96806865D01*
X182575428Y-96806872D01*
X182514739Y-97151061D01*
X182514738Y-97151072D01*
X182494415Y-97499996D01*
X182494415Y-97500003D01*
X182514738Y-97848927D01*
X182514739Y-97848938D01*
X182575428Y-98193127D01*
X182575430Y-98193134D01*
X182675674Y-98527972D01*
X182814107Y-98848895D01*
X182814113Y-98848908D01*
X182988870Y-99151597D01*
X183197584Y-99431949D01*
X183197589Y-99431955D01*
X183269575Y-99508255D01*
X183437442Y-99686183D01*
X183567260Y-99795113D01*
X183705186Y-99910847D01*
X183705194Y-99910853D01*
X183997203Y-100102911D01*
X184149204Y-100179249D01*
X184309549Y-100259777D01*
X184485267Y-100323733D01*
X184541530Y-100365158D01*
X184566466Y-100430426D01*
X184552157Y-100498815D01*
X184503145Y-100548611D01*
X184459042Y-100563193D01*
X184114562Y-100608545D01*
X184114555Y-100608546D01*
X183568720Y-100717120D01*
X183568680Y-100717130D01*
X183031118Y-100861169D01*
X183031103Y-100861173D01*
X182504096Y-101040069D01*
X182504085Y-101040073D01*
X181989900Y-101253055D01*
X181490744Y-101499211D01*
X181008762Y-101777484D01*
X181008737Y-101777500D01*
X180545994Y-102086695D01*
X180104457Y-102425498D01*
X179686013Y-102792464D01*
X179292464Y-103186013D01*
X178925498Y-103604457D01*
X178586695Y-104045994D01*
X178277500Y-104508737D01*
X178277484Y-104508762D01*
X177999211Y-104990744D01*
X177753055Y-105489900D01*
X177540073Y-106004085D01*
X177540069Y-106004096D01*
X177361173Y-106531103D01*
X177361169Y-106531118D01*
X177217130Y-107068680D01*
X177217120Y-107068720D01*
X177108546Y-107614555D01*
X177108544Y-107614566D01*
X177035900Y-108166353D01*
X177035900Y-108166359D01*
X176999500Y-108721722D01*
X176999500Y-108721733D01*
X176999500Y-108954050D01*
X176997948Y-108973606D01*
X176942914Y-109318200D01*
X176940494Y-109329777D01*
X176847024Y-109690136D01*
X176843512Y-109701429D01*
X176716135Y-110051245D01*
X176711563Y-110062154D01*
X176551435Y-110398245D01*
X176545844Y-110408668D01*
X176354425Y-110727971D01*
X176347867Y-110737813D01*
X176126899Y-111037425D01*
X176119433Y-111046598D01*
X175870924Y-111323796D01*
X175862617Y-111332217D01*
X175588827Y-111584476D01*
X175579757Y-111592066D01*
X175283171Y-111817100D01*
X175273418Y-111823791D01*
X174956760Y-112019533D01*
X174946415Y-112025265D01*
X174612541Y-112189951D01*
X174601696Y-112194672D01*
X174253636Y-112326803D01*
X174242391Y-112330468D01*
X173883347Y-112428832D01*
X173871803Y-112431410D01*
X173505004Y-112495121D01*
X173493268Y-112496587D01*
X173122074Y-112525062D01*
X173110251Y-112525403D01*
X172786495Y-112519295D01*
X172774062Y-112518267D01*
X172772450Y-112518242D01*
X172722512Y-112517468D01*
X172716184Y-112517209D01*
X172666370Y-112513887D01*
X172665844Y-112513921D01*
X172641276Y-112516135D01*
X172640679Y-112516204D01*
X172592258Y-112528378D01*
X172586082Y-112529764D01*
X172537088Y-112539453D01*
X172536534Y-112539641D01*
X172513358Y-112548145D01*
X172512880Y-112548334D01*
X172469246Y-112572634D01*
X172463640Y-112575571D01*
X172418829Y-112597608D01*
X172418370Y-112597914D01*
X172398196Y-112612119D01*
X172397737Y-112612460D01*
X172361892Y-112647213D01*
X172357235Y-112651503D01*
X172319653Y-112684388D01*
X172319270Y-112684823D01*
X172303476Y-112703747D01*
X172303125Y-112704189D01*
X172303125Y-112704190D01*
X172301957Y-112706143D01*
X172277489Y-112747045D01*
X172274104Y-112752389D01*
X172246315Y-112793880D01*
X172246076Y-112794363D01*
X172235679Y-112816812D01*
X172235473Y-112817287D01*
X172221805Y-112865312D01*
X172219917Y-112871355D01*
X172203814Y-112918619D01*
X172203710Y-112919140D01*
X172199482Y-112943488D01*
X172199402Y-112944036D01*
X172198628Y-112993965D01*
X172198369Y-113000289D01*
X172195048Y-113050118D01*
X172195084Y-113050690D01*
X172197360Y-113075947D01*
X171524205Y-156585310D01*
X171523504Y-156596694D01*
X171462270Y-157164230D01*
X171461222Y-157171771D01*
X171363230Y-157746467D01*
X171361720Y-157753929D01*
X171228647Y-158321502D01*
X171226682Y-158328858D01*
X171059030Y-158887185D01*
X171056618Y-158894407D01*
X170855007Y-159441418D01*
X170852156Y-159448477D01*
X170617361Y-159982066D01*
X170614082Y-159988938D01*
X170346975Y-160507128D01*
X170343280Y-160513785D01*
X170044884Y-161014585D01*
X170040788Y-161021003D01*
X169712218Y-161502549D01*
X169707736Y-161508703D01*
X169350214Y-161969200D01*
X169345362Y-161975068D01*
X168960280Y-162412722D01*
X168955078Y-162418281D01*
X168543849Y-162831491D01*
X168538315Y-162836721D01*
X168102483Y-163223930D01*
X168096638Y-163228809D01*
X167637895Y-163588516D01*
X167631762Y-163593028D01*
X167151796Y-163923911D01*
X167145398Y-163928038D01*
X166646035Y-164228838D01*
X166639396Y-164232565D01*
X166122495Y-164502160D01*
X166115639Y-164505471D01*
X165583182Y-164742829D01*
X165576136Y-164745715D01*
X165030109Y-164949948D01*
X165022900Y-164952395D01*
X164465375Y-165122732D01*
X164458028Y-165124732D01*
X163891089Y-165260533D01*
X163883634Y-165262078D01*
X163309443Y-165362826D01*
X163301907Y-165363911D01*
X162722618Y-165429231D01*
X162715029Y-165429852D01*
X162134383Y-165459415D01*
X162127904Y-165459575D01*
X135906607Y-165422815D01*
X135895238Y-165422277D01*
X135335684Y-165369962D01*
X135328104Y-165369017D01*
X134760953Y-165280493D01*
X134753445Y-165279083D01*
X134192811Y-165155802D01*
X134185405Y-165153932D01*
X133633442Y-164996370D01*
X133626165Y-164994048D01*
X133084943Y-164802796D01*
X133077822Y-164800030D01*
X132741520Y-164657333D01*
X132549393Y-164575811D01*
X132542483Y-164572625D01*
X132028855Y-164316292D01*
X132022135Y-164312675D01*
X131525284Y-164025212D01*
X131518793Y-164021185D01*
X131040586Y-163703676D01*
X131034355Y-163699257D01*
X130576586Y-163352891D01*
X130570640Y-163348096D01*
X130135097Y-162974227D01*
X130129456Y-162969075D01*
X130068405Y-162909761D01*
X130034039Y-162848928D01*
X130038017Y-162779171D01*
X130079077Y-162722639D01*
X130144182Y-162697280D01*
X130210461Y-162710013D01*
X130309549Y-162759777D01*
X130637989Y-162879319D01*
X130978086Y-162959923D01*
X131325241Y-163000500D01*
X131325248Y-163000500D01*
X131674752Y-163000500D01*
X131674759Y-163000500D01*
X132021914Y-162959923D01*
X132362011Y-162879319D01*
X132690451Y-162759777D01*
X133002793Y-162602913D01*
X133294811Y-162410849D01*
X133562558Y-162186183D01*
X133802412Y-161931953D01*
X134011130Y-161651596D01*
X134185889Y-161348904D01*
X134324326Y-161027971D01*
X134424569Y-160693136D01*
X134429240Y-160666649D01*
X134485260Y-160348938D01*
X134485259Y-160348938D01*
X134485262Y-160348927D01*
X134505585Y-160000000D01*
X134505585Y-159999996D01*
X163494415Y-159999996D01*
X163494415Y-160000003D01*
X163514738Y-160348927D01*
X163514739Y-160348938D01*
X163575428Y-160693127D01*
X163575430Y-160693134D01*
X163675674Y-161027972D01*
X163814107Y-161348895D01*
X163814113Y-161348908D01*
X163988870Y-161651597D01*
X164197584Y-161931949D01*
X164197589Y-161931955D01*
X164321463Y-162063253D01*
X164437442Y-162186183D01*
X164613903Y-162334251D01*
X164705186Y-162410847D01*
X164705194Y-162410853D01*
X164997203Y-162602911D01*
X164997207Y-162602913D01*
X165309549Y-162759777D01*
X165637989Y-162879319D01*
X165978086Y-162959923D01*
X166325241Y-163000500D01*
X166325248Y-163000500D01*
X166674752Y-163000500D01*
X166674759Y-163000500D01*
X167021914Y-162959923D01*
X167362011Y-162879319D01*
X167690451Y-162759777D01*
X168002793Y-162602913D01*
X168294811Y-162410849D01*
X168562558Y-162186183D01*
X168802412Y-161931953D01*
X169011130Y-161651596D01*
X169185889Y-161348904D01*
X169324326Y-161027971D01*
X169424569Y-160693136D01*
X169429240Y-160666649D01*
X169485260Y-160348938D01*
X169485259Y-160348938D01*
X169485262Y-160348927D01*
X169505585Y-160000000D01*
X169505022Y-159990341D01*
X169501554Y-159930796D01*
X169485262Y-159651073D01*
X169448924Y-159444989D01*
X169424571Y-159306872D01*
X169424569Y-159306865D01*
X169370145Y-159125076D01*
X169324326Y-158972029D01*
X169185889Y-158651096D01*
X169011130Y-158348404D01*
X168996579Y-158328858D01*
X168802415Y-158068050D01*
X168802410Y-158068044D01*
X168686433Y-157945117D01*
X168562558Y-157813817D01*
X168414488Y-157689572D01*
X168294813Y-157589152D01*
X168294805Y-157589146D01*
X168002796Y-157397088D01*
X167690458Y-157240226D01*
X167690452Y-157240223D01*
X167362012Y-157120681D01*
X167362009Y-157120680D01*
X167021915Y-157040077D01*
X166978519Y-157035004D01*
X166674759Y-156999500D01*
X166325241Y-156999500D01*
X166021480Y-157035004D01*
X165978085Y-157040077D01*
X165978083Y-157040077D01*
X165637990Y-157120680D01*
X165637987Y-157120681D01*
X165309547Y-157240223D01*
X165309541Y-157240226D01*
X164997203Y-157397088D01*
X164705194Y-157589146D01*
X164705186Y-157589152D01*
X164437442Y-157813817D01*
X164437440Y-157813819D01*
X164197589Y-158068044D01*
X164197584Y-158068050D01*
X163988870Y-158348402D01*
X163814113Y-158651091D01*
X163814107Y-158651104D01*
X163675674Y-158972027D01*
X163575430Y-159306865D01*
X163575428Y-159306872D01*
X163514739Y-159651061D01*
X163514738Y-159651072D01*
X163494415Y-159999996D01*
X134505585Y-159999996D01*
X134505022Y-159990341D01*
X134501554Y-159930796D01*
X134485262Y-159651073D01*
X134448924Y-159444989D01*
X134424571Y-159306872D01*
X134424569Y-159306865D01*
X134370145Y-159125076D01*
X134324326Y-158972029D01*
X134185889Y-158651096D01*
X134011130Y-158348404D01*
X133996579Y-158328858D01*
X133802415Y-158068050D01*
X133802410Y-158068044D01*
X133686433Y-157945117D01*
X133562558Y-157813817D01*
X133414488Y-157689572D01*
X133294813Y-157589152D01*
X133294805Y-157589146D01*
X133002796Y-157397088D01*
X132690458Y-157240226D01*
X132690452Y-157240223D01*
X132362012Y-157120681D01*
X132362009Y-157120680D01*
X132021915Y-157040077D01*
X131978519Y-157035004D01*
X131674759Y-156999500D01*
X131325241Y-156999500D01*
X131021480Y-157035004D01*
X130978085Y-157040077D01*
X130978083Y-157040077D01*
X130637990Y-157120680D01*
X130637987Y-157120681D01*
X130309547Y-157240223D01*
X130309541Y-157240226D01*
X129997203Y-157397088D01*
X129705194Y-157589146D01*
X129705186Y-157589152D01*
X129437442Y-157813817D01*
X129437440Y-157813819D01*
X129197589Y-158068044D01*
X129197584Y-158068050D01*
X128988870Y-158348402D01*
X128814113Y-158651091D01*
X128814107Y-158651104D01*
X128675674Y-158972027D01*
X128575430Y-159306865D01*
X128575428Y-159306872D01*
X128514739Y-159651061D01*
X128514738Y-159651072D01*
X128494415Y-159999996D01*
X128494415Y-160000003D01*
X128514738Y-160348927D01*
X128514739Y-160348938D01*
X128570760Y-160666649D01*
X128563016Y-160736088D01*
X128518959Y-160790317D01*
X128452578Y-160812119D01*
X128384948Y-160794571D01*
X128343151Y-160753352D01*
X128320066Y-160715984D01*
X128316253Y-160709365D01*
X128307555Y-160693127D01*
X128045188Y-160203332D01*
X128041807Y-160196524D01*
X127802434Y-159674804D01*
X127799464Y-159667768D01*
X127793016Y-159651073D01*
X127592662Y-159132282D01*
X127590132Y-159125076D01*
X127416697Y-158577878D01*
X127414615Y-158570529D01*
X127390031Y-158472337D01*
X127275201Y-158013690D01*
X127273578Y-158006237D01*
X127168715Y-157441866D01*
X127167558Y-157434366D01*
X127099805Y-156882221D01*
X127098892Y-156868438D01*
X126645464Y-113233736D01*
X126647815Y-113208393D01*
X126648098Y-113206965D01*
X126644878Y-113158686D01*
X126644613Y-113151779D01*
X126644111Y-113103428D01*
X126643720Y-113102029D01*
X126639428Y-113076928D01*
X126639331Y-113075473D01*
X126623727Y-113029677D01*
X126621673Y-113023040D01*
X126608683Y-112976497D01*
X126608682Y-112976495D01*
X126607934Y-112975231D01*
X126597301Y-112952115D01*
X126596829Y-112950730D01*
X126569913Y-112910547D01*
X126566219Y-112904681D01*
X126541608Y-112863058D01*
X126541606Y-112863056D01*
X126541605Y-112863054D01*
X126540556Y-112862027D01*
X126524303Y-112842452D01*
X126523490Y-112841238D01*
X126487106Y-112809402D01*
X126481996Y-112804671D01*
X126447458Y-112770844D01*
X126446172Y-112770119D01*
X126425413Y-112755423D01*
X126424311Y-112754459D01*
X126380932Y-112733127D01*
X126374772Y-112729880D01*
X126332651Y-112706142D01*
X126332648Y-112706141D01*
X126331220Y-112705774D01*
X126307373Y-112696955D01*
X126306052Y-112696305D01*
X126258628Y-112686927D01*
X126251840Y-112685385D01*
X126205016Y-112673359D01*
X126205000Y-112673357D01*
X126203537Y-112673373D01*
X126178215Y-112671027D01*
X126176771Y-112670741D01*
X126128535Y-112673958D01*
X126121574Y-112674226D01*
X126073234Y-112674728D01*
X126071754Y-112674939D01*
X126056644Y-112676151D01*
X125732887Y-112682261D01*
X125721064Y-112681920D01*
X125349868Y-112653448D01*
X125338132Y-112651982D01*
X124971332Y-112588274D01*
X124959791Y-112585696D01*
X124822718Y-112548145D01*
X124600743Y-112487334D01*
X124589498Y-112483669D01*
X124241447Y-112351543D01*
X124230602Y-112346823D01*
X123896722Y-112182136D01*
X123886376Y-112176404D01*
X123569704Y-111980656D01*
X123559951Y-111973964D01*
X123362028Y-111823791D01*
X123263367Y-111748933D01*
X123254300Y-111741345D01*
X123092281Y-111592066D01*
X122980508Y-111489081D01*
X122972206Y-111480665D01*
X122723696Y-111203466D01*
X122716230Y-111194293D01*
X122648836Y-111102913D01*
X122495255Y-110894671D01*
X122488700Y-110884833D01*
X122485394Y-110879319D01*
X122297282Y-110565528D01*
X122291695Y-110555111D01*
X122265438Y-110500000D01*
X122131562Y-110219007D01*
X122127000Y-110208122D01*
X121999618Y-109858288D01*
X121996108Y-109846999D01*
X121995017Y-109842794D01*
X121902640Y-109486634D01*
X121900221Y-109475061D01*
X121877019Y-109329777D01*
X121845197Y-109130510D01*
X121843645Y-109110955D01*
X121843645Y-108878569D01*
X121807242Y-108323220D01*
X121807241Y-108323212D01*
X121764688Y-107999996D01*
X122494415Y-107999996D01*
X122494415Y-108000003D01*
X122514738Y-108348927D01*
X122514739Y-108348938D01*
X122575428Y-108693127D01*
X122575430Y-108693134D01*
X122675674Y-109027972D01*
X122814107Y-109348895D01*
X122814113Y-109348908D01*
X122988870Y-109651597D01*
X123197584Y-109931949D01*
X123197589Y-109931955D01*
X123310134Y-110051245D01*
X123437442Y-110186183D01*
X123516924Y-110252876D01*
X123705186Y-110410847D01*
X123705194Y-110410853D01*
X123997203Y-110602911D01*
X123997207Y-110602913D01*
X124309549Y-110759777D01*
X124637989Y-110879319D01*
X124978086Y-110959923D01*
X125325241Y-111000500D01*
X125325248Y-111000500D01*
X125674752Y-111000500D01*
X125674759Y-111000500D01*
X126021914Y-110959923D01*
X126362011Y-110879319D01*
X126690451Y-110759777D01*
X127002793Y-110602913D01*
X127176302Y-110488794D01*
X127294805Y-110410853D01*
X127294805Y-110410852D01*
X127294811Y-110410849D01*
X127562558Y-110186183D01*
X127802412Y-109931953D01*
X128011130Y-109651596D01*
X128185889Y-109348904D01*
X128324326Y-109027971D01*
X128424569Y-108693136D01*
X128458624Y-108500003D01*
X128485260Y-108348938D01*
X128485259Y-108348938D01*
X128485262Y-108348927D01*
X128505585Y-108000000D01*
X128485262Y-107651073D01*
X128478823Y-107614555D01*
X128424571Y-107306872D01*
X128424569Y-107306865D01*
X128424569Y-107306864D01*
X128324326Y-106972029D01*
X128185889Y-106651096D01*
X128092055Y-106488570D01*
X128011129Y-106348402D01*
X127802415Y-106068050D01*
X127802410Y-106068044D01*
X127663626Y-105920943D01*
X127562558Y-105813817D01*
X127332579Y-105620842D01*
X127294813Y-105589152D01*
X127294805Y-105589146D01*
X127002796Y-105397088D01*
X126690458Y-105240226D01*
X126690452Y-105240223D01*
X126362012Y-105120681D01*
X126362009Y-105120680D01*
X126021915Y-105040077D01*
X125978519Y-105035004D01*
X125674759Y-104999500D01*
X125325241Y-104999500D01*
X125021480Y-105035004D01*
X124978085Y-105040077D01*
X124978083Y-105040077D01*
X124637990Y-105120680D01*
X124637987Y-105120681D01*
X124309547Y-105240223D01*
X124309541Y-105240226D01*
X123997203Y-105397088D01*
X123705194Y-105589146D01*
X123705186Y-105589152D01*
X123437442Y-105813817D01*
X123437440Y-105813819D01*
X123197589Y-106068044D01*
X123197584Y-106068050D01*
X122988870Y-106348402D01*
X122814113Y-106651091D01*
X122814107Y-106651104D01*
X122675674Y-106972027D01*
X122575430Y-107306865D01*
X122575428Y-107306872D01*
X122514739Y-107651061D01*
X122514738Y-107651072D01*
X122494415Y-107999996D01*
X121764688Y-107999996D01*
X121734594Y-107771420D01*
X121626013Y-107225560D01*
X121481964Y-106687971D01*
X121303064Y-106160953D01*
X121090079Y-105646765D01*
X121090074Y-105646754D01*
X120843920Y-105147606D01*
X120565643Y-104665620D01*
X120471683Y-104525000D01*
X120256436Y-104202861D01*
X120256435Y-104202859D01*
X119917632Y-103761323D01*
X119917627Y-103761317D01*
X119550666Y-103342878D01*
X119157122Y-102949334D01*
X118738683Y-102582373D01*
X118738681Y-102582372D01*
X118738676Y-102582367D01*
X118297140Y-102243564D01*
X117834379Y-101934356D01*
X117352393Y-101656079D01*
X116853245Y-101409925D01*
X116694598Y-101344211D01*
X116339047Y-101196936D01*
X116339039Y-101196933D01*
X116339036Y-101196932D01*
X116339037Y-101196932D01*
X115876947Y-101040073D01*
X115812029Y-101018036D01*
X115381160Y-100902583D01*
X115274441Y-100873987D01*
X115274437Y-100873986D01*
X114728583Y-100765406D01*
X114176777Y-100692757D01*
X114176781Y-100692757D01*
X113621424Y-100656354D01*
X113396342Y-100656354D01*
X113375373Y-100654568D01*
X113362852Y-100652419D01*
X113328169Y-100655614D01*
X113325826Y-100655830D01*
X113314455Y-100656353D01*
X113277257Y-100656353D01*
X113277249Y-100656354D01*
X113264980Y-100659641D01*
X113244265Y-100663342D01*
X111019930Y-100868221D01*
X110994924Y-100867882D01*
X110994047Y-100867892D01*
X110944532Y-100875006D01*
X110938275Y-100875743D01*
X110883700Y-100880770D01*
X110876487Y-100881901D01*
X110599854Y-100906417D01*
X110586404Y-100906876D01*
X110262948Y-100900342D01*
X110249525Y-100899340D01*
X109928683Y-100857786D01*
X109915453Y-100855335D01*
X109601012Y-100779254D01*
X109588122Y-100775384D01*
X109283771Y-100665667D01*
X109271375Y-100660421D01*
X108980708Y-100518362D01*
X108968954Y-100511805D01*
X108695403Y-100339085D01*
X108684429Y-100331292D01*
X108431205Y-100129938D01*
X108421151Y-100121012D01*
X108191226Y-99893381D01*
X108182197Y-99883414D01*
X107978318Y-99632230D01*
X107970415Y-99621335D01*
X107794949Y-99349512D01*
X107788284Y-99337842D01*
X107643452Y-99048882D01*
X107631012Y-98980132D01*
X107657716Y-98915567D01*
X107715087Y-98875689D01*
X107784911Y-98873159D01*
X107845019Y-98908780D01*
X107861695Y-98931323D01*
X107988870Y-99151597D01*
X108197584Y-99431949D01*
X108197589Y-99431955D01*
X108269575Y-99508255D01*
X108437442Y-99686183D01*
X108567260Y-99795113D01*
X108705186Y-99910847D01*
X108705194Y-99910853D01*
X108997203Y-100102911D01*
X109149204Y-100179249D01*
X109309549Y-100259777D01*
X109637989Y-100379319D01*
X109978086Y-100459923D01*
X110325241Y-100500500D01*
X110325248Y-100500500D01*
X110674752Y-100500500D01*
X110674759Y-100500500D01*
X111021914Y-100459923D01*
X111362011Y-100379319D01*
X111690451Y-100259777D01*
X112002793Y-100102913D01*
X112294811Y-99910849D01*
X112562558Y-99686183D01*
X112802412Y-99431953D01*
X113011130Y-99151596D01*
X113185889Y-98848904D01*
X113324326Y-98527971D01*
X113424569Y-98193136D01*
X113427467Y-98176704D01*
X113485260Y-97848938D01*
X113485259Y-97848938D01*
X113485262Y-97848927D01*
X113505453Y-97502262D01*
X113505585Y-97500003D01*
X113505585Y-97499996D01*
X113499766Y-97400099D01*
X113485262Y-97151073D01*
X113470231Y-97065826D01*
X113424571Y-96806872D01*
X113424569Y-96806865D01*
X113413438Y-96769685D01*
X113324326Y-96472029D01*
X113185889Y-96151096D01*
X113076429Y-95961505D01*
X113011129Y-95848402D01*
X112802415Y-95568050D01*
X112802410Y-95568044D01*
X112685654Y-95444291D01*
X112562558Y-95313817D01*
X112414488Y-95189572D01*
X112294813Y-95089152D01*
X112294805Y-95089146D01*
X112002796Y-94897088D01*
X111690458Y-94740226D01*
X111690452Y-94740223D01*
X111362012Y-94620681D01*
X111362009Y-94620680D01*
X111021915Y-94540077D01*
X110978519Y-94535004D01*
X110674759Y-94499500D01*
X110325241Y-94499500D01*
X110021480Y-94535004D01*
X109978085Y-94540077D01*
X109978083Y-94540077D01*
X109637990Y-94620680D01*
X109637987Y-94620681D01*
X109309547Y-94740223D01*
X109309541Y-94740226D01*
X108997203Y-94897088D01*
X108705194Y-95089146D01*
X108705186Y-95089152D01*
X108437442Y-95313817D01*
X108437440Y-95313819D01*
X108197589Y-95568044D01*
X108197584Y-95568050D01*
X107988870Y-95848402D01*
X107814113Y-96151091D01*
X107814107Y-96151104D01*
X107675674Y-96472027D01*
X107633891Y-96611593D01*
X107595806Y-96670170D01*
X107532097Y-96698859D01*
X107462992Y-96688549D01*
X107410431Y-96642515D01*
X107391102Y-96575373D01*
X107391103Y-96575223D01*
X107391356Y-96536337D01*
X107442593Y-88652135D01*
X111699500Y-88652135D01*
X111699500Y-91347870D01*
X111699501Y-91347876D01*
X111705908Y-91407483D01*
X111756202Y-91542328D01*
X111756206Y-91542335D01*
X111842452Y-91657544D01*
X111842455Y-91657547D01*
X111957664Y-91743793D01*
X111957671Y-91743797D01*
X112092517Y-91794091D01*
X112092516Y-91794091D01*
X112099444Y-91794835D01*
X112152127Y-91800500D01*
X114847872Y-91800499D01*
X114907483Y-91794091D01*
X115042331Y-91743796D01*
X115157546Y-91657546D01*
X115243796Y-91542331D01*
X115294091Y-91407483D01*
X115300500Y-91347873D01*
X115300499Y-89999995D01*
X116694451Y-89999995D01*
X116694451Y-90000004D01*
X116714616Y-90269101D01*
X116774664Y-90532188D01*
X116774666Y-90532195D01*
X116873256Y-90783396D01*
X116873258Y-90783400D01*
X116875674Y-90787584D01*
X117008185Y-91017102D01*
X117084958Y-91113372D01*
X117176442Y-91228089D01*
X117328003Y-91368716D01*
X117374259Y-91411635D01*
X117597226Y-91563651D01*
X117840359Y-91680738D01*
X118098228Y-91760280D01*
X118098229Y-91760280D01*
X118098232Y-91760281D01*
X118365063Y-91800499D01*
X118365068Y-91800499D01*
X118365071Y-91800500D01*
X118365072Y-91800500D01*
X118634928Y-91800500D01*
X118634929Y-91800500D01*
X118634936Y-91800499D01*
X118901767Y-91760281D01*
X118901768Y-91760280D01*
X118901772Y-91760280D01*
X119159641Y-91680738D01*
X119402775Y-91563651D01*
X119625741Y-91411635D01*
X119779259Y-91269190D01*
X119823557Y-91228089D01*
X119823557Y-91228087D01*
X119823561Y-91228085D01*
X119991815Y-91017102D01*
X120126743Y-90783398D01*
X120225334Y-90532195D01*
X120285383Y-90269103D01*
X120305549Y-90000000D01*
X120305549Y-89999995D01*
X121694451Y-89999995D01*
X121694451Y-90000004D01*
X121714616Y-90269101D01*
X121774664Y-90532188D01*
X121774666Y-90532195D01*
X121873256Y-90783396D01*
X121873258Y-90783400D01*
X121875674Y-90787584D01*
X122008185Y-91017102D01*
X122084958Y-91113372D01*
X122176442Y-91228089D01*
X122328003Y-91368716D01*
X122374259Y-91411635D01*
X122597226Y-91563651D01*
X122840359Y-91680738D01*
X123098228Y-91760280D01*
X123098229Y-91760280D01*
X123098232Y-91760281D01*
X123365063Y-91800499D01*
X123365068Y-91800499D01*
X123365071Y-91800500D01*
X123365072Y-91800500D01*
X123634928Y-91800500D01*
X123634929Y-91800500D01*
X123634936Y-91800499D01*
X123901767Y-91760281D01*
X123901768Y-91760280D01*
X123901772Y-91760280D01*
X124159641Y-91680738D01*
X124402775Y-91563651D01*
X124625741Y-91411635D01*
X124779259Y-91269190D01*
X124823557Y-91228089D01*
X124823557Y-91228087D01*
X124823561Y-91228085D01*
X124991815Y-91017102D01*
X125126743Y-90783398D01*
X125225334Y-90532195D01*
X125285383Y-90269103D01*
X125305549Y-90000000D01*
X125299484Y-89919072D01*
X125285389Y-89730973D01*
X125285383Y-89730897D01*
X125225334Y-89467805D01*
X125126743Y-89216602D01*
X124991815Y-88982898D01*
X124823561Y-88771915D01*
X124823560Y-88771914D01*
X124823557Y-88771910D01*
X124625741Y-88588365D01*
X124526851Y-88520943D01*
X124402775Y-88436349D01*
X124402769Y-88436346D01*
X124402768Y-88436345D01*
X124402767Y-88436344D01*
X124159643Y-88319263D01*
X124159645Y-88319263D01*
X123901773Y-88239720D01*
X123901767Y-88239718D01*
X123634936Y-88199500D01*
X123634929Y-88199500D01*
X123365071Y-88199500D01*
X123365063Y-88199500D01*
X123098232Y-88239718D01*
X123098226Y-88239720D01*
X122840358Y-88319262D01*
X122597230Y-88436346D01*
X122374258Y-88588365D01*
X122176442Y-88771910D01*
X122008185Y-88982898D01*
X121873258Y-89216599D01*
X121873256Y-89216603D01*
X121774666Y-89467804D01*
X121774664Y-89467811D01*
X121714616Y-89730898D01*
X121694451Y-89999995D01*
X120305549Y-89999995D01*
X120299484Y-89919072D01*
X120285389Y-89730973D01*
X120285383Y-89730897D01*
X120225334Y-89467805D01*
X120126743Y-89216602D01*
X119991815Y-88982898D01*
X119823561Y-88771915D01*
X119823560Y-88771914D01*
X119823557Y-88771910D01*
X119625741Y-88588365D01*
X119526851Y-88520943D01*
X119402775Y-88436349D01*
X119402769Y-88436346D01*
X119402768Y-88436345D01*
X119402767Y-88436344D01*
X119159643Y-88319263D01*
X119159645Y-88319263D01*
X118901773Y-88239720D01*
X118901767Y-88239718D01*
X118634936Y-88199500D01*
X118634929Y-88199500D01*
X118365071Y-88199500D01*
X118365063Y-88199500D01*
X118098232Y-88239718D01*
X118098226Y-88239720D01*
X117840358Y-88319262D01*
X117597230Y-88436346D01*
X117374258Y-88588365D01*
X117176442Y-88771910D01*
X117008185Y-88982898D01*
X116873258Y-89216599D01*
X116873256Y-89216603D01*
X116774666Y-89467804D01*
X116774664Y-89467811D01*
X116714616Y-89730898D01*
X116694451Y-89999995D01*
X115300499Y-89999995D01*
X115300499Y-88652128D01*
X115294091Y-88592517D01*
X115292542Y-88588365D01*
X115243797Y-88457671D01*
X115243793Y-88457664D01*
X115157547Y-88342455D01*
X115157544Y-88342452D01*
X115042335Y-88256206D01*
X115042328Y-88256202D01*
X114907482Y-88205908D01*
X114907483Y-88205908D01*
X114847883Y-88199501D01*
X114847881Y-88199500D01*
X114847873Y-88199500D01*
X114847864Y-88199500D01*
X112152129Y-88199500D01*
X112152123Y-88199501D01*
X112092516Y-88205908D01*
X111957671Y-88256202D01*
X111957664Y-88256206D01*
X111842455Y-88342452D01*
X111842452Y-88342455D01*
X111756206Y-88457664D01*
X111756202Y-88457671D01*
X111705908Y-88592517D01*
X111699501Y-88652116D01*
X111699501Y-88652123D01*
X111699500Y-88652135D01*
X107442593Y-88652135D01*
X107476075Y-83499996D01*
X124194435Y-83499996D01*
X124194435Y-83500003D01*
X124214630Y-83679249D01*
X124214631Y-83679254D01*
X124274211Y-83849523D01*
X124370184Y-84002262D01*
X124497738Y-84129816D01*
X124650478Y-84225789D01*
X124820745Y-84285368D01*
X124907669Y-84295161D01*
X124972080Y-84322226D01*
X124981465Y-84330700D01*
X128638584Y-87987819D01*
X128672069Y-88049142D01*
X128667085Y-88118834D01*
X128625213Y-88174767D01*
X128559749Y-88199184D01*
X128550903Y-88199500D01*
X128365063Y-88199500D01*
X128098232Y-88239718D01*
X128098226Y-88239720D01*
X127840358Y-88319262D01*
X127597230Y-88436346D01*
X127374258Y-88588365D01*
X127176442Y-88771910D01*
X127008185Y-88982898D01*
X126873258Y-89216599D01*
X126873256Y-89216603D01*
X126774666Y-89467804D01*
X126774664Y-89467811D01*
X126714616Y-89730898D01*
X126694451Y-89999995D01*
X126694451Y-90000004D01*
X126714616Y-90269101D01*
X126774664Y-90532188D01*
X126774666Y-90532195D01*
X126873256Y-90783396D01*
X126873258Y-90783400D01*
X126875674Y-90787584D01*
X127008185Y-91017102D01*
X127084958Y-91113372D01*
X127176442Y-91228089D01*
X127328003Y-91368716D01*
X127374259Y-91411635D01*
X127597226Y-91563651D01*
X127840359Y-91680738D01*
X128098228Y-91760280D01*
X128098229Y-91760280D01*
X128098232Y-91760281D01*
X128365063Y-91800499D01*
X128365068Y-91800499D01*
X128365071Y-91800500D01*
X128365072Y-91800500D01*
X128634928Y-91800500D01*
X128634929Y-91800500D01*
X128634936Y-91800499D01*
X128901767Y-91760281D01*
X128901768Y-91760280D01*
X128901772Y-91760280D01*
X129159641Y-91680738D01*
X129196370Y-91663049D01*
X129265309Y-91651696D01*
X129329444Y-91679417D01*
X129337853Y-91687088D01*
X133095056Y-95444291D01*
X133128541Y-95505614D01*
X133123557Y-95575306D01*
X133081685Y-95631239D01*
X133018183Y-95655500D01*
X132904683Y-95665430D01*
X132904673Y-95665432D01*
X132676516Y-95726566D01*
X132676507Y-95726570D01*
X132462422Y-95826399D01*
X132462420Y-95826400D01*
X132268926Y-95961886D01*
X132268920Y-95961891D01*
X132101891Y-96128920D01*
X132101890Y-96128922D01*
X131971880Y-96314595D01*
X131917303Y-96358219D01*
X131847804Y-96365412D01*
X131785450Y-96333890D01*
X131768730Y-96314594D01*
X131638494Y-96128597D01*
X131471402Y-95961506D01*
X131471395Y-95961501D01*
X131277834Y-95825967D01*
X131277830Y-95825965D01*
X131235302Y-95806134D01*
X131063663Y-95726097D01*
X131063659Y-95726096D01*
X131063655Y-95726094D01*
X130835413Y-95664938D01*
X130835403Y-95664936D01*
X130600001Y-95644341D01*
X130599999Y-95644341D01*
X130364596Y-95664936D01*
X130364586Y-95664938D01*
X130136344Y-95726094D01*
X130136335Y-95726098D01*
X129922171Y-95825964D01*
X129922169Y-95825965D01*
X129728597Y-95961505D01*
X129561506Y-96128596D01*
X129425965Y-96322170D01*
X129425962Y-96322175D01*
X129423289Y-96327909D01*
X129377115Y-96380346D01*
X129310909Y-96399500D01*
X127582412Y-96399500D01*
X127515373Y-96379815D01*
X127505097Y-96372445D01*
X127502263Y-96370185D01*
X127502262Y-96370184D01*
X127413791Y-96314594D01*
X127349523Y-96274211D01*
X127179254Y-96214631D01*
X127179249Y-96214630D01*
X127000004Y-96194435D01*
X126999996Y-96194435D01*
X126820750Y-96214630D01*
X126820745Y-96214631D01*
X126650476Y-96274211D01*
X126497737Y-96370184D01*
X126370184Y-96497737D01*
X126274211Y-96650476D01*
X126214631Y-96820745D01*
X126214630Y-96820750D01*
X126194435Y-96999996D01*
X126194435Y-97000003D01*
X126214630Y-97179249D01*
X126214631Y-97179254D01*
X126274211Y-97349523D01*
X126330035Y-97438366D01*
X126370184Y-97502262D01*
X126497738Y-97629816D01*
X126650478Y-97725789D01*
X126670249Y-97732707D01*
X126820745Y-97785368D01*
X126820750Y-97785369D01*
X126999996Y-97805565D01*
X127000000Y-97805565D01*
X127000004Y-97805565D01*
X127179249Y-97785369D01*
X127179252Y-97785368D01*
X127179255Y-97785368D01*
X127349522Y-97725789D01*
X127502262Y-97629816D01*
X127502267Y-97629810D01*
X127505097Y-97627555D01*
X127507275Y-97626665D01*
X127508158Y-97626111D01*
X127508255Y-97626265D01*
X127569783Y-97601145D01*
X127582412Y-97600500D01*
X129310909Y-97600500D01*
X129377948Y-97620185D01*
X129423292Y-97672097D01*
X129425965Y-97677830D01*
X129561505Y-97871401D01*
X129728599Y-98038495D01*
X129810499Y-98095842D01*
X129922165Y-98174032D01*
X129922167Y-98174033D01*
X129922170Y-98174035D01*
X130136337Y-98273903D01*
X130136343Y-98273904D01*
X130136344Y-98273905D01*
X130167089Y-98282143D01*
X130364592Y-98335063D01*
X130552918Y-98351539D01*
X130599999Y-98355659D01*
X130600000Y-98355659D01*
X130600001Y-98355659D01*
X130642233Y-98351964D01*
X130835408Y-98335063D01*
X130963757Y-98300672D01*
X131033606Y-98302335D01*
X131083531Y-98332766D01*
X131443181Y-98692416D01*
X131476666Y-98753739D01*
X131479500Y-98780097D01*
X131479500Y-103208396D01*
X131459815Y-103275435D01*
X131407011Y-103321190D01*
X131337853Y-103331134D01*
X131303096Y-103320778D01*
X131153669Y-103251099D01*
X131153655Y-103251094D01*
X130925413Y-103189938D01*
X130925403Y-103189936D01*
X130690001Y-103169341D01*
X130689999Y-103169341D01*
X130454596Y-103189936D01*
X130454586Y-103189938D01*
X130226344Y-103251094D01*
X130226335Y-103251098D01*
X130012171Y-103350964D01*
X130012169Y-103350965D01*
X129818597Y-103486505D01*
X129651505Y-103653597D01*
X129515965Y-103847169D01*
X129515964Y-103847171D01*
X129416098Y-104061335D01*
X129416094Y-104061344D01*
X129354938Y-104289586D01*
X129354936Y-104289596D01*
X129334341Y-104524999D01*
X129334341Y-104525000D01*
X129354936Y-104760403D01*
X129354938Y-104760413D01*
X129416094Y-104988655D01*
X129416096Y-104988659D01*
X129416097Y-104988663D01*
X129440072Y-105040077D01*
X129515965Y-105202830D01*
X129515967Y-105202834D01*
X129556167Y-105260245D01*
X129651505Y-105396401D01*
X129818599Y-105563495D01*
X129900268Y-105620680D01*
X130012165Y-105699032D01*
X130012167Y-105699033D01*
X130012170Y-105699035D01*
X130226337Y-105798903D01*
X130454592Y-105860063D01*
X130642918Y-105876539D01*
X130689999Y-105880659D01*
X130690000Y-105880659D01*
X130690001Y-105880659D01*
X130729234Y-105877226D01*
X130925408Y-105860063D01*
X131153663Y-105798903D01*
X131303096Y-105729220D01*
X131372172Y-105718729D01*
X131435956Y-105747249D01*
X131474196Y-105805725D01*
X131479500Y-105841603D01*
X131479500Y-106279902D01*
X131459815Y-106346941D01*
X131443181Y-106367583D01*
X130519481Y-107291282D01*
X130519477Y-107291287D01*
X130485857Y-107349521D01*
X130470858Y-107375500D01*
X130440423Y-107428215D01*
X130399499Y-107580943D01*
X130399499Y-107580945D01*
X130399499Y-107749046D01*
X130399500Y-107749059D01*
X130399500Y-124896223D01*
X130399499Y-124896241D01*
X130399499Y-125061947D01*
X130399498Y-125061947D01*
X130399499Y-125061950D01*
X130440423Y-125214678D01*
X130440424Y-125214680D01*
X130440423Y-125214680D01*
X130450695Y-125232470D01*
X130450696Y-125232471D01*
X130519477Y-125351605D01*
X130519481Y-125351610D01*
X130638349Y-125470478D01*
X130638355Y-125470483D01*
X135091414Y-129923542D01*
X135124899Y-129984865D01*
X135119915Y-130054557D01*
X135102929Y-130083713D01*
X135103705Y-130084257D01*
X134965060Y-130282262D01*
X134965059Y-130282264D01*
X134865193Y-130496428D01*
X134865189Y-130496437D01*
X134804033Y-130724679D01*
X134804031Y-130724689D01*
X134783436Y-130960092D01*
X134783436Y-130960093D01*
X134804031Y-131195496D01*
X134804033Y-131195506D01*
X134865189Y-131423748D01*
X134865191Y-131423752D01*
X134865192Y-131423756D01*
X134965060Y-131637923D01*
X134970314Y-131645426D01*
X134970319Y-131645433D01*
X134981126Y-131664152D01*
X135041561Y-131793755D01*
X135041563Y-131793759D01*
X135168265Y-131974708D01*
X135168270Y-131974714D01*
X135324473Y-132130917D01*
X135324479Y-132130922D01*
X135387149Y-132174804D01*
X135430774Y-132229381D01*
X135437968Y-132298879D01*
X135406445Y-132361234D01*
X135387150Y-132377954D01*
X135267689Y-132461601D01*
X135100600Y-132628690D01*
X134965060Y-132822262D01*
X134965059Y-132822264D01*
X134865193Y-133036428D01*
X134865189Y-133036437D01*
X134804033Y-133264679D01*
X134804031Y-133264689D01*
X134783436Y-133500092D01*
X134783436Y-133500093D01*
X134804031Y-133735496D01*
X134804033Y-133735506D01*
X134865189Y-133963748D01*
X134865191Y-133963752D01*
X134865192Y-133963756D01*
X134965060Y-134177923D01*
X134970314Y-134185426D01*
X134970319Y-134185433D01*
X134981126Y-134204152D01*
X135041561Y-134333755D01*
X135041563Y-134333759D01*
X135168265Y-134514708D01*
X135168270Y-134514714D01*
X135324473Y-134670917D01*
X135324479Y-134670922D01*
X135387149Y-134714804D01*
X135430774Y-134769381D01*
X135437968Y-134838879D01*
X135406445Y-134901234D01*
X135387150Y-134917954D01*
X135267689Y-135001601D01*
X135100600Y-135168690D01*
X134965060Y-135362262D01*
X134965059Y-135362264D01*
X134865193Y-135576428D01*
X134865189Y-135576437D01*
X134804033Y-135804679D01*
X134804031Y-135804689D01*
X134783436Y-136040092D01*
X134783436Y-136040093D01*
X134804031Y-136275496D01*
X134804033Y-136275506D01*
X134865189Y-136503748D01*
X134865191Y-136503752D01*
X134865192Y-136503756D01*
X134965060Y-136717923D01*
X134970314Y-136725426D01*
X134970319Y-136725433D01*
X134981126Y-136744152D01*
X135041561Y-136873755D01*
X135041563Y-136873759D01*
X135168265Y-137054708D01*
X135168270Y-137054714D01*
X135324473Y-137210917D01*
X135324479Y-137210922D01*
X135387149Y-137254804D01*
X135430774Y-137309381D01*
X135437968Y-137378879D01*
X135406445Y-137441234D01*
X135387150Y-137457954D01*
X135267689Y-137541601D01*
X135100600Y-137708690D01*
X134965060Y-137902262D01*
X134965059Y-137902264D01*
X134865193Y-138116428D01*
X134865189Y-138116437D01*
X134804033Y-138344679D01*
X134804031Y-138344689D01*
X134783436Y-138580092D01*
X134783436Y-138580093D01*
X134804031Y-138815496D01*
X134804033Y-138815506D01*
X134865189Y-139043748D01*
X134865191Y-139043752D01*
X134865192Y-139043756D01*
X134965060Y-139257923D01*
X134970314Y-139265426D01*
X134970319Y-139265433D01*
X134981126Y-139284152D01*
X135041561Y-139413755D01*
X135041563Y-139413759D01*
X135168265Y-139594708D01*
X135168270Y-139594714D01*
X135324473Y-139750917D01*
X135324479Y-139750922D01*
X135387149Y-139794804D01*
X135430774Y-139849381D01*
X135437968Y-139918879D01*
X135406445Y-139981234D01*
X135387150Y-139997954D01*
X135267689Y-140081601D01*
X135100600Y-140248690D01*
X134965060Y-140442262D01*
X134965059Y-140442264D01*
X134865193Y-140656428D01*
X134865189Y-140656437D01*
X134804033Y-140884679D01*
X134804031Y-140884689D01*
X134783436Y-141120092D01*
X134783436Y-141120093D01*
X134804031Y-141355496D01*
X134804033Y-141355506D01*
X134865189Y-141583748D01*
X134865191Y-141583752D01*
X134865192Y-141583756D01*
X134965060Y-141797923D01*
X134970314Y-141805426D01*
X134970319Y-141805433D01*
X134981126Y-141824152D01*
X135041561Y-141953755D01*
X135041563Y-141953759D01*
X135168265Y-142134708D01*
X135168270Y-142134714D01*
X135324473Y-142290917D01*
X135324479Y-142290922D01*
X135387149Y-142334804D01*
X135430774Y-142389381D01*
X135437968Y-142458879D01*
X135406445Y-142521234D01*
X135387150Y-142537954D01*
X135267689Y-142621601D01*
X135100600Y-142788690D01*
X134965060Y-142982262D01*
X134965059Y-142982264D01*
X134865193Y-143196428D01*
X134865189Y-143196437D01*
X134804033Y-143424679D01*
X134804031Y-143424689D01*
X134783436Y-143660092D01*
X134783436Y-143660093D01*
X134804031Y-143895496D01*
X134804033Y-143895506D01*
X134865189Y-144123748D01*
X134865191Y-144123752D01*
X134865192Y-144123756D01*
X134965060Y-144337923D01*
X134970314Y-144345426D01*
X134970319Y-144345433D01*
X134981126Y-144364152D01*
X135041561Y-144493755D01*
X135041563Y-144493759D01*
X135168265Y-144674708D01*
X135168270Y-144674714D01*
X135324473Y-144830917D01*
X135324479Y-144830922D01*
X135387149Y-144874804D01*
X135430774Y-144929381D01*
X135437968Y-144998879D01*
X135406445Y-145061234D01*
X135387150Y-145077954D01*
X135267689Y-145161601D01*
X135100600Y-145328690D01*
X134965060Y-145522262D01*
X134965059Y-145522264D01*
X134865193Y-145736428D01*
X134865189Y-145736437D01*
X134804033Y-145964679D01*
X134804031Y-145964689D01*
X134783436Y-146200092D01*
X134783436Y-146200093D01*
X134804031Y-146435496D01*
X134804033Y-146435506D01*
X134865189Y-146663748D01*
X134865191Y-146663752D01*
X134865192Y-146663756D01*
X134965060Y-146877923D01*
X134970314Y-146885426D01*
X134970319Y-146885433D01*
X134981126Y-146904152D01*
X135041561Y-147033755D01*
X135041563Y-147033759D01*
X135168265Y-147214708D01*
X135168269Y-147214713D01*
X135324475Y-147370919D01*
X135324477Y-147370920D01*
X135324479Y-147370922D01*
X135387585Y-147415109D01*
X135431210Y-147469685D01*
X135438404Y-147539184D01*
X135406881Y-147601539D01*
X135387586Y-147618258D01*
X135268024Y-147701977D01*
X135268015Y-147701984D01*
X135100986Y-147869013D01*
X135100981Y-147869019D01*
X134965495Y-148062513D01*
X134965494Y-148062515D01*
X134865665Y-148276600D01*
X134865662Y-148276606D01*
X134808459Y-148490092D01*
X134808459Y-148490093D01*
X135706083Y-148490093D01*
X135673170Y-148547100D01*
X135639095Y-148674267D01*
X135639095Y-148805919D01*
X135673170Y-148933086D01*
X135706083Y-148990093D01*
X134808459Y-148990093D01*
X134865662Y-149203579D01*
X134865665Y-149203585D01*
X134965495Y-149417671D01*
X134970754Y-149425182D01*
X134981561Y-149443901D01*
X135041995Y-149573502D01*
X135041996Y-149573504D01*
X135087353Y-149638280D01*
X135087354Y-149638281D01*
X135716865Y-149008769D01*
X135738996Y-149047100D01*
X135790901Y-149099005D01*
X135834219Y-149174033D01*
X135905155Y-149244969D01*
X135992034Y-149295129D01*
X136088935Y-149321093D01*
X136111648Y-149321093D01*
X135440905Y-149991833D01*
X135445257Y-150041579D01*
X135431490Y-150110079D01*
X135392852Y-150153961D01*
X135267692Y-150241598D01*
X135100600Y-150408690D01*
X134965060Y-150602262D01*
X134965059Y-150602264D01*
X134865193Y-150816428D01*
X134865189Y-150816437D01*
X134804033Y-151044679D01*
X134804031Y-151044689D01*
X134783436Y-151280092D01*
X134783436Y-151280093D01*
X134804031Y-151515496D01*
X134804033Y-151515506D01*
X134865189Y-151743748D01*
X134865191Y-151743752D01*
X134865192Y-151743756D01*
X134965060Y-151957923D01*
X134970314Y-151965426D01*
X134970319Y-151965433D01*
X134981126Y-151984152D01*
X135041561Y-152113755D01*
X135041563Y-152113759D01*
X135168265Y-152294708D01*
X135168270Y-152294714D01*
X135324473Y-152450917D01*
X135324479Y-152450922D01*
X135505428Y-152577624D01*
X135505430Y-152577625D01*
X135505433Y-152577627D01*
X135705645Y-152670987D01*
X135919027Y-152728163D01*
X136076218Y-152741915D01*
X136139093Y-152747416D01*
X136139095Y-152747416D01*
X136139097Y-152747416D01*
X136194112Y-152742602D01*
X136359163Y-152728163D01*
X136572545Y-152670987D01*
X136772757Y-152577627D01*
X136953715Y-152450919D01*
X137109921Y-152294713D01*
X137236629Y-152113755D01*
X137297065Y-151984146D01*
X137307870Y-151965433D01*
X137313130Y-151957923D01*
X137412998Y-151743756D01*
X137474158Y-151515501D01*
X137494754Y-151280093D01*
X137492997Y-151260016D01*
X137474158Y-151044689D01*
X137474158Y-151044685D01*
X137412998Y-150816430D01*
X137313130Y-150602264D01*
X137177590Y-150408692D01*
X137177589Y-150408690D01*
X137010497Y-150241599D01*
X137010496Y-150241598D01*
X136885335Y-150153959D01*
X136841710Y-150099382D01*
X136832931Y-150041577D01*
X136837282Y-149991833D01*
X136166543Y-149321093D01*
X136189255Y-149321093D01*
X136286156Y-149295129D01*
X136373035Y-149244969D01*
X136443971Y-149174033D01*
X136487288Y-149099005D01*
X136539194Y-149047100D01*
X136561323Y-149008769D01*
X137190836Y-149638281D01*
X137236189Y-149573510D01*
X137236190Y-149573509D01*
X137296626Y-149443903D01*
X137307440Y-149425175D01*
X137312698Y-149417666D01*
X137312699Y-149417664D01*
X137412523Y-149203590D01*
X137412527Y-149203579D01*
X137469731Y-148990093D01*
X136572107Y-148990093D01*
X136605020Y-148933086D01*
X136639095Y-148805919D01*
X136639095Y-148674267D01*
X136605020Y-148547100D01*
X136572107Y-148490093D01*
X137469731Y-148490093D01*
X137469730Y-148490092D01*
X137412527Y-148276606D01*
X137412524Y-148276600D01*
X137312695Y-148062515D01*
X137312694Y-148062513D01*
X137177208Y-147869019D01*
X137177203Y-147869013D01*
X137010173Y-147701983D01*
X136890603Y-147618258D01*
X136846978Y-147563681D01*
X136839786Y-147494183D01*
X136871309Y-147431828D01*
X136890598Y-147415113D01*
X136953715Y-147370919D01*
X137109921Y-147214713D01*
X137236629Y-147033755D01*
X137297065Y-146904146D01*
X137307870Y-146885433D01*
X137313130Y-146877923D01*
X137315804Y-146872187D01*
X137361977Y-146819749D01*
X137428186Y-146800593D01*
X138213238Y-146800593D01*
X138213254Y-146800594D01*
X138220850Y-146800594D01*
X138378961Y-146800594D01*
X138378964Y-146800594D01*
X138531692Y-146759670D01*
X138563792Y-146741136D01*
X138631691Y-146724663D01*
X138666748Y-146731482D01*
X138820737Y-146785366D01*
X138820743Y-146785367D01*
X138820745Y-146785368D01*
X138820746Y-146785368D01*
X138820750Y-146785369D01*
X138999996Y-146805565D01*
X139000000Y-146805565D01*
X139000004Y-146805565D01*
X139179249Y-146785369D01*
X139179252Y-146785368D01*
X139179255Y-146785368D01*
X139349522Y-146725789D01*
X139502262Y-146629816D01*
X139629816Y-146502262D01*
X139725789Y-146349522D01*
X139785368Y-146179255D01*
X139785369Y-146179249D01*
X139805565Y-146000003D01*
X139805565Y-145999996D01*
X139785369Y-145820750D01*
X139785368Y-145820745D01*
X139725788Y-145650476D01*
X139670995Y-145563274D01*
X139629816Y-145497738D01*
X139502262Y-145370184D01*
X139488599Y-145361599D01*
X139349523Y-145274211D01*
X139179254Y-145214631D01*
X139179249Y-145214630D01*
X139000004Y-145194435D01*
X138999996Y-145194435D01*
X138820750Y-145214630D01*
X138820745Y-145214631D01*
X138650476Y-145274211D01*
X138497736Y-145370185D01*
X138494903Y-145372445D01*
X138492724Y-145373334D01*
X138491842Y-145373889D01*
X138491744Y-145373734D01*
X138430217Y-145398855D01*
X138423070Y-145399219D01*
X138420942Y-145399500D01*
X138268215Y-145440423D01*
X138268214Y-145440423D01*
X138268212Y-145440424D01*
X138268209Y-145440425D01*
X138233066Y-145460716D01*
X138233064Y-145460717D01*
X138131290Y-145519475D01*
X138131282Y-145519481D01*
X138087490Y-145563274D01*
X138026167Y-145596759D01*
X137999809Y-145599593D01*
X137428186Y-145599593D01*
X137361147Y-145579908D01*
X137315806Y-145528002D01*
X137313132Y-145522268D01*
X137313129Y-145522263D01*
X137313128Y-145522262D01*
X137226973Y-145399219D01*
X137177589Y-145328690D01*
X137010497Y-145161599D01*
X137010491Y-145161594D01*
X136891040Y-145077954D01*
X136847415Y-145023377D01*
X136840221Y-144953879D01*
X136871744Y-144891524D01*
X136891031Y-144874810D01*
X136953715Y-144830919D01*
X137109921Y-144674713D01*
X137236629Y-144493755D01*
X137297065Y-144364146D01*
X137307870Y-144345433D01*
X137313130Y-144337923D01*
X137412998Y-144123756D01*
X137474158Y-143895501D01*
X137494754Y-143660093D01*
X137491656Y-143624689D01*
X137490634Y-143613011D01*
X137474158Y-143424685D01*
X137412998Y-143196430D01*
X137313130Y-142982264D01*
X137200629Y-142821594D01*
X137177589Y-142788690D01*
X137010497Y-142621599D01*
X137010491Y-142621594D01*
X136891040Y-142537954D01*
X136847415Y-142483377D01*
X136840221Y-142413879D01*
X136871744Y-142351524D01*
X136891031Y-142334810D01*
X136953715Y-142290919D01*
X137109921Y-142134713D01*
X137236629Y-141953755D01*
X137297065Y-141824146D01*
X137307870Y-141805433D01*
X137313130Y-141797923D01*
X137412998Y-141583756D01*
X137474158Y-141355501D01*
X137494754Y-141120093D01*
X137491656Y-141084689D01*
X137490634Y-141073011D01*
X137474158Y-140884685D01*
X137412998Y-140656430D01*
X137313130Y-140442264D01*
X137200629Y-140281594D01*
X137177589Y-140248690D01*
X137010497Y-140081599D01*
X137010491Y-140081594D01*
X136891040Y-139997954D01*
X136847415Y-139943377D01*
X136840221Y-139873879D01*
X136871744Y-139811524D01*
X136891031Y-139794810D01*
X136953715Y-139750919D01*
X137109921Y-139594713D01*
X137236629Y-139413755D01*
X137297065Y-139284146D01*
X137307870Y-139265433D01*
X137313130Y-139257923D01*
X137412998Y-139043756D01*
X137474158Y-138815501D01*
X137494754Y-138580093D01*
X137491656Y-138544689D01*
X137490634Y-138533011D01*
X137474158Y-138344685D01*
X137412998Y-138116430D01*
X137313130Y-137902264D01*
X137200629Y-137741594D01*
X137177589Y-137708690D01*
X137010497Y-137541599D01*
X137010491Y-137541594D01*
X136891040Y-137457954D01*
X136847415Y-137403377D01*
X136840221Y-137333879D01*
X136871744Y-137271524D01*
X136891031Y-137254810D01*
X136953715Y-137210919D01*
X137109921Y-137054713D01*
X137236629Y-136873755D01*
X137297065Y-136744146D01*
X137307870Y-136725433D01*
X137313130Y-136717923D01*
X137412998Y-136503756D01*
X137474158Y-136275501D01*
X137494754Y-136040093D01*
X137491656Y-136004689D01*
X137490634Y-135993011D01*
X137474158Y-135804685D01*
X137412998Y-135576430D01*
X137313130Y-135362264D01*
X137200629Y-135201594D01*
X137177589Y-135168690D01*
X137010497Y-135001599D01*
X137010491Y-135001594D01*
X136891040Y-134917954D01*
X136847415Y-134863377D01*
X136840221Y-134793879D01*
X136871744Y-134731524D01*
X136891031Y-134714810D01*
X136953715Y-134670919D01*
X137109921Y-134514713D01*
X137236629Y-134333755D01*
X137297065Y-134204146D01*
X137307870Y-134185433D01*
X137313130Y-134177923D01*
X137412998Y-133963756D01*
X137474158Y-133735501D01*
X137494754Y-133500093D01*
X137491656Y-133464689D01*
X137490634Y-133453011D01*
X137474158Y-133264685D01*
X137412998Y-133036430D01*
X137313130Y-132822264D01*
X137177590Y-132628692D01*
X137177589Y-132628690D01*
X137010497Y-132461599D01*
X137010491Y-132461594D01*
X136891040Y-132377954D01*
X136847415Y-132323377D01*
X136840221Y-132253879D01*
X136871744Y-132191524D01*
X136891031Y-132174810D01*
X136953715Y-132130919D01*
X137109921Y-131974713D01*
X137236629Y-131793755D01*
X137297065Y-131664146D01*
X137307870Y-131645433D01*
X137313130Y-131637923D01*
X137412998Y-131423756D01*
X137474158Y-131195501D01*
X137494754Y-130960093D01*
X137474158Y-130724685D01*
X137412998Y-130496430D01*
X137395543Y-130458998D01*
X137385051Y-130389920D01*
X137413571Y-130326136D01*
X137472047Y-130287897D01*
X137507925Y-130282593D01*
X139440998Y-130282593D01*
X139508037Y-130302278D01*
X139528679Y-130318912D01*
X160278179Y-151068412D01*
X160311664Y-151129735D01*
X160310273Y-151188185D01*
X160291027Y-151260016D01*
X160291024Y-151260030D01*
X160271772Y-151480090D01*
X160271772Y-151480095D01*
X160291024Y-151700155D01*
X160291025Y-151700163D01*
X160348199Y-151913538D01*
X160348200Y-151913540D01*
X160348201Y-151913543D01*
X160401628Y-152028118D01*
X160441562Y-152113758D01*
X160444028Y-152117279D01*
X160454833Y-152135993D01*
X160465058Y-152157921D01*
X160465060Y-152157924D01*
X160560838Y-152294708D01*
X160600600Y-152351494D01*
X160767694Y-152518588D01*
X160852006Y-152577624D01*
X160961260Y-152654125D01*
X160961262Y-152654126D01*
X160961265Y-152654128D01*
X161175432Y-152753996D01*
X161403687Y-152815156D01*
X161592013Y-152831632D01*
X161639094Y-152835752D01*
X161639095Y-152835752D01*
X161639096Y-152835752D01*
X161678329Y-152832319D01*
X161874503Y-152815156D01*
X162102758Y-152753996D01*
X162316925Y-152654128D01*
X162510496Y-152518588D01*
X162677590Y-152351494D01*
X162813130Y-152157923D01*
X162912998Y-151943756D01*
X162974158Y-151715501D01*
X162994754Y-151480093D01*
X162974158Y-151244685D01*
X162912998Y-151016430D01*
X162813130Y-150802264D01*
X162677590Y-150608692D01*
X162677589Y-150608690D01*
X162510497Y-150441599D01*
X162510496Y-150441598D01*
X162324500Y-150311362D01*
X162280876Y-150256785D01*
X162273683Y-150187286D01*
X162305205Y-150124932D01*
X162324500Y-150108212D01*
X162510177Y-149978198D01*
X162677200Y-149811175D01*
X162812695Y-149617671D01*
X162912524Y-149403585D01*
X162912527Y-149403579D01*
X162969731Y-149190093D01*
X162072107Y-149190093D01*
X162105020Y-149133086D01*
X162139095Y-149005919D01*
X162139095Y-148874267D01*
X162105020Y-148747100D01*
X162072107Y-148690093D01*
X162969731Y-148690093D01*
X162969730Y-148690092D01*
X162912527Y-148476606D01*
X162912524Y-148476600D01*
X162812695Y-148262515D01*
X162812694Y-148262513D01*
X162677208Y-148069019D01*
X162677203Y-148069013D01*
X162510173Y-147901983D01*
X162324500Y-147771972D01*
X162280875Y-147717395D01*
X162273683Y-147647897D01*
X162305205Y-147585542D01*
X162324501Y-147568823D01*
X162366830Y-147539184D01*
X162510496Y-147438588D01*
X162677590Y-147271494D01*
X162813130Y-147077923D01*
X162912998Y-146863756D01*
X162974158Y-146635501D01*
X162994754Y-146400093D01*
X162974158Y-146164685D01*
X162922226Y-145970869D01*
X162913000Y-145936437D01*
X162912999Y-145936436D01*
X162912998Y-145936430D01*
X162813130Y-145722264D01*
X162762866Y-145650478D01*
X162677589Y-145528690D01*
X162510497Y-145361599D01*
X162510491Y-145361594D01*
X162324937Y-145231668D01*
X162281312Y-145177091D01*
X162274118Y-145107593D01*
X162305641Y-145045238D01*
X162324937Y-145028518D01*
X162367266Y-144998879D01*
X162510496Y-144898588D01*
X162677590Y-144731494D01*
X162813130Y-144537923D01*
X162912998Y-144323756D01*
X162974158Y-144095501D01*
X162994754Y-143860093D01*
X162974158Y-143624685D01*
X162921095Y-143426647D01*
X162913000Y-143396437D01*
X162912999Y-143396436D01*
X162912998Y-143396430D01*
X162813130Y-143182264D01*
X162677590Y-142988692D01*
X162677589Y-142988690D01*
X162510497Y-142821599D01*
X162510491Y-142821594D01*
X162324937Y-142691668D01*
X162281312Y-142637091D01*
X162274118Y-142567593D01*
X162305641Y-142505238D01*
X162324937Y-142488518D01*
X162367266Y-142458879D01*
X162510496Y-142358588D01*
X162677590Y-142191494D01*
X162813130Y-141997923D01*
X162912998Y-141783756D01*
X162974158Y-141555501D01*
X162994754Y-141320093D01*
X162974158Y-141084685D01*
X162921095Y-140886647D01*
X162913000Y-140856437D01*
X162912999Y-140856436D01*
X162912998Y-140856430D01*
X162813130Y-140642264D01*
X162677590Y-140448692D01*
X162677589Y-140448690D01*
X162510497Y-140281599D01*
X162510491Y-140281594D01*
X162324937Y-140151668D01*
X162281312Y-140097091D01*
X162274118Y-140027593D01*
X162305641Y-139965238D01*
X162324937Y-139948518D01*
X162367266Y-139918879D01*
X162510496Y-139818588D01*
X162677590Y-139651494D01*
X162813130Y-139457923D01*
X162912998Y-139243756D01*
X162974158Y-139015501D01*
X162994754Y-138780093D01*
X162974158Y-138544685D01*
X162921095Y-138346647D01*
X162913000Y-138316437D01*
X162912999Y-138316436D01*
X162912998Y-138316430D01*
X162813130Y-138102264D01*
X162677590Y-137908692D01*
X162677589Y-137908690D01*
X162510497Y-137741599D01*
X162510491Y-137741594D01*
X162324937Y-137611668D01*
X162281312Y-137557091D01*
X162274118Y-137487593D01*
X162305641Y-137425238D01*
X162324937Y-137408518D01*
X162367266Y-137378879D01*
X162510496Y-137278588D01*
X162677590Y-137111494D01*
X162813130Y-136917923D01*
X162912998Y-136703756D01*
X162974158Y-136475501D01*
X162994754Y-136240093D01*
X162974158Y-136004685D01*
X162921095Y-135806647D01*
X162913000Y-135776437D01*
X162912999Y-135776436D01*
X162912998Y-135776430D01*
X162813130Y-135562264D01*
X162677590Y-135368692D01*
X162677589Y-135368690D01*
X162510497Y-135201599D01*
X162510491Y-135201594D01*
X162324937Y-135071668D01*
X162281312Y-135017091D01*
X162274118Y-134947593D01*
X162305641Y-134885238D01*
X162324937Y-134868518D01*
X162367266Y-134838879D01*
X162510496Y-134738588D01*
X162677590Y-134571494D01*
X162813130Y-134377923D01*
X162912998Y-134163756D01*
X162974158Y-133935501D01*
X162994754Y-133700093D01*
X162974158Y-133464685D01*
X162921095Y-133266647D01*
X162918635Y-133257466D01*
X162920298Y-133187616D01*
X162950727Y-133137694D01*
X168358506Y-127729916D01*
X168358511Y-127729912D01*
X168368714Y-127719708D01*
X168368716Y-127719708D01*
X168480520Y-127607904D01*
X168559577Y-127470972D01*
X168593012Y-127346190D01*
X168600500Y-127318246D01*
X168600500Y-127160131D01*
X168600500Y-108499996D01*
X170494415Y-108499996D01*
X170494415Y-108500003D01*
X170514738Y-108848927D01*
X170514739Y-108848938D01*
X170575428Y-109193127D01*
X170575430Y-109193134D01*
X170675674Y-109527972D01*
X170814107Y-109848895D01*
X170814113Y-109848908D01*
X170988870Y-110151597D01*
X171197584Y-110431949D01*
X171197589Y-110431955D01*
X171256716Y-110494625D01*
X171437442Y-110686183D01*
X171613903Y-110834251D01*
X171705186Y-110910847D01*
X171705194Y-110910853D01*
X171997203Y-111102911D01*
X171997207Y-111102913D01*
X172309549Y-111259777D01*
X172637989Y-111379319D01*
X172978086Y-111459923D01*
X173325241Y-111500500D01*
X173325248Y-111500500D01*
X173674752Y-111500500D01*
X173674759Y-111500500D01*
X174021914Y-111459923D01*
X174362011Y-111379319D01*
X174690451Y-111259777D01*
X175002793Y-111102913D01*
X175294811Y-110910849D01*
X175562558Y-110686183D01*
X175802412Y-110431953D01*
X176011130Y-110151596D01*
X176185889Y-109848904D01*
X176324326Y-109527971D01*
X176424569Y-109193136D01*
X176426082Y-109184560D01*
X176485260Y-108848938D01*
X176485259Y-108848938D01*
X176485262Y-108848927D01*
X176505585Y-108500000D01*
X176485262Y-108151073D01*
X176482547Y-108135677D01*
X176424571Y-107806872D01*
X176424569Y-107806865D01*
X176422543Y-107800097D01*
X176324326Y-107472029D01*
X176185889Y-107151096D01*
X176011130Y-106848404D01*
X175997974Y-106830732D01*
X175802415Y-106568050D01*
X175802410Y-106568044D01*
X175661844Y-106419054D01*
X175562558Y-106313817D01*
X175390036Y-106169054D01*
X175294813Y-106089152D01*
X175294805Y-106089146D01*
X175002796Y-105897088D01*
X174690458Y-105740226D01*
X174690452Y-105740223D01*
X174362012Y-105620681D01*
X174362009Y-105620680D01*
X174021915Y-105540077D01*
X173978519Y-105535004D01*
X173674759Y-105499500D01*
X173325241Y-105499500D01*
X173021480Y-105535004D01*
X172978085Y-105540077D01*
X172978083Y-105540077D01*
X172637990Y-105620680D01*
X172637987Y-105620681D01*
X172309547Y-105740223D01*
X172309541Y-105740226D01*
X171997203Y-105897088D01*
X171705194Y-106089146D01*
X171705186Y-106089152D01*
X171437442Y-106313817D01*
X171437440Y-106313819D01*
X171197589Y-106568044D01*
X171197584Y-106568050D01*
X170988870Y-106848402D01*
X170814113Y-107151091D01*
X170814107Y-107151104D01*
X170675674Y-107472027D01*
X170575430Y-107806865D01*
X170575428Y-107806872D01*
X170514739Y-108151061D01*
X170514738Y-108151072D01*
X170494415Y-108499996D01*
X168600500Y-108499996D01*
X168600500Y-107800097D01*
X168620185Y-107733058D01*
X168636819Y-107712416D01*
X173712417Y-102636819D01*
X173773740Y-102603334D01*
X173800098Y-102600500D01*
X175413331Y-102600500D01*
X175413347Y-102600501D01*
X175420943Y-102600501D01*
X175579054Y-102600501D01*
X175579057Y-102600501D01*
X175731785Y-102559577D01*
X175783713Y-102529596D01*
X175868716Y-102480520D01*
X175980520Y-102368716D01*
X175980520Y-102368714D01*
X175990724Y-102358511D01*
X175990728Y-102358506D01*
X186868713Y-91480521D01*
X186868716Y-91480520D01*
X186980520Y-91368716D01*
X187030639Y-91281904D01*
X187059577Y-91231785D01*
X187100500Y-91079057D01*
X187100500Y-90920943D01*
X187100500Y-83089060D01*
X187100501Y-83089047D01*
X187100501Y-82920944D01*
X187059576Y-82768214D01*
X187059573Y-82768209D01*
X186980524Y-82631290D01*
X186980518Y-82631282D01*
X186368717Y-82019481D01*
X186368716Y-82019480D01*
X186281904Y-81969360D01*
X186281904Y-81969359D01*
X186281900Y-81969358D01*
X186231785Y-81940423D01*
X186079057Y-81899499D01*
X185920943Y-81899499D01*
X185913347Y-81899499D01*
X185913331Y-81899500D01*
X158823928Y-81899500D01*
X158823912Y-81899499D01*
X158816316Y-81899499D01*
X158658201Y-81899499D01*
X158581837Y-81919961D01*
X158505472Y-81940423D01*
X158505467Y-81940426D01*
X158368548Y-82019475D01*
X158368540Y-82019481D01*
X150502433Y-89885587D01*
X150441110Y-89919072D01*
X150371418Y-89914088D01*
X150315485Y-89872216D01*
X150291099Y-89807171D01*
X150285389Y-89730973D01*
X150285383Y-89730897D01*
X150225334Y-89467805D01*
X150126743Y-89216602D01*
X149991815Y-88982898D01*
X149823561Y-88771915D01*
X149823560Y-88771914D01*
X149823557Y-88771910D01*
X149625741Y-88588365D01*
X149526851Y-88520943D01*
X149402775Y-88436349D01*
X149402769Y-88436346D01*
X149402768Y-88436345D01*
X149402767Y-88436344D01*
X149159643Y-88319263D01*
X149159645Y-88319263D01*
X148901773Y-88239720D01*
X148901767Y-88239718D01*
X148634936Y-88199500D01*
X148634929Y-88199500D01*
X148365071Y-88199500D01*
X148365063Y-88199500D01*
X148098232Y-88239718D01*
X148098226Y-88239720D01*
X147840358Y-88319262D01*
X147597230Y-88436346D01*
X147374258Y-88588365D01*
X147176442Y-88771910D01*
X147008185Y-88982898D01*
X146873258Y-89216599D01*
X146873256Y-89216603D01*
X146774666Y-89467804D01*
X146774664Y-89467811D01*
X146714616Y-89730898D01*
X146694451Y-89999995D01*
X146694451Y-90000004D01*
X146714616Y-90269101D01*
X146772162Y-90521226D01*
X146774666Y-90532195D01*
X146781746Y-90550234D01*
X146841935Y-90703593D01*
X146848103Y-90773190D01*
X146815665Y-90835073D01*
X146814188Y-90836576D01*
X146749479Y-90901285D01*
X146738132Y-90920940D01*
X146718319Y-90955257D01*
X146670423Y-91038215D01*
X146629499Y-91190943D01*
X146629499Y-91190945D01*
X146629499Y-91359046D01*
X146629500Y-91359059D01*
X146629500Y-95683396D01*
X146609815Y-95750435D01*
X146557011Y-95796190D01*
X146487853Y-95806134D01*
X146453096Y-95795778D01*
X146303669Y-95726099D01*
X146303655Y-95726094D01*
X146075413Y-95664938D01*
X146075403Y-95664936D01*
X145840001Y-95644341D01*
X145839999Y-95644341D01*
X145604596Y-95664936D01*
X145604586Y-95664938D01*
X145376344Y-95726094D01*
X145376335Y-95726098D01*
X145276905Y-95772463D01*
X145207827Y-95782955D01*
X145144043Y-95754435D01*
X145105804Y-95695959D01*
X145100500Y-95660081D01*
X145100500Y-91089060D01*
X145100501Y-91089047D01*
X145100501Y-90920944D01*
X145100500Y-90920940D01*
X145096941Y-90907657D01*
X145098602Y-90837808D01*
X145109329Y-90813561D01*
X145126740Y-90783403D01*
X145126739Y-90783403D01*
X145126743Y-90783398D01*
X145225334Y-90532195D01*
X145285383Y-90269103D01*
X145305549Y-90000000D01*
X145299484Y-89919072D01*
X145285389Y-89730973D01*
X145285383Y-89730897D01*
X145225334Y-89467805D01*
X145126743Y-89216602D01*
X144991815Y-88982898D01*
X144823561Y-88771915D01*
X144823560Y-88771914D01*
X144823557Y-88771910D01*
X144625741Y-88588365D01*
X144526851Y-88520943D01*
X144402775Y-88436349D01*
X144402769Y-88436346D01*
X144402768Y-88436345D01*
X144402767Y-88436344D01*
X144159643Y-88319263D01*
X144159645Y-88319263D01*
X143901773Y-88239720D01*
X143901767Y-88239718D01*
X143634936Y-88199500D01*
X143634929Y-88199500D01*
X143365071Y-88199500D01*
X143365063Y-88199500D01*
X143098232Y-88239718D01*
X143098226Y-88239720D01*
X142840358Y-88319262D01*
X142597230Y-88436346D01*
X142374258Y-88588365D01*
X142176442Y-88771910D01*
X142008185Y-88982898D01*
X141873258Y-89216599D01*
X141873256Y-89216603D01*
X141774666Y-89467804D01*
X141774664Y-89467811D01*
X141714616Y-89730898D01*
X141694451Y-89999995D01*
X141694451Y-90000004D01*
X141714616Y-90269101D01*
X141774664Y-90532188D01*
X141774666Y-90532195D01*
X141873256Y-90783396D01*
X141873258Y-90783400D01*
X141875674Y-90787584D01*
X142008185Y-91017102D01*
X142084958Y-91113372D01*
X142176442Y-91228089D01*
X142328003Y-91368716D01*
X142374259Y-91411635D01*
X142597226Y-91563651D01*
X142840359Y-91680738D01*
X143098228Y-91760280D01*
X143098229Y-91760280D01*
X143098232Y-91760281D01*
X143365063Y-91800499D01*
X143365068Y-91800499D01*
X143365071Y-91800500D01*
X143365072Y-91800500D01*
X143634928Y-91800500D01*
X143634929Y-91800500D01*
X143757020Y-91782097D01*
X143826242Y-91791569D01*
X143879356Y-91836964D01*
X143899497Y-91903868D01*
X143899500Y-91904712D01*
X143899500Y-95600894D01*
X143879815Y-95667933D01*
X143827011Y-95713688D01*
X143757853Y-95723632D01*
X143743407Y-95720669D01*
X143535413Y-95664938D01*
X143535403Y-95664936D01*
X143300001Y-95644341D01*
X143299999Y-95644341D01*
X143064596Y-95664936D01*
X143064586Y-95664938D01*
X142836344Y-95726094D01*
X142836335Y-95726098D01*
X142622171Y-95825964D01*
X142622169Y-95825965D01*
X142428597Y-95961505D01*
X142261505Y-96128597D01*
X142131575Y-96314158D01*
X142076998Y-96357783D01*
X142007500Y-96364977D01*
X141945145Y-96333454D01*
X141928425Y-96314158D01*
X141798494Y-96128597D01*
X141631402Y-95961506D01*
X141631395Y-95961501D01*
X141437834Y-95825967D01*
X141437830Y-95825965D01*
X141395302Y-95806134D01*
X141223663Y-95726097D01*
X141223659Y-95726096D01*
X141223655Y-95726094D01*
X140995413Y-95664938D01*
X140995403Y-95664936D01*
X140760001Y-95644341D01*
X140759999Y-95644341D01*
X140524596Y-95664936D01*
X140524586Y-95664938D01*
X140296344Y-95726094D01*
X140296334Y-95726098D01*
X140276903Y-95735159D01*
X140207825Y-95745650D01*
X140144042Y-95717129D01*
X140105803Y-95658652D01*
X140100500Y-95622776D01*
X140100500Y-91089060D01*
X140100501Y-91089047D01*
X140100501Y-90920944D01*
X140100500Y-90920940D01*
X140096941Y-90907657D01*
X140098602Y-90837808D01*
X140109329Y-90813561D01*
X140126740Y-90783403D01*
X140126739Y-90783403D01*
X140126743Y-90783398D01*
X140225334Y-90532195D01*
X140285383Y-90269103D01*
X140305549Y-90000000D01*
X140299484Y-89919072D01*
X140285389Y-89730973D01*
X140285383Y-89730897D01*
X140225334Y-89467805D01*
X140126743Y-89216602D01*
X139991815Y-88982898D01*
X139823561Y-88771915D01*
X139823560Y-88771914D01*
X139823557Y-88771910D01*
X139625741Y-88588365D01*
X139526851Y-88520943D01*
X139402775Y-88436349D01*
X139402769Y-88436346D01*
X139402768Y-88436345D01*
X139402767Y-88436344D01*
X139159643Y-88319263D01*
X139159645Y-88319263D01*
X138901773Y-88239720D01*
X138901767Y-88239718D01*
X138634936Y-88199500D01*
X138634929Y-88199500D01*
X138365071Y-88199500D01*
X138365063Y-88199500D01*
X138098232Y-88239718D01*
X138098226Y-88239720D01*
X137840358Y-88319262D01*
X137597230Y-88436346D01*
X137374258Y-88588365D01*
X137176442Y-88771910D01*
X137008185Y-88982898D01*
X136873258Y-89216599D01*
X136873256Y-89216603D01*
X136774666Y-89467804D01*
X136774664Y-89467811D01*
X136714616Y-89730898D01*
X136694451Y-89999995D01*
X136694451Y-90000004D01*
X136714616Y-90269101D01*
X136774664Y-90532188D01*
X136774666Y-90532195D01*
X136873256Y-90783396D01*
X136873258Y-90783400D01*
X136875674Y-90787584D01*
X137008185Y-91017102D01*
X137084958Y-91113372D01*
X137176442Y-91228089D01*
X137328003Y-91368716D01*
X137374259Y-91411635D01*
X137597226Y-91563651D01*
X137840359Y-91680738D01*
X138098228Y-91760280D01*
X138098229Y-91760280D01*
X138098232Y-91760281D01*
X138365063Y-91800499D01*
X138365068Y-91800499D01*
X138365071Y-91800500D01*
X138365072Y-91800500D01*
X138634928Y-91800500D01*
X138634929Y-91800500D01*
X138757020Y-91782097D01*
X138826242Y-91791569D01*
X138879356Y-91836964D01*
X138899497Y-91903868D01*
X138899500Y-91904712D01*
X138899500Y-95632102D01*
X138879815Y-95699141D01*
X138827011Y-95744896D01*
X138757853Y-95754840D01*
X138723097Y-95744485D01*
X138703096Y-95735159D01*
X138683663Y-95726097D01*
X138683659Y-95726096D01*
X138683655Y-95726094D01*
X138455413Y-95664938D01*
X138455403Y-95664936D01*
X138220001Y-95644341D01*
X138219999Y-95644341D01*
X137984596Y-95664936D01*
X137984586Y-95664938D01*
X137756593Y-95726028D01*
X137686743Y-95724365D01*
X137628881Y-95685202D01*
X137601377Y-95620974D01*
X137600500Y-95606253D01*
X137600500Y-93420943D01*
X137599776Y-93418242D01*
X137599776Y-93418213D01*
X137599769Y-93418216D01*
X137578216Y-93337777D01*
X137559577Y-93268216D01*
X137559573Y-93268209D01*
X137480524Y-93131290D01*
X137480521Y-93131286D01*
X137480520Y-93131284D01*
X137368716Y-93019480D01*
X137368715Y-93019479D01*
X137364385Y-93015149D01*
X137364374Y-93015139D01*
X135185811Y-90836576D01*
X135152326Y-90775253D01*
X135157310Y-90705561D01*
X135158064Y-90703593D01*
X135225334Y-90532195D01*
X135285383Y-90269103D01*
X135305549Y-90000000D01*
X135299484Y-89919072D01*
X135285389Y-89730973D01*
X135285383Y-89730897D01*
X135225334Y-89467805D01*
X135126743Y-89216602D01*
X134991815Y-88982898D01*
X134823561Y-88771915D01*
X134823560Y-88771914D01*
X134823557Y-88771910D01*
X134625741Y-88588365D01*
X134526851Y-88520943D01*
X134402775Y-88436349D01*
X134402769Y-88436346D01*
X134402768Y-88436345D01*
X134402767Y-88436344D01*
X134159643Y-88319263D01*
X134159645Y-88319263D01*
X133901773Y-88239720D01*
X133901767Y-88239718D01*
X133634936Y-88199500D01*
X133634929Y-88199500D01*
X133365071Y-88199500D01*
X133365063Y-88199500D01*
X133098232Y-88239718D01*
X133098226Y-88239720D01*
X132840358Y-88319262D01*
X132597230Y-88436346D01*
X132374258Y-88588365D01*
X132176442Y-88771910D01*
X132008185Y-88982898D01*
X131873258Y-89216599D01*
X131873256Y-89216603D01*
X131774666Y-89467804D01*
X131774664Y-89467811D01*
X131714616Y-89730898D01*
X131694451Y-89999995D01*
X131694451Y-90000004D01*
X131714616Y-90269101D01*
X131774664Y-90532188D01*
X131774666Y-90532195D01*
X131873256Y-90783396D01*
X131873258Y-90783400D01*
X131875674Y-90787584D01*
X132008185Y-91017102D01*
X132084958Y-91113372D01*
X132176442Y-91228089D01*
X132328003Y-91368716D01*
X132374259Y-91411635D01*
X132597226Y-91563651D01*
X132840359Y-91680738D01*
X133098228Y-91760280D01*
X133098229Y-91760280D01*
X133098232Y-91760281D01*
X133365063Y-91800499D01*
X133365068Y-91800499D01*
X133365071Y-91800500D01*
X133365072Y-91800500D01*
X133634928Y-91800500D01*
X133634929Y-91800500D01*
X133634936Y-91800499D01*
X133901767Y-91760281D01*
X133901768Y-91760280D01*
X133901772Y-91760280D01*
X134159641Y-91680738D01*
X134196370Y-91663049D01*
X134265309Y-91651696D01*
X134329444Y-91679417D01*
X134337853Y-91687088D01*
X136363181Y-93712416D01*
X136396666Y-93773739D01*
X136399500Y-93800097D01*
X136399500Y-95650755D01*
X136379815Y-95717794D01*
X136327011Y-95763549D01*
X136257853Y-95773493D01*
X136223095Y-95763137D01*
X136205302Y-95754840D01*
X136143663Y-95726097D01*
X136143659Y-95726096D01*
X136143655Y-95726094D01*
X135915413Y-95664938D01*
X135915403Y-95664936D01*
X135680001Y-95644341D01*
X135679996Y-95644341D01*
X135626576Y-95649014D01*
X135558076Y-95635247D01*
X135528089Y-95613167D01*
X130736819Y-90821897D01*
X130703334Y-90760574D01*
X130700500Y-90734216D01*
X130700500Y-88520945D01*
X130700500Y-88520943D01*
X130659577Y-88368216D01*
X130659577Y-88368215D01*
X130659577Y-88368214D01*
X130585390Y-88239720D01*
X130585389Y-88239718D01*
X130580520Y-88231284D01*
X130468716Y-88119480D01*
X130468715Y-88119479D01*
X130464385Y-88115149D01*
X130464374Y-88115139D01*
X125830700Y-83481465D01*
X125797215Y-83420142D01*
X125795163Y-83407686D01*
X125785368Y-83320745D01*
X125725789Y-83150478D01*
X125629816Y-82997738D01*
X125502262Y-82870184D01*
X125349523Y-82774211D01*
X125179254Y-82714631D01*
X125179249Y-82714630D01*
X125000004Y-82694435D01*
X124999996Y-82694435D01*
X124820750Y-82714630D01*
X124820745Y-82714631D01*
X124650476Y-82774211D01*
X124497737Y-82870184D01*
X124370184Y-82997737D01*
X124274211Y-83150476D01*
X124214631Y-83320745D01*
X124214630Y-83320750D01*
X124194435Y-83499996D01*
X107476075Y-83499996D01*
X107540074Y-73652135D01*
X111699500Y-73652135D01*
X111699500Y-76347870D01*
X111699501Y-76347876D01*
X111705908Y-76407483D01*
X111756202Y-76542328D01*
X111756206Y-76542335D01*
X111842452Y-76657544D01*
X111842455Y-76657547D01*
X111957664Y-76743793D01*
X111957671Y-76743797D01*
X112092517Y-76794091D01*
X112092516Y-76794091D01*
X112099444Y-76794835D01*
X112152127Y-76800500D01*
X114847872Y-76800499D01*
X114907483Y-76794091D01*
X115042331Y-76743796D01*
X115157546Y-76657546D01*
X115243796Y-76542331D01*
X115294091Y-76407483D01*
X115300500Y-76347873D01*
X115300499Y-74999995D01*
X116694953Y-74999995D01*
X116694953Y-75000004D01*
X116715113Y-75269026D01*
X116715113Y-75269028D01*
X116775142Y-75532033D01*
X116775148Y-75532052D01*
X116873709Y-75783181D01*
X116873708Y-75783181D01*
X117008602Y-76016822D01*
X117062294Y-76084151D01*
X117062295Y-76084151D01*
X117898958Y-75247488D01*
X117923978Y-75307890D01*
X117995112Y-75414351D01*
X118085649Y-75504888D01*
X118192110Y-75576022D01*
X118252510Y-75601041D01*
X117414848Y-76438702D01*
X117597483Y-76563220D01*
X117597485Y-76563221D01*
X117840539Y-76680269D01*
X117840537Y-76680269D01*
X118098337Y-76759790D01*
X118098343Y-76759792D01*
X118365101Y-76799999D01*
X118365110Y-76800000D01*
X118634890Y-76800000D01*
X118634898Y-76799999D01*
X118901656Y-76759792D01*
X118901662Y-76759790D01*
X119159461Y-76680269D01*
X119402521Y-76563218D01*
X119585150Y-76438702D01*
X118747488Y-75601041D01*
X118807890Y-75576022D01*
X118914351Y-75504888D01*
X119004888Y-75414351D01*
X119076022Y-75307890D01*
X119101041Y-75247488D01*
X119937703Y-76084151D01*
X119937704Y-76084150D01*
X119991393Y-76016828D01*
X119991400Y-76016817D01*
X120126290Y-75783181D01*
X120224851Y-75532052D01*
X120224857Y-75532033D01*
X120284886Y-75269028D01*
X120284886Y-75269026D01*
X120305047Y-75000004D01*
X120305047Y-74999995D01*
X121694451Y-74999995D01*
X121694451Y-75000004D01*
X121714616Y-75269101D01*
X121774664Y-75532188D01*
X121774666Y-75532195D01*
X121820901Y-75650000D01*
X121873257Y-75783398D01*
X122008185Y-76017102D01*
X122061655Y-76084151D01*
X122176442Y-76228089D01*
X122363183Y-76401358D01*
X122374259Y-76411635D01*
X122597226Y-76563651D01*
X122840359Y-76680738D01*
X123098228Y-76760280D01*
X123098229Y-76760280D01*
X123098232Y-76760281D01*
X123365063Y-76800499D01*
X123365068Y-76800499D01*
X123365071Y-76800500D01*
X123365072Y-76800500D01*
X123634928Y-76800500D01*
X123634929Y-76800500D01*
X123634936Y-76800499D01*
X123901767Y-76760281D01*
X123901768Y-76760280D01*
X123901772Y-76760280D01*
X124159641Y-76680738D01*
X124402775Y-76563651D01*
X124625741Y-76411635D01*
X124823561Y-76228085D01*
X124991815Y-76017102D01*
X125126743Y-75783398D01*
X125225334Y-75532195D01*
X125285383Y-75269103D01*
X125305549Y-75000000D01*
X125305549Y-74999995D01*
X126694451Y-74999995D01*
X126694451Y-75000004D01*
X126714616Y-75269101D01*
X126774664Y-75532188D01*
X126774666Y-75532195D01*
X126820901Y-75650000D01*
X126873257Y-75783398D01*
X127008185Y-76017102D01*
X127061655Y-76084151D01*
X127176442Y-76228089D01*
X127363183Y-76401358D01*
X127374259Y-76411635D01*
X127597226Y-76563651D01*
X127840359Y-76680738D01*
X128098228Y-76760280D01*
X128098229Y-76760280D01*
X128098232Y-76760281D01*
X128365063Y-76800499D01*
X128365068Y-76800499D01*
X128365071Y-76800500D01*
X128365072Y-76800500D01*
X128634928Y-76800500D01*
X128634929Y-76800500D01*
X128634936Y-76800499D01*
X128901767Y-76760281D01*
X128901768Y-76760280D01*
X128901772Y-76760280D01*
X129159641Y-76680738D01*
X129402775Y-76563651D01*
X129625741Y-76411635D01*
X129823561Y-76228085D01*
X129991815Y-76017102D01*
X130126743Y-75783398D01*
X130225334Y-75532195D01*
X130285383Y-75269103D01*
X130305549Y-75000000D01*
X130305549Y-74999995D01*
X131694451Y-74999995D01*
X131694451Y-75000004D01*
X131714616Y-75269101D01*
X131774664Y-75532188D01*
X131774666Y-75532195D01*
X131820901Y-75650000D01*
X131873257Y-75783398D01*
X132008185Y-76017102D01*
X132061655Y-76084151D01*
X132176442Y-76228089D01*
X132363183Y-76401358D01*
X132374259Y-76411635D01*
X132597226Y-76563651D01*
X132840359Y-76680738D01*
X133098228Y-76760280D01*
X133098229Y-76760280D01*
X133098232Y-76760281D01*
X133365063Y-76800499D01*
X133365068Y-76800499D01*
X133365071Y-76800500D01*
X133365072Y-76800500D01*
X133634928Y-76800500D01*
X133634929Y-76800500D01*
X133634936Y-76800499D01*
X133901767Y-76760281D01*
X133901768Y-76760280D01*
X133901772Y-76760280D01*
X134159641Y-76680738D01*
X134402775Y-76563651D01*
X134625741Y-76411635D01*
X134823561Y-76228085D01*
X134991815Y-76017102D01*
X135126743Y-75783398D01*
X135225334Y-75532195D01*
X135285383Y-75269103D01*
X135305549Y-75000000D01*
X135305549Y-74999995D01*
X136694451Y-74999995D01*
X136694451Y-75000004D01*
X136714616Y-75269101D01*
X136774664Y-75532188D01*
X136774666Y-75532195D01*
X136820901Y-75650000D01*
X136873257Y-75783398D01*
X137008185Y-76017102D01*
X137061655Y-76084151D01*
X137176442Y-76228089D01*
X137363183Y-76401358D01*
X137374259Y-76411635D01*
X137597226Y-76563651D01*
X137840359Y-76680738D01*
X138098228Y-76760280D01*
X138098229Y-76760280D01*
X138098232Y-76760281D01*
X138365063Y-76800499D01*
X138365068Y-76800499D01*
X138365071Y-76800500D01*
X138365072Y-76800500D01*
X138634928Y-76800500D01*
X138634929Y-76800500D01*
X138634936Y-76800499D01*
X138901767Y-76760281D01*
X138901768Y-76760280D01*
X138901772Y-76760280D01*
X139159641Y-76680738D01*
X139402775Y-76563651D01*
X139625741Y-76411635D01*
X139823561Y-76228085D01*
X139991815Y-76017102D01*
X140126743Y-75783398D01*
X140225334Y-75532195D01*
X140285383Y-75269103D01*
X140305549Y-75000000D01*
X140305549Y-74999995D01*
X141694451Y-74999995D01*
X141694451Y-75000004D01*
X141714616Y-75269101D01*
X141774664Y-75532188D01*
X141774666Y-75532195D01*
X141820901Y-75650000D01*
X141873257Y-75783398D01*
X142008185Y-76017102D01*
X142061655Y-76084151D01*
X142176442Y-76228089D01*
X142363183Y-76401358D01*
X142374259Y-76411635D01*
X142597226Y-76563651D01*
X142840359Y-76680738D01*
X143098228Y-76760280D01*
X143098229Y-76760280D01*
X143098232Y-76760281D01*
X143365063Y-76800499D01*
X143365068Y-76800499D01*
X143365071Y-76800500D01*
X143365072Y-76800500D01*
X143634928Y-76800500D01*
X143634929Y-76800500D01*
X143634936Y-76800499D01*
X143901767Y-76760281D01*
X143901768Y-76760280D01*
X143901772Y-76760280D01*
X144159641Y-76680738D01*
X144402775Y-76563651D01*
X144625741Y-76411635D01*
X144823561Y-76228085D01*
X144991815Y-76017102D01*
X145126743Y-75783398D01*
X145225334Y-75532195D01*
X145285383Y-75269103D01*
X145305549Y-75000000D01*
X145305549Y-74999995D01*
X146694451Y-74999995D01*
X146694451Y-75000004D01*
X146714616Y-75269101D01*
X146774664Y-75532188D01*
X146774666Y-75532195D01*
X146820901Y-75650000D01*
X146873257Y-75783398D01*
X147008185Y-76017102D01*
X147061655Y-76084151D01*
X147176442Y-76228089D01*
X147363183Y-76401358D01*
X147374259Y-76411635D01*
X147597226Y-76563651D01*
X147840359Y-76680738D01*
X148098228Y-76760280D01*
X148098229Y-76760280D01*
X148098232Y-76760281D01*
X148365063Y-76800499D01*
X148365068Y-76800499D01*
X148365071Y-76800500D01*
X148365072Y-76800500D01*
X148634928Y-76800500D01*
X148634929Y-76800500D01*
X148634936Y-76800499D01*
X148901767Y-76760281D01*
X148901768Y-76760280D01*
X148901772Y-76760280D01*
X149159641Y-76680738D01*
X149402775Y-76563651D01*
X149625741Y-76411635D01*
X149823561Y-76228085D01*
X149991815Y-76017102D01*
X150126743Y-75783398D01*
X150225334Y-75532195D01*
X150285383Y-75269103D01*
X150305549Y-75000000D01*
X150305549Y-74999995D01*
X151694451Y-74999995D01*
X151694451Y-75000004D01*
X151714616Y-75269101D01*
X151774664Y-75532188D01*
X151774666Y-75532195D01*
X151820901Y-75650000D01*
X151873257Y-75783398D01*
X152008185Y-76017102D01*
X152061655Y-76084151D01*
X152176442Y-76228089D01*
X152363183Y-76401358D01*
X152374259Y-76411635D01*
X152597226Y-76563651D01*
X152840359Y-76680738D01*
X153098228Y-76760280D01*
X153098229Y-76760280D01*
X153098232Y-76760281D01*
X153365063Y-76800499D01*
X153365068Y-76800499D01*
X153365071Y-76800500D01*
X153365072Y-76800500D01*
X153634928Y-76800500D01*
X153634929Y-76800500D01*
X153634936Y-76800499D01*
X153901767Y-76760281D01*
X153901768Y-76760280D01*
X153901772Y-76760280D01*
X154159641Y-76680738D01*
X154402775Y-76563651D01*
X154625741Y-76411635D01*
X154823561Y-76228085D01*
X154991815Y-76017102D01*
X155126743Y-75783398D01*
X155225334Y-75532195D01*
X155285383Y-75269103D01*
X155305549Y-75000000D01*
X155305549Y-74999995D01*
X156694451Y-74999995D01*
X156694451Y-75000004D01*
X156714616Y-75269101D01*
X156774664Y-75532188D01*
X156774666Y-75532195D01*
X156820901Y-75650000D01*
X156873257Y-75783398D01*
X157008185Y-76017102D01*
X157061655Y-76084151D01*
X157176442Y-76228089D01*
X157363183Y-76401358D01*
X157374259Y-76411635D01*
X157597226Y-76563651D01*
X157840359Y-76680738D01*
X158098228Y-76760280D01*
X158098229Y-76760280D01*
X158098232Y-76760281D01*
X158365063Y-76800499D01*
X158365068Y-76800499D01*
X158365071Y-76800500D01*
X158365072Y-76800500D01*
X158634928Y-76800500D01*
X158634929Y-76800500D01*
X158634936Y-76800499D01*
X158901767Y-76760281D01*
X158901768Y-76760280D01*
X158901772Y-76760280D01*
X159159641Y-76680738D01*
X159402775Y-76563651D01*
X159625741Y-76411635D01*
X159823561Y-76228085D01*
X159991815Y-76017102D01*
X160126743Y-75783398D01*
X160225334Y-75532195D01*
X160285383Y-75269103D01*
X160305549Y-75000000D01*
X160305549Y-74999995D01*
X161694451Y-74999995D01*
X161694451Y-75000004D01*
X161714616Y-75269101D01*
X161774664Y-75532188D01*
X161774666Y-75532195D01*
X161820901Y-75650000D01*
X161873257Y-75783398D01*
X162008185Y-76017102D01*
X162061655Y-76084151D01*
X162176442Y-76228089D01*
X162363183Y-76401358D01*
X162374259Y-76411635D01*
X162597226Y-76563651D01*
X162840359Y-76680738D01*
X163098228Y-76760280D01*
X163098229Y-76760280D01*
X163098232Y-76760281D01*
X163365063Y-76800499D01*
X163365068Y-76800499D01*
X163365071Y-76800500D01*
X163365072Y-76800500D01*
X163634928Y-76800500D01*
X163634929Y-76800500D01*
X163634936Y-76800499D01*
X163901767Y-76760281D01*
X163901768Y-76760280D01*
X163901772Y-76760280D01*
X164159641Y-76680738D01*
X164402775Y-76563651D01*
X164625741Y-76411635D01*
X164823561Y-76228085D01*
X164991815Y-76017102D01*
X165126743Y-75783398D01*
X165225334Y-75532195D01*
X165285383Y-75269103D01*
X165305549Y-75000000D01*
X165305549Y-74999995D01*
X166694451Y-74999995D01*
X166694451Y-75000004D01*
X166714616Y-75269101D01*
X166774664Y-75532188D01*
X166774666Y-75532195D01*
X166820901Y-75650000D01*
X166873257Y-75783398D01*
X167008185Y-76017102D01*
X167061655Y-76084151D01*
X167176442Y-76228089D01*
X167363183Y-76401358D01*
X167374259Y-76411635D01*
X167597226Y-76563651D01*
X167840359Y-76680738D01*
X168098228Y-76760280D01*
X168098229Y-76760280D01*
X168098232Y-76760281D01*
X168365063Y-76800499D01*
X168365068Y-76800499D01*
X168365071Y-76800500D01*
X168365072Y-76800500D01*
X168634928Y-76800500D01*
X168634929Y-76800500D01*
X168634936Y-76800499D01*
X168901767Y-76760281D01*
X168901768Y-76760280D01*
X168901772Y-76760280D01*
X169159641Y-76680738D01*
X169402775Y-76563651D01*
X169625741Y-76411635D01*
X169823561Y-76228085D01*
X169991815Y-76017102D01*
X170126743Y-75783398D01*
X170225334Y-75532195D01*
X170285383Y-75269103D01*
X170305549Y-75000000D01*
X170305549Y-74999995D01*
X171694451Y-74999995D01*
X171694451Y-75000004D01*
X171714616Y-75269101D01*
X171774664Y-75532188D01*
X171774666Y-75532195D01*
X171820901Y-75650000D01*
X171873257Y-75783398D01*
X172008185Y-76017102D01*
X172061655Y-76084151D01*
X172176442Y-76228089D01*
X172363183Y-76401358D01*
X172374259Y-76411635D01*
X172597226Y-76563651D01*
X172840359Y-76680738D01*
X173098228Y-76760280D01*
X173098229Y-76760280D01*
X173098232Y-76760281D01*
X173365063Y-76800499D01*
X173365068Y-76800499D01*
X173365071Y-76800500D01*
X173365072Y-76800500D01*
X173634928Y-76800500D01*
X173634929Y-76800500D01*
X173634936Y-76800499D01*
X173901767Y-76760281D01*
X173901768Y-76760280D01*
X173901772Y-76760280D01*
X174159641Y-76680738D01*
X174402775Y-76563651D01*
X174625741Y-76411635D01*
X174823561Y-76228085D01*
X174991815Y-76017102D01*
X175126743Y-75783398D01*
X175225334Y-75532195D01*
X175285383Y-75269103D01*
X175305549Y-75000000D01*
X175305549Y-74999995D01*
X176694451Y-74999995D01*
X176694451Y-75000004D01*
X176714616Y-75269101D01*
X176774664Y-75532188D01*
X176774666Y-75532195D01*
X176820901Y-75650000D01*
X176873257Y-75783398D01*
X177008185Y-76017102D01*
X177061655Y-76084151D01*
X177176442Y-76228089D01*
X177363183Y-76401358D01*
X177374259Y-76411635D01*
X177597226Y-76563651D01*
X177840359Y-76680738D01*
X178098228Y-76760280D01*
X178098229Y-76760280D01*
X178098232Y-76760281D01*
X178365063Y-76800499D01*
X178365068Y-76800499D01*
X178365071Y-76800500D01*
X178365072Y-76800500D01*
X178634928Y-76800500D01*
X178634929Y-76800500D01*
X178634936Y-76800499D01*
X178901767Y-76760281D01*
X178901768Y-76760280D01*
X178901772Y-76760280D01*
X179159641Y-76680738D01*
X179402775Y-76563651D01*
X179625741Y-76411635D01*
X179823561Y-76228085D01*
X179991815Y-76017102D01*
X180126743Y-75783398D01*
X180225334Y-75532195D01*
X180285383Y-75269103D01*
X180305549Y-75000000D01*
X180305549Y-74999995D01*
X181694451Y-74999995D01*
X181694451Y-75000004D01*
X181714616Y-75269101D01*
X181774664Y-75532188D01*
X181774666Y-75532195D01*
X181820901Y-75650000D01*
X181873257Y-75783398D01*
X182008185Y-76017102D01*
X182061655Y-76084151D01*
X182176442Y-76228089D01*
X182363183Y-76401358D01*
X182374259Y-76411635D01*
X182597226Y-76563651D01*
X182840359Y-76680738D01*
X183098228Y-76760280D01*
X183098229Y-76760280D01*
X183098232Y-76760281D01*
X183365063Y-76800499D01*
X183365068Y-76800499D01*
X183365071Y-76800500D01*
X183365072Y-76800500D01*
X183634928Y-76800500D01*
X183634929Y-76800500D01*
X183634936Y-76800499D01*
X183901767Y-76760281D01*
X183901768Y-76760280D01*
X183901772Y-76760280D01*
X184159641Y-76680738D01*
X184402775Y-76563651D01*
X184625741Y-76411635D01*
X184823561Y-76228085D01*
X184991815Y-76017102D01*
X185126743Y-75783398D01*
X185225334Y-75532195D01*
X185285383Y-75269103D01*
X185305549Y-75000000D01*
X185285383Y-74730897D01*
X185225334Y-74467805D01*
X185126743Y-74216602D01*
X184991815Y-73982898D01*
X184823561Y-73771915D01*
X184823560Y-73771914D01*
X184823557Y-73771910D01*
X184625741Y-73588365D01*
X184586038Y-73561296D01*
X184402775Y-73436349D01*
X184402769Y-73436346D01*
X184402768Y-73436345D01*
X184402767Y-73436344D01*
X184159643Y-73319263D01*
X184159645Y-73319263D01*
X183901773Y-73239720D01*
X183901767Y-73239718D01*
X183634936Y-73199500D01*
X183634929Y-73199500D01*
X183365071Y-73199500D01*
X183365063Y-73199500D01*
X183098232Y-73239718D01*
X183098226Y-73239720D01*
X182840358Y-73319262D01*
X182597230Y-73436346D01*
X182374258Y-73588365D01*
X182176442Y-73771910D01*
X182008185Y-73982898D01*
X181873258Y-74216599D01*
X181873256Y-74216603D01*
X181774666Y-74467804D01*
X181774664Y-74467811D01*
X181714616Y-74730898D01*
X181694451Y-74999995D01*
X180305549Y-74999995D01*
X180285383Y-74730897D01*
X180225334Y-74467805D01*
X180126743Y-74216602D01*
X179991815Y-73982898D01*
X179823561Y-73771915D01*
X179823560Y-73771914D01*
X179823557Y-73771910D01*
X179625741Y-73588365D01*
X179586038Y-73561296D01*
X179402775Y-73436349D01*
X179402769Y-73436346D01*
X179402768Y-73436345D01*
X179402767Y-73436344D01*
X179159643Y-73319263D01*
X179159645Y-73319263D01*
X178901773Y-73239720D01*
X178901767Y-73239718D01*
X178634936Y-73199500D01*
X178634929Y-73199500D01*
X178365071Y-73199500D01*
X178365063Y-73199500D01*
X178098232Y-73239718D01*
X178098226Y-73239720D01*
X177840358Y-73319262D01*
X177597230Y-73436346D01*
X177374258Y-73588365D01*
X177176442Y-73771910D01*
X177008185Y-73982898D01*
X176873258Y-74216599D01*
X176873256Y-74216603D01*
X176774666Y-74467804D01*
X176774664Y-74467811D01*
X176714616Y-74730898D01*
X176694451Y-74999995D01*
X175305549Y-74999995D01*
X175285383Y-74730897D01*
X175225334Y-74467805D01*
X175126743Y-74216602D01*
X174991815Y-73982898D01*
X174823561Y-73771915D01*
X174823560Y-73771914D01*
X174823557Y-73771910D01*
X174625741Y-73588365D01*
X174586038Y-73561296D01*
X174402775Y-73436349D01*
X174402769Y-73436346D01*
X174402768Y-73436345D01*
X174402767Y-73436344D01*
X174159643Y-73319263D01*
X174159645Y-73319263D01*
X173901773Y-73239720D01*
X173901767Y-73239718D01*
X173634936Y-73199500D01*
X173634929Y-73199500D01*
X173365071Y-73199500D01*
X173365063Y-73199500D01*
X173098232Y-73239718D01*
X173098226Y-73239720D01*
X172840358Y-73319262D01*
X172597230Y-73436346D01*
X172374258Y-73588365D01*
X172176442Y-73771910D01*
X172008185Y-73982898D01*
X171873258Y-74216599D01*
X171873256Y-74216603D01*
X171774666Y-74467804D01*
X171774664Y-74467811D01*
X171714616Y-74730898D01*
X171694451Y-74999995D01*
X170305549Y-74999995D01*
X170285383Y-74730897D01*
X170225334Y-74467805D01*
X170126743Y-74216602D01*
X169991815Y-73982898D01*
X169823561Y-73771915D01*
X169823560Y-73771914D01*
X169823557Y-73771910D01*
X169625741Y-73588365D01*
X169586038Y-73561296D01*
X169402775Y-73436349D01*
X169402769Y-73436346D01*
X169402768Y-73436345D01*
X169402767Y-73436344D01*
X169159643Y-73319263D01*
X169159645Y-73319263D01*
X168901773Y-73239720D01*
X168901767Y-73239718D01*
X168634936Y-73199500D01*
X168634929Y-73199500D01*
X168365071Y-73199500D01*
X168365063Y-73199500D01*
X168098232Y-73239718D01*
X168098226Y-73239720D01*
X167840358Y-73319262D01*
X167597230Y-73436346D01*
X167374258Y-73588365D01*
X167176442Y-73771910D01*
X167008185Y-73982898D01*
X166873258Y-74216599D01*
X166873256Y-74216603D01*
X166774666Y-74467804D01*
X166774664Y-74467811D01*
X166714616Y-74730898D01*
X166694451Y-74999995D01*
X165305549Y-74999995D01*
X165285383Y-74730897D01*
X165225334Y-74467805D01*
X165126743Y-74216602D01*
X164991815Y-73982898D01*
X164823561Y-73771915D01*
X164823560Y-73771914D01*
X164823557Y-73771910D01*
X164625741Y-73588365D01*
X164586038Y-73561296D01*
X164402775Y-73436349D01*
X164402769Y-73436346D01*
X164402768Y-73436345D01*
X164402767Y-73436344D01*
X164159643Y-73319263D01*
X164159645Y-73319263D01*
X163901773Y-73239720D01*
X163901767Y-73239718D01*
X163634936Y-73199500D01*
X163634929Y-73199500D01*
X163365071Y-73199500D01*
X163365063Y-73199500D01*
X163098232Y-73239718D01*
X163098226Y-73239720D01*
X162840358Y-73319262D01*
X162597230Y-73436346D01*
X162374258Y-73588365D01*
X162176442Y-73771910D01*
X162008185Y-73982898D01*
X161873258Y-74216599D01*
X161873256Y-74216603D01*
X161774666Y-74467804D01*
X161774664Y-74467811D01*
X161714616Y-74730898D01*
X161694451Y-74999995D01*
X160305549Y-74999995D01*
X160285383Y-74730897D01*
X160225334Y-74467805D01*
X160126743Y-74216602D01*
X159991815Y-73982898D01*
X159823561Y-73771915D01*
X159823560Y-73771914D01*
X159823557Y-73771910D01*
X159625741Y-73588365D01*
X159586038Y-73561296D01*
X159402775Y-73436349D01*
X159402769Y-73436346D01*
X159402768Y-73436345D01*
X159402767Y-73436344D01*
X159159643Y-73319263D01*
X159159645Y-73319263D01*
X158901773Y-73239720D01*
X158901767Y-73239718D01*
X158634936Y-73199500D01*
X158634929Y-73199500D01*
X158365071Y-73199500D01*
X158365063Y-73199500D01*
X158098232Y-73239718D01*
X158098226Y-73239720D01*
X157840358Y-73319262D01*
X157597230Y-73436346D01*
X157374258Y-73588365D01*
X157176442Y-73771910D01*
X157008185Y-73982898D01*
X156873258Y-74216599D01*
X156873256Y-74216603D01*
X156774666Y-74467804D01*
X156774664Y-74467811D01*
X156714616Y-74730898D01*
X156694451Y-74999995D01*
X155305549Y-74999995D01*
X155285383Y-74730897D01*
X155225334Y-74467805D01*
X155126743Y-74216602D01*
X154991815Y-73982898D01*
X154823561Y-73771915D01*
X154823560Y-73771914D01*
X154823557Y-73771910D01*
X154625741Y-73588365D01*
X154586038Y-73561296D01*
X154402775Y-73436349D01*
X154402769Y-73436346D01*
X154402768Y-73436345D01*
X154402767Y-73436344D01*
X154159643Y-73319263D01*
X154159645Y-73319263D01*
X153901773Y-73239720D01*
X153901767Y-73239718D01*
X153634936Y-73199500D01*
X153634929Y-73199500D01*
X153365071Y-73199500D01*
X153365063Y-73199500D01*
X153098232Y-73239718D01*
X153098226Y-73239720D01*
X152840358Y-73319262D01*
X152597230Y-73436346D01*
X152374258Y-73588365D01*
X152176442Y-73771910D01*
X152008185Y-73982898D01*
X151873258Y-74216599D01*
X151873256Y-74216603D01*
X151774666Y-74467804D01*
X151774664Y-74467811D01*
X151714616Y-74730898D01*
X151694451Y-74999995D01*
X150305549Y-74999995D01*
X150285383Y-74730897D01*
X150225334Y-74467805D01*
X150126743Y-74216602D01*
X149991815Y-73982898D01*
X149823561Y-73771915D01*
X149823560Y-73771914D01*
X149823557Y-73771910D01*
X149625741Y-73588365D01*
X149586038Y-73561296D01*
X149402775Y-73436349D01*
X149402769Y-73436346D01*
X149402768Y-73436345D01*
X149402767Y-73436344D01*
X149159643Y-73319263D01*
X149159645Y-73319263D01*
X148901773Y-73239720D01*
X148901767Y-73239718D01*
X148634936Y-73199500D01*
X148634929Y-73199500D01*
X148365071Y-73199500D01*
X148365063Y-73199500D01*
X148098232Y-73239718D01*
X148098226Y-73239720D01*
X147840358Y-73319262D01*
X147597230Y-73436346D01*
X147374258Y-73588365D01*
X147176442Y-73771910D01*
X147008185Y-73982898D01*
X146873258Y-74216599D01*
X146873256Y-74216603D01*
X146774666Y-74467804D01*
X146774664Y-74467811D01*
X146714616Y-74730898D01*
X146694451Y-74999995D01*
X145305549Y-74999995D01*
X145285383Y-74730897D01*
X145225334Y-74467805D01*
X145126743Y-74216602D01*
X144991815Y-73982898D01*
X144823561Y-73771915D01*
X144823560Y-73771914D01*
X144823557Y-73771910D01*
X144625741Y-73588365D01*
X144586038Y-73561296D01*
X144402775Y-73436349D01*
X144402769Y-73436346D01*
X144402768Y-73436345D01*
X144402767Y-73436344D01*
X144159643Y-73319263D01*
X144159645Y-73319263D01*
X143901773Y-73239720D01*
X143901767Y-73239718D01*
X143634936Y-73199500D01*
X143634929Y-73199500D01*
X143365071Y-73199500D01*
X143365063Y-73199500D01*
X143098232Y-73239718D01*
X143098226Y-73239720D01*
X142840358Y-73319262D01*
X142597230Y-73436346D01*
X142374258Y-73588365D01*
X142176442Y-73771910D01*
X142008185Y-73982898D01*
X141873258Y-74216599D01*
X141873256Y-74216603D01*
X141774666Y-74467804D01*
X141774664Y-74467811D01*
X141714616Y-74730898D01*
X141694451Y-74999995D01*
X140305549Y-74999995D01*
X140285383Y-74730897D01*
X140225334Y-74467805D01*
X140126743Y-74216602D01*
X139991815Y-73982898D01*
X139823561Y-73771915D01*
X139823560Y-73771914D01*
X139823557Y-73771910D01*
X139625741Y-73588365D01*
X139586038Y-73561296D01*
X139402775Y-73436349D01*
X139402769Y-73436346D01*
X139402768Y-73436345D01*
X139402767Y-73436344D01*
X139159643Y-73319263D01*
X139159645Y-73319263D01*
X138901773Y-73239720D01*
X138901767Y-73239718D01*
X138634936Y-73199500D01*
X138634929Y-73199500D01*
X138365071Y-73199500D01*
X138365063Y-73199500D01*
X138098232Y-73239718D01*
X138098226Y-73239720D01*
X137840358Y-73319262D01*
X137597230Y-73436346D01*
X137374258Y-73588365D01*
X137176442Y-73771910D01*
X137008185Y-73982898D01*
X136873258Y-74216599D01*
X136873256Y-74216603D01*
X136774666Y-74467804D01*
X136774664Y-74467811D01*
X136714616Y-74730898D01*
X136694451Y-74999995D01*
X135305549Y-74999995D01*
X135285383Y-74730897D01*
X135225334Y-74467805D01*
X135126743Y-74216602D01*
X134991815Y-73982898D01*
X134823561Y-73771915D01*
X134823560Y-73771914D01*
X134823557Y-73771910D01*
X134625741Y-73588365D01*
X134586038Y-73561296D01*
X134402775Y-73436349D01*
X134402769Y-73436346D01*
X134402768Y-73436345D01*
X134402767Y-73436344D01*
X134159643Y-73319263D01*
X134159645Y-73319263D01*
X133901773Y-73239720D01*
X133901767Y-73239718D01*
X133634936Y-73199500D01*
X133634929Y-73199500D01*
X133365071Y-73199500D01*
X133365063Y-73199500D01*
X133098232Y-73239718D01*
X133098226Y-73239720D01*
X132840358Y-73319262D01*
X132597230Y-73436346D01*
X132374258Y-73588365D01*
X132176442Y-73771910D01*
X132008185Y-73982898D01*
X131873258Y-74216599D01*
X131873256Y-74216603D01*
X131774666Y-74467804D01*
X131774664Y-74467811D01*
X131714616Y-74730898D01*
X131694451Y-74999995D01*
X130305549Y-74999995D01*
X130285383Y-74730897D01*
X130225334Y-74467805D01*
X130126743Y-74216602D01*
X129991815Y-73982898D01*
X129823561Y-73771915D01*
X129823560Y-73771914D01*
X129823557Y-73771910D01*
X129625741Y-73588365D01*
X129586038Y-73561296D01*
X129402775Y-73436349D01*
X129402769Y-73436346D01*
X129402768Y-73436345D01*
X129402767Y-73436344D01*
X129159643Y-73319263D01*
X129159645Y-73319263D01*
X128901773Y-73239720D01*
X128901767Y-73239718D01*
X128634936Y-73199500D01*
X128634929Y-73199500D01*
X128365071Y-73199500D01*
X128365063Y-73199500D01*
X128098232Y-73239718D01*
X128098226Y-73239720D01*
X127840358Y-73319262D01*
X127597230Y-73436346D01*
X127374258Y-73588365D01*
X127176442Y-73771910D01*
X127008185Y-73982898D01*
X126873258Y-74216599D01*
X126873256Y-74216603D01*
X126774666Y-74467804D01*
X126774664Y-74467811D01*
X126714616Y-74730898D01*
X126694451Y-74999995D01*
X125305549Y-74999995D01*
X125285383Y-74730897D01*
X125225334Y-74467805D01*
X125126743Y-74216602D01*
X124991815Y-73982898D01*
X124823561Y-73771915D01*
X124823560Y-73771914D01*
X124823557Y-73771910D01*
X124625741Y-73588365D01*
X124586038Y-73561296D01*
X124402775Y-73436349D01*
X124402769Y-73436346D01*
X124402768Y-73436345D01*
X124402767Y-73436344D01*
X124159643Y-73319263D01*
X124159645Y-73319263D01*
X123901773Y-73239720D01*
X123901767Y-73239718D01*
X123634936Y-73199500D01*
X123634929Y-73199500D01*
X123365071Y-73199500D01*
X123365063Y-73199500D01*
X123098232Y-73239718D01*
X123098226Y-73239720D01*
X122840358Y-73319262D01*
X122597230Y-73436346D01*
X122374258Y-73588365D01*
X122176442Y-73771910D01*
X122008185Y-73982898D01*
X121873258Y-74216599D01*
X121873256Y-74216603D01*
X121774666Y-74467804D01*
X121774664Y-74467811D01*
X121714616Y-74730898D01*
X121694451Y-74999995D01*
X120305047Y-74999995D01*
X120284886Y-74730973D01*
X120284886Y-74730971D01*
X120224857Y-74467966D01*
X120224851Y-74467947D01*
X120126290Y-74216818D01*
X120126291Y-74216818D01*
X119991397Y-73983177D01*
X119937704Y-73915847D01*
X119101041Y-74752510D01*
X119076022Y-74692110D01*
X119004888Y-74585649D01*
X118914351Y-74495112D01*
X118807890Y-74423978D01*
X118747488Y-74398958D01*
X119585150Y-73561296D01*
X119402517Y-73436779D01*
X119402516Y-73436778D01*
X119159460Y-73319730D01*
X119159462Y-73319730D01*
X118901662Y-73240209D01*
X118901656Y-73240207D01*
X118634898Y-73200000D01*
X118365101Y-73200000D01*
X118098343Y-73240207D01*
X118098337Y-73240209D01*
X117840538Y-73319730D01*
X117597485Y-73436778D01*
X117597476Y-73436783D01*
X117414848Y-73561296D01*
X118252511Y-74398958D01*
X118192110Y-74423978D01*
X118085649Y-74495112D01*
X117995112Y-74585649D01*
X117923978Y-74692110D01*
X117898958Y-74752511D01*
X117062295Y-73915848D01*
X117008600Y-73983180D01*
X116873709Y-74216818D01*
X116775148Y-74467947D01*
X116775142Y-74467966D01*
X116715113Y-74730971D01*
X116715113Y-74730973D01*
X116694953Y-74999995D01*
X115300499Y-74999995D01*
X115300499Y-73652128D01*
X115294091Y-73592517D01*
X115292542Y-73588365D01*
X115243797Y-73457671D01*
X115243793Y-73457664D01*
X115157547Y-73342455D01*
X115157544Y-73342452D01*
X115042335Y-73256206D01*
X115042328Y-73256202D01*
X114907482Y-73205908D01*
X114907483Y-73205908D01*
X114847883Y-73199501D01*
X114847881Y-73199500D01*
X114847873Y-73199500D01*
X114847864Y-73199500D01*
X112152129Y-73199500D01*
X112152123Y-73199501D01*
X112092516Y-73205908D01*
X111957671Y-73256202D01*
X111957664Y-73256206D01*
X111842455Y-73342452D01*
X111842452Y-73342455D01*
X111756206Y-73457664D01*
X111756202Y-73457671D01*
X111705908Y-73592517D01*
X111699501Y-73652116D01*
X111699501Y-73652123D01*
X111699500Y-73652135D01*
X107540074Y-73652135D01*
X107541719Y-73399073D01*
X107553408Y-73347319D01*
X107670281Y-73097617D01*
X107674742Y-73088986D01*
X107866743Y-72750961D01*
X107871886Y-72742684D01*
X108089886Y-72420843D01*
X108095674Y-72412985D01*
X108338329Y-72109311D01*
X108344698Y-72101954D01*
X108610527Y-71818302D01*
X108617461Y-71811465D01*
X108904780Y-71549633D01*
X108912223Y-71543367D01*
X109219286Y-71304948D01*
X109227192Y-71299295D01*
X109552065Y-71085791D01*
X109560390Y-71080778D01*
X109901049Y-70893520D01*
X109909767Y-70889166D01*
X110264109Y-70729306D01*
X110273145Y-70725651D01*
X110638975Y-70594181D01*
X110648222Y-70591263D01*
X110965080Y-70504866D01*
X110997694Y-70500500D01*
X112926244Y-70500500D01*
X112931641Y-70500840D01*
X112936560Y-70500815D01*
X112936565Y-70500817D01*
X113000732Y-70500502D01*
X113000966Y-70500501D01*
X113001573Y-70500500D01*
X113070819Y-70500500D01*
X113076225Y-70500131D01*
X185328339Y-70145600D01*
X185361555Y-70149966D01*
G37*
%TD.AperFunction*%
%TD*%
M02*
