%TF.GenerationSoftware,KiCad,Pcbnew,8.0.5*%
%TF.CreationDate,2025-02-15T20:25:57+11:00*%
%TF.ProjectId,hello_world,68656c6c-6f5f-4776-9f72-6c642e6b6963,1*%
%TF.SameCoordinates,Original*%
%TF.FileFunction,Copper,L1,Top*%
%TF.FilePolarity,Positive*%
%FSLAX46Y46*%
G04 Gerber Fmt 4.6, Leading zero omitted, Abs format (unit mm)*
G04 Created by KiCad (PCBNEW 8.0.5) date 2025-02-15 20:25:57*
%MOMM*%
%LPD*%
G01*
G04 APERTURE LIST*
%TA.AperFunction,ComponentPad*%
%ADD10R,1.700000X1.700000*%
%TD*%
%TA.AperFunction,ComponentPad*%
%ADD11O,1.700000X1.700000*%
%TD*%
%TA.AperFunction,ComponentPad*%
%ADD12C,0.800000*%
%TD*%
%TA.AperFunction,ComponentPad*%
%ADD13C,5.000000*%
%TD*%
%TA.AperFunction,ComponentPad*%
%ADD14R,2.600000X2.600000*%
%TD*%
%TA.AperFunction,ComponentPad*%
%ADD15C,2.600000*%
%TD*%
%TA.AperFunction,ComponentPad*%
%ADD16R,1.524000X1.524000*%
%TD*%
%TA.AperFunction,ComponentPad*%
%ADD17C,1.524000*%
%TD*%
%TA.AperFunction,ViaPad*%
%ADD18C,0.600000*%
%TD*%
%TA.AperFunction,Conductor*%
%ADD19C,0.200000*%
%TD*%
G04 APERTURE END LIST*
D10*
%TO.P,J1,1,Pin_1*%
%TO.N,EN*%
X136139095Y-115720093D03*
D11*
%TO.P,J1,2,Pin_2*%
%TO.N,VP*%
X136139095Y-118260093D03*
%TO.P,J1,3,Pin_3*%
%TO.N,VN*%
X136139095Y-120800093D03*
%TO.P,J1,4,Pin_4*%
%TO.N,D34*%
X136139095Y-123340093D03*
%TO.P,J1,5,Pin_5*%
%TO.N,D35*%
X136139095Y-125880093D03*
%TO.P,J1,6,Pin_6*%
%TO.N,D32*%
X136139095Y-128420093D03*
%TO.P,J1,7,Pin_7*%
%TO.N,D33*%
X136139095Y-130960093D03*
%TO.P,J1,8,Pin_8*%
%TO.N,D25*%
X136139095Y-133500093D03*
%TO.P,J1,9,Pin_9*%
%TO.N,D26*%
X136139095Y-136040093D03*
%TO.P,J1,10,Pin_10*%
%TO.N,D27*%
X136139095Y-138580093D03*
%TO.P,J1,11,Pin_11*%
%TO.N,D14*%
X136139095Y-141120093D03*
%TO.P,J1,12,Pin_12*%
%TO.N,D12*%
X136139095Y-143660093D03*
%TO.P,J1,13,Pin_13*%
%TO.N,D13*%
X136139095Y-146200093D03*
%TO.P,J1,14,Pin_14*%
%TO.N,GND*%
X136139095Y-148740093D03*
%TO.P,J1,15,Pin_15*%
%TO.N,VIN*%
X136139095Y-151280093D03*
%TD*%
D10*
%TO.P,J2,1,Pin_1*%
%TO.N,D23*%
X161639095Y-115920093D03*
D11*
%TO.P,J2,2,Pin_2*%
%TO.N,D22*%
X161639095Y-118460093D03*
%TO.P,J2,3,Pin_3*%
%TO.N,TX0*%
X161639095Y-121000093D03*
%TO.P,J2,4,Pin_4*%
%TO.N,RX0*%
X161639095Y-123540093D03*
%TO.P,J2,5,Pin_5*%
%TO.N,D21*%
X161639095Y-126080093D03*
%TO.P,J2,6,Pin_6*%
%TO.N,D19*%
X161639095Y-128620093D03*
%TO.P,J2,7,Pin_7*%
%TO.N,D18*%
X161639095Y-131160093D03*
%TO.P,J2,8,Pin_8*%
%TO.N,D5*%
X161639095Y-133700093D03*
%TO.P,J2,9,Pin_9*%
%TO.N,TX2*%
X161639095Y-136240093D03*
%TO.P,J2,10,Pin_10*%
%TO.N,RX2*%
X161639095Y-138780093D03*
%TO.P,J2,11,Pin_11*%
%TO.N,D4*%
X161639095Y-141320093D03*
%TO.P,J2,12,Pin_12*%
%TO.N,D2*%
X161639095Y-143860093D03*
%TO.P,J2,13,Pin_13*%
%TO.N,D15*%
X161639095Y-146400093D03*
%TO.P,J2,14,Pin_14*%
%TO.N,GND*%
X161639095Y-148940093D03*
%TO.P,J2,15,Pin_15*%
%TO.N,3V3*%
X161639095Y-151480093D03*
%TD*%
D12*
%TO.P,REF\u002A\u002A,1*%
%TO.N,N/C*%
X164625000Y-160000000D03*
X165174175Y-158674175D03*
X165174175Y-161325825D03*
X166500000Y-158125000D03*
D13*
X166500000Y-160000000D03*
D12*
X166500000Y-161875000D03*
X167825825Y-158674175D03*
X167825825Y-161325825D03*
X168375000Y-160000000D03*
%TD*%
D10*
%TO.P,J3,1,Pin_1*%
%TO.N,D23*%
X166160000Y-97000000D03*
D11*
%TO.P,J3,2,Pin_2*%
%TO.N,D22*%
X163620000Y-97000000D03*
%TO.P,J3,3,Pin_3*%
%TO.N,TX0*%
X161080000Y-97000000D03*
%TO.P,J3,4,Pin_4*%
%TO.N,RX0*%
X158540000Y-97000000D03*
%TO.P,J3,5,Pin_5*%
%TO.N,D21*%
X156000000Y-97000000D03*
%TO.P,J3,6,Pin_6*%
%TO.N,D19*%
X153460000Y-97000000D03*
%TO.P,J3,7,Pin_7*%
%TO.N,D18*%
X150920000Y-97000000D03*
%TO.P,J3,8,Pin_8*%
%TO.N,D5*%
X148380000Y-97000000D03*
%TO.P,J3,9,Pin_9*%
%TO.N,TX2*%
X145840000Y-97000000D03*
%TO.P,J3,10,Pin_10*%
%TO.N,RX2*%
X143300000Y-97000000D03*
%TO.P,J3,11,Pin_11*%
%TO.N,D4*%
X140760000Y-97000000D03*
%TO.P,J3,12,Pin_12*%
%TO.N,D2*%
X138220000Y-97000000D03*
%TO.P,J3,13,Pin_13*%
%TO.N,D15*%
X135680000Y-97000000D03*
%TO.P,J3,14,Pin_14*%
%TO.N,GND*%
X133140000Y-97000000D03*
%TO.P,J3,15,Pin_15*%
%TO.N,3V3*%
X130600000Y-97000000D03*
%TD*%
D12*
%TO.P,REF\u002A\u002A,1*%
%TO.N,N/C*%
X171625000Y-108500000D03*
X172174175Y-107174175D03*
X172174175Y-109825825D03*
X173500000Y-106625000D03*
D13*
X173500000Y-108500000D03*
D12*
X173500000Y-110375000D03*
X174825825Y-107174175D03*
X174825825Y-109825825D03*
X175375000Y-108500000D03*
%TD*%
D14*
%TO.P,screwBottom1,1,Pin_1*%
%TO.N,EN*%
X113500000Y-90000000D03*
D15*
%TO.P,screwBottom1,2,Pin_2*%
%TO.N,VP*%
X118500000Y-90000000D03*
%TO.P,screwBottom1,3,Pin_3*%
%TO.N,VN*%
X123500000Y-90000000D03*
%TO.P,screwBottom1,4,Pin_4*%
%TO.N,D34*%
X128500000Y-90000000D03*
%TO.P,screwBottom1,5,Pin_5*%
%TO.N,D35*%
X133500000Y-90000000D03*
%TO.P,screwBottom1,6,Pin_6*%
%TO.N,D32*%
X138500000Y-90000000D03*
%TO.P,screwBottom1,7,Pin_7*%
%TO.N,D33*%
X143500000Y-90000000D03*
%TO.P,screwBottom1,8,Pin_8*%
%TO.N,D25*%
X148500000Y-90000000D03*
%TO.P,screwBottom1,9,Pin_9*%
%TO.N,D26*%
X153500000Y-90000000D03*
%TO.P,screwBottom1,10,Pin_10*%
%TO.N,D27*%
X158500000Y-90000000D03*
%TO.P,screwBottom1,11,Pin_11*%
%TO.N,D14*%
X163500000Y-90000000D03*
%TO.P,screwBottom1,12,Pin_12*%
%TO.N,D12*%
X168500000Y-90000000D03*
%TO.P,screwBottom1,13,Pin_13*%
%TO.N,D13*%
X173500000Y-90000000D03*
%TO.P,screwBottom1,14,Pin_14*%
%TO.N,GND*%
X178500000Y-90000000D03*
%TO.P,screwBottom1,15,Pin_15*%
%TO.N,VIN*%
X183500000Y-90000000D03*
%TD*%
D12*
%TO.P,REF\u002A\u002A,1*%
%TO.N,N/C*%
X123625000Y-108000000D03*
X124174175Y-106674175D03*
X124174175Y-109325825D03*
X125500000Y-106125000D03*
D13*
X125500000Y-108000000D03*
D12*
X125500000Y-109875000D03*
X126825825Y-106674175D03*
X126825825Y-109325825D03*
X127375000Y-108000000D03*
%TD*%
D14*
%TO.P,screwTop1,1,Pin_1*%
%TO.N,3V3*%
X113500000Y-75000000D03*
D15*
%TO.P,screwTop1,2,Pin_2*%
%TO.N,GND*%
X118500000Y-75000000D03*
%TO.P,screwTop1,3,Pin_3*%
%TO.N,D15*%
X123500000Y-75000000D03*
%TO.P,screwTop1,4,Pin_4*%
%TO.N,D2*%
X128500000Y-75000000D03*
%TO.P,screwTop1,5,Pin_5*%
%TO.N,D4*%
X133500000Y-75000000D03*
%TO.P,screwTop1,6,Pin_6*%
%TO.N,RX2*%
X138500000Y-75000000D03*
%TO.P,screwTop1,7,Pin_7*%
%TO.N,TX2*%
X143500000Y-75000000D03*
%TO.P,screwTop1,8,Pin_8*%
%TO.N,D5*%
X148500000Y-75000000D03*
%TO.P,screwTop1,9,Pin_9*%
%TO.N,D18*%
X153500000Y-75000000D03*
%TO.P,screwTop1,10,Pin_10*%
%TO.N,D19*%
X158500000Y-75000000D03*
%TO.P,screwTop1,11,Pin_11*%
%TO.N,D21*%
X163500000Y-75000000D03*
%TO.P,screwTop1,12,Pin_12*%
%TO.N,RX0*%
X168500000Y-75000000D03*
%TO.P,screwTop1,13,Pin_13*%
%TO.N,TX0*%
X173500000Y-75000000D03*
%TO.P,screwTop1,14,Pin_14*%
%TO.N,D22*%
X178500000Y-75000000D03*
%TO.P,screwTop1,15,Pin_15*%
%TO.N,D23*%
X183500000Y-75000000D03*
%TD*%
D12*
%TO.P,REF\u002A\u002A,1*%
%TO.N,N/C*%
X108625000Y-97500000D03*
X109174175Y-96174175D03*
X109174175Y-98825825D03*
X110500000Y-95625000D03*
D13*
X110500000Y-97500000D03*
D12*
X110500000Y-99375000D03*
X111825825Y-96174175D03*
X111825825Y-98825825D03*
X112375000Y-97500000D03*
%TD*%
%TO.P,REF\u002A\u002A,1*%
%TO.N,N/C*%
X129625000Y-160000000D03*
X130174175Y-158674175D03*
X130174175Y-161325825D03*
X131500000Y-158125000D03*
D13*
X131500000Y-160000000D03*
D12*
X131500000Y-161875000D03*
X132825825Y-158674175D03*
X132825825Y-161325825D03*
X133375000Y-160000000D03*
%TD*%
%TO.P,REF\u002A\u002A,1*%
%TO.N,N/C*%
X183625000Y-97500000D03*
X184174175Y-96174175D03*
X184174175Y-98825825D03*
X185500000Y-95625000D03*
D13*
X185500000Y-97500000D03*
D12*
X185500000Y-99375000D03*
X186825825Y-96174175D03*
X186825825Y-98825825D03*
X187375000Y-97500000D03*
%TD*%
D10*
%TO.P,J4,1,Pin_1*%
%TO.N,VIN*%
X166250000Y-104525000D03*
D11*
%TO.P,J4,2,Pin_2*%
%TO.N,GND*%
X163710000Y-104525000D03*
%TO.P,J4,3,Pin_3*%
%TO.N,D13*%
X161170000Y-104525000D03*
%TO.P,J4,4,Pin_4*%
%TO.N,D12*%
X158630000Y-104525000D03*
%TO.P,J4,5,Pin_5*%
%TO.N,D14*%
X156090000Y-104525000D03*
%TO.P,J4,6,Pin_6*%
%TO.N,D27*%
X153550000Y-104525000D03*
%TO.P,J4,7,Pin_7*%
%TO.N,D26*%
X151010000Y-104525000D03*
%TO.P,J4,8,Pin_8*%
%TO.N,D25*%
X148470000Y-104525000D03*
%TO.P,J4,9,Pin_9*%
%TO.N,D33*%
X145930000Y-104525000D03*
%TO.P,J4,10,Pin_10*%
%TO.N,D32*%
X143390000Y-104525000D03*
%TO.P,J4,11,Pin_11*%
%TO.N,D35*%
X140850000Y-104525000D03*
%TO.P,J4,12,Pin_12*%
%TO.N,D34*%
X138310000Y-104525000D03*
%TO.P,J4,13,Pin_13*%
%TO.N,VN*%
X135770000Y-104525000D03*
%TO.P,J4,14,Pin_14*%
%TO.N,VP*%
X133230000Y-104525000D03*
%TO.P,J4,15,Pin_15*%
%TO.N,EN*%
X130690000Y-104525000D03*
%TD*%
D16*
%TO.P,U1,1,EN*%
%TO.N,EN*%
X136139095Y-115920093D03*
D17*
%TO.P,U1,2,SENSOR_VP*%
%TO.N,VP*%
X136139095Y-118460093D03*
%TO.P,U1,3,SENSOR_VN*%
%TO.N,VN*%
X136139095Y-121000093D03*
%TO.P,U1,4,IO34*%
%TO.N,D34*%
X136139095Y-123540093D03*
%TO.P,U1,5,IO35*%
%TO.N,D35*%
X136139095Y-126080093D03*
%TO.P,U1,6,IO32*%
%TO.N,D32*%
X136139095Y-128620093D03*
%TO.P,U1,7,IO33*%
%TO.N,D33*%
X136139095Y-131160093D03*
%TO.P,U1,8,IO25*%
%TO.N,D25*%
X136139095Y-133700093D03*
%TO.P,U1,9,IO26*%
%TO.N,D26*%
X136139095Y-136240093D03*
%TO.P,U1,10,IO27*%
%TO.N,D27*%
X136139095Y-138780093D03*
%TO.P,U1,11,IO14*%
%TO.N,D14*%
X136139095Y-141320093D03*
%TO.P,U1,12,IO12*%
%TO.N,D12*%
X136139095Y-143860093D03*
%TO.P,U1,13,IO13*%
%TO.N,D13*%
X136139095Y-146400093D03*
%TO.P,U1,14,GND*%
%TO.N,GND*%
X136139095Y-148940093D03*
%TO.P,U1,15,VIN*%
%TO.N,VIN*%
X136139095Y-151480093D03*
%TO.P,U1,16,3V3*%
%TO.N,3V3*%
X161539095Y-151480093D03*
%TO.P,U1,17,GND*%
%TO.N,GND*%
X161539095Y-148940093D03*
%TO.P,U1,18,IO15*%
%TO.N,D15*%
X161539095Y-146400093D03*
%TO.P,U1,19,IO2*%
%TO.N,D2*%
X161539095Y-143860093D03*
%TO.P,U1,20,IO4*%
%TO.N,D4*%
X161539095Y-141320093D03*
%TO.P,U1,21,IO16*%
%TO.N,RX2*%
X161539095Y-138780093D03*
%TO.P,U1,22,IO17*%
%TO.N,TX2*%
X161539095Y-136240093D03*
%TO.P,U1,23,IO5*%
%TO.N,D5*%
X161539095Y-133700093D03*
%TO.P,U1,24,IO18*%
%TO.N,D18*%
X161539095Y-131160093D03*
%TO.P,U1,25,IO19*%
%TO.N,D19*%
X161539095Y-128620093D03*
%TO.P,U1,26,IO21*%
%TO.N,D21*%
X161539095Y-126080093D03*
%TO.P,U1,27,RXD0/IO3*%
%TO.N,RX0*%
X161539095Y-123540093D03*
%TO.P,U1,28,TXD0/IO1*%
%TO.N,TX0*%
X161539095Y-121000093D03*
%TO.P,U1,29,IO22*%
%TO.N,D22*%
X161539095Y-118460093D03*
%TO.P,U1,30,IO23*%
%TO.N,D23*%
X161539095Y-115920093D03*
%TD*%
D18*
%TO.N,TX0*%
X161000000Y-99500000D03*
%TO.N,D22*%
X169500000Y-83500000D03*
%TO.N,D21*%
X157500000Y-118500000D03*
X156000000Y-100500000D03*
%TO.N,3V3*%
X127000000Y-97000000D03*
%TO.N,D23*%
X164000000Y-99500000D03*
%TO.N,D15*%
X125000000Y-83500000D03*
%TO.N,GND*%
X152500000Y-129000000D03*
X151825735Y-127825735D03*
%TO.N,D14*%
X159500000Y-99000000D03*
%TO.N,D25*%
X148500000Y-102000000D03*
%TO.N,D12*%
X161016765Y-100983235D03*
%TO.N,VN*%
X140500000Y-107000000D03*
%TO.N,D13*%
X152000000Y-130000000D03*
X139000000Y-146000000D03*
X151000000Y-128500000D03*
X163000000Y-102500000D03*
%TO.N,EN*%
X132000000Y-115500000D03*
%TO.N,D26*%
X151010000Y-102010000D03*
%TO.N,D32*%
X139500000Y-100000000D03*
%TO.N,D27*%
X154000000Y-102000000D03*
%TO.N,D33*%
X145930000Y-102070000D03*
%TD*%
D19*
%TO.N,TX0*%
X165100000Y-91990000D02*
X161080000Y-96010000D01*
X161080000Y-97000000D02*
X161080000Y-99420000D01*
X161080000Y-99420000D02*
X161000000Y-99500000D01*
X173500000Y-75000000D02*
X165100000Y-83400000D01*
X165100000Y-83400000D02*
X165100000Y-91990000D01*
X161080000Y-96010000D02*
X161080000Y-97000000D01*
%TO.N,D4*%
X140760000Y-97000000D02*
X136900000Y-93140000D01*
X184494114Y-72600000D02*
X185900000Y-74005886D01*
X170175000Y-132684188D02*
X161539095Y-141320093D01*
X185900000Y-74005886D02*
X185900000Y-90994114D01*
X136900000Y-74337258D02*
X138637258Y-72600000D01*
X170175000Y-106719114D02*
X170175000Y-132684188D01*
X138637258Y-72600000D02*
X184494114Y-72600000D01*
X136900000Y-93140000D02*
X136900000Y-74337258D01*
X133500000Y-87500000D02*
X140760000Y-94760000D01*
X133500000Y-75000000D02*
X133500000Y-87500000D01*
X185900000Y-90994114D02*
X170175000Y-106719114D01*
X140760000Y-94760000D02*
X140760000Y-97000000D01*
%TO.N,D19*%
X158500000Y-75000000D02*
X155600000Y-77900000D01*
X155600000Y-77900000D02*
X155600000Y-94860000D01*
X155600000Y-94860000D02*
X153460000Y-97000000D01*
%TO.N,D22*%
X170000000Y-83500000D02*
X169500000Y-83500000D01*
X178500000Y-75000000D02*
X170000000Y-83500000D01*
%TO.N,D21*%
X162320000Y-112887108D02*
X157500000Y-117707108D01*
X163500000Y-75000000D02*
X156000000Y-82500000D01*
X156000000Y-82500000D02*
X156000000Y-97000000D01*
X162320000Y-104048654D02*
X162320000Y-112887108D01*
X156000000Y-97000000D02*
X156500000Y-97000000D01*
X157500000Y-117707108D02*
X157500000Y-118500000D01*
X156000000Y-100500000D02*
X158771346Y-100500000D01*
X158771346Y-100500000D02*
X162320000Y-104048654D01*
%TO.N,3V3*%
X113500000Y-82489314D02*
X123100000Y-92089314D01*
X123100000Y-93100000D02*
X127000000Y-97000000D01*
X123100000Y-92089314D02*
X123100000Y-93100000D01*
X113500000Y-75000000D02*
X113500000Y-82489314D01*
%TO.N,RX2*%
X143300000Y-92062742D02*
X143300000Y-97000000D01*
X143237258Y-73000000D02*
X184328428Y-73000000D01*
X169775000Y-106553428D02*
X169775000Y-130644188D01*
X185500000Y-74171572D02*
X185500000Y-90828428D01*
X143300000Y-97000000D02*
X141900000Y-95600000D01*
X169775000Y-130644188D02*
X161639095Y-138780093D01*
X138500000Y-75000000D02*
X138500000Y-87262742D01*
X184328428Y-73000000D02*
X185500000Y-74171572D01*
X185500000Y-90828428D02*
X169775000Y-106553428D01*
X141900000Y-74337258D02*
X143237258Y-73000000D01*
X138500000Y-87262742D02*
X143300000Y-92062742D01*
X141900000Y-95600000D02*
X141900000Y-74337258D01*
%TO.N,D23*%
X175100000Y-89337258D02*
X174162742Y-88400000D01*
X183500000Y-75000000D02*
X183500000Y-82565686D01*
X166160000Y-95077258D02*
X166160000Y-97000000D01*
X166160000Y-97000000D02*
X164000000Y-99160000D01*
X164000000Y-99160000D02*
X164000000Y-99500000D01*
X172837258Y-88400000D02*
X166160000Y-95077258D01*
X175100000Y-90965686D02*
X175100000Y-89337258D01*
X174162742Y-88400000D02*
X172837258Y-88400000D01*
X183500000Y-82565686D02*
X175100000Y-90965686D01*
%TO.N,D2*%
X186300000Y-91159800D02*
X170575000Y-106884800D01*
X184659800Y-72200000D02*
X186300000Y-73840200D01*
X170575000Y-106884800D02*
X170575000Y-134824188D01*
X186300000Y-73840200D02*
X186300000Y-91159800D01*
X131900000Y-74337258D02*
X134037258Y-72200000D01*
X170575000Y-134824188D02*
X161539095Y-143860093D01*
X128500000Y-87280000D02*
X138220000Y-97000000D01*
X131900000Y-90680000D02*
X131900000Y-74337258D01*
X138220000Y-97000000D02*
X131900000Y-90680000D01*
X128500000Y-75000000D02*
X128500000Y-87280000D01*
X134037258Y-72200000D02*
X184659800Y-72200000D01*
%TO.N,RX0*%
X161900000Y-81600000D02*
X161900000Y-91034314D01*
X168500000Y-75000000D02*
X161900000Y-81600000D01*
X158540000Y-94394314D02*
X158540000Y-97000000D01*
X161900000Y-91034314D02*
X158540000Y-94394314D01*
%TO.N,D15*%
X123500000Y-75000000D02*
X125000000Y-76500000D01*
X125000000Y-76500000D02*
X125000000Y-83500000D01*
%TO.N,D5*%
X150100000Y-76600000D02*
X150100000Y-95280000D01*
X148500000Y-75000000D02*
X150100000Y-76600000D01*
X150100000Y-95280000D02*
X148380000Y-97000000D01*
%TO.N,TX2*%
X147837258Y-73400000D02*
X184162742Y-73400000D01*
X145840000Y-75397258D02*
X147837258Y-73400000D01*
X169375000Y-128504188D02*
X161639095Y-136240093D01*
X185100000Y-74337258D02*
X185100000Y-90662742D01*
X145840000Y-77340000D02*
X145840000Y-97000000D01*
X184162742Y-73400000D02*
X185100000Y-74337258D01*
X145840000Y-97000000D02*
X145840000Y-75397258D01*
X143500000Y-75000000D02*
X145840000Y-77340000D01*
X169375000Y-106387742D02*
X169375000Y-128504188D01*
X185100000Y-90662742D02*
X169375000Y-106387742D01*
%TO.N,D18*%
X151900000Y-76600000D02*
X151900000Y-96020000D01*
X153500000Y-75000000D02*
X151900000Y-76600000D01*
X151900000Y-96020000D02*
X150920000Y-97000000D01*
%TO.N,GND*%
X135699200Y-152542093D02*
X134989095Y-151831988D01*
X133140000Y-97000000D02*
X118500000Y-82360000D01*
X153099501Y-140400499D02*
X161639095Y-148940093D01*
X163710000Y-104525000D02*
X157335000Y-98150000D01*
X153099501Y-140400499D02*
X140957907Y-152542093D01*
X157335000Y-98150000D02*
X134290000Y-98150000D01*
X153000000Y-140300998D02*
X153099501Y-140400499D01*
X152500000Y-129000000D02*
X153000000Y-129500000D01*
X134989095Y-151831988D02*
X134989095Y-149890093D01*
X163710000Y-116149188D02*
X162789095Y-117070093D01*
X140957907Y-152542093D02*
X135699200Y-152542093D01*
X151967157Y-126505685D02*
X151967157Y-127967157D01*
X178235000Y-90000000D02*
X163710000Y-104525000D01*
X118500000Y-82360000D02*
X118500000Y-75000000D01*
X178500000Y-90000000D02*
X178235000Y-90000000D01*
X134290000Y-98150000D02*
X133140000Y-97000000D01*
X151967157Y-127967157D02*
X151825735Y-127825735D01*
X162789095Y-117070093D02*
X161402749Y-117070093D01*
X163710000Y-104525000D02*
X163710000Y-116149188D01*
X161402749Y-117070093D02*
X151967157Y-126505685D01*
X153000000Y-129500000D02*
X153000000Y-140300998D01*
X134989095Y-149890093D02*
X136139095Y-148740093D01*
%TO.N,D14*%
X137879907Y-141120093D02*
X136139095Y-141120093D01*
X139000000Y-117065686D02*
X143934314Y-122000000D01*
X149500000Y-129500000D02*
X137879907Y-141120093D01*
X163500000Y-90000000D02*
X159690000Y-93810000D01*
X149000000Y-123500000D02*
X149500000Y-124000000D01*
X139000000Y-110292892D02*
X139000000Y-117065686D01*
X139292892Y-110000000D02*
X139000000Y-110292892D01*
X149500000Y-124000000D02*
X149500000Y-129500000D01*
X150615000Y-110000000D02*
X139292892Y-110000000D01*
X159690000Y-93810000D02*
X159690000Y-98810000D01*
X143934314Y-122000000D02*
X150500000Y-122000000D01*
X156090000Y-104525000D02*
X150615000Y-110000000D01*
X159690000Y-98810000D02*
X159500000Y-99000000D01*
X150500000Y-122000000D02*
X149000000Y-123500000D01*
%TO.N,D25*%
X143500000Y-123500000D02*
X147000000Y-123500000D01*
X148000000Y-126500000D02*
X148000000Y-128000000D01*
X138995834Y-108600000D02*
X137600000Y-109995834D01*
X141500000Y-134000000D02*
X141200093Y-133700093D01*
X148470000Y-104525000D02*
X144395000Y-108600000D01*
X147000000Y-123500000D02*
X147000000Y-125500000D01*
X148000000Y-128000000D02*
X142000000Y-134000000D01*
X144395000Y-108600000D02*
X138995834Y-108600000D01*
X141200093Y-133700093D02*
X136139095Y-133700093D01*
X142000000Y-134000000D02*
X141500000Y-134000000D01*
X148470000Y-102030000D02*
X148500000Y-102000000D01*
X147000000Y-125500000D02*
X148000000Y-126500000D01*
X148470000Y-104525000D02*
X148470000Y-102030000D01*
X137600000Y-109995834D02*
X137600000Y-117600000D01*
X137600000Y-117600000D02*
X143500000Y-123500000D01*
%TO.N,D34*%
X134189095Y-121590093D02*
X136139095Y-123540093D01*
X134189095Y-108645905D02*
X134189095Y-121590093D01*
X138310000Y-104525000D02*
X134189095Y-108645905D01*
%TO.N,D12*%
X144000000Y-121500000D02*
X152000000Y-121500000D01*
X158630000Y-104525000D02*
X152755000Y-110400000D01*
X161000000Y-100500000D02*
X161000000Y-100966470D01*
X152000000Y-121500000D02*
X150000000Y-123500000D01*
X168500000Y-90000000D02*
X162246346Y-96253654D01*
X161000000Y-100966470D02*
X161016765Y-100983235D01*
X162246346Y-96253654D02*
X162246346Y-99253654D01*
X139458578Y-110400000D02*
X139400000Y-110458578D01*
X152755000Y-110400000D02*
X139458578Y-110400000D01*
X150000000Y-123500000D02*
X150000000Y-129799188D01*
X150000000Y-129799188D02*
X136139095Y-143660093D01*
X162246346Y-99253654D02*
X161000000Y-100500000D01*
X139400000Y-116900000D02*
X144000000Y-121500000D01*
X139400000Y-110458578D02*
X139400000Y-116900000D01*
%TO.N,VIN*%
X168975000Y-104525000D02*
X166250000Y-104525000D01*
X166250000Y-104525000D02*
X166250000Y-115475534D01*
X160889907Y-119610093D02*
X138000000Y-142500000D01*
X138000000Y-149619188D02*
X136139095Y-151480093D01*
X138000000Y-142500000D02*
X138000000Y-149619188D01*
X162115441Y-119610093D02*
X160889907Y-119610093D01*
X166250000Y-115475534D02*
X162115441Y-119610093D01*
X183500000Y-90000000D02*
X168975000Y-104525000D01*
%TO.N,VN*%
X135770000Y-104525000D02*
X123500000Y-92255000D01*
X136920000Y-103375000D02*
X141326346Y-103375000D01*
X135770000Y-104525000D02*
X136920000Y-103375000D01*
X141326346Y-103375000D02*
X142000000Y-104048654D01*
X123500000Y-92255000D02*
X123500000Y-90000000D01*
X142000000Y-104048654D02*
X142000000Y-105500000D01*
X142000000Y-105500000D02*
X140500000Y-107000000D01*
%TO.N,VP*%
X133230000Y-124672893D02*
X135699200Y-127142093D01*
X137689095Y-119810093D02*
X136139095Y-118260093D01*
X136578990Y-127142093D02*
X137689095Y-126031988D01*
X137689095Y-126031988D02*
X137689095Y-119810093D01*
X133230000Y-104525000D02*
X118705000Y-90000000D01*
X135699200Y-127142093D02*
X136578990Y-127142093D01*
X118705000Y-90000000D02*
X118500000Y-90000000D01*
X133230000Y-104525000D02*
X133230000Y-124672893D01*
%TO.N,D13*%
X152000000Y-130000000D02*
X139000000Y-143000000D01*
X139000000Y-143000000D02*
X139000000Y-146000000D01*
X161170000Y-113471422D02*
X151000000Y-123641422D01*
X173500000Y-90000000D02*
X173500000Y-92000000D01*
X173500000Y-92000000D02*
X163000000Y-102500000D01*
X151000000Y-123641422D02*
X151000000Y-128500000D01*
X161170000Y-104525000D02*
X161170000Y-113471422D01*
%TO.N,D35*%
X134589095Y-119089095D02*
X135150093Y-119650093D01*
X135150093Y-119650093D02*
X136615441Y-119650093D01*
X137289095Y-120323747D02*
X137289095Y-124930093D01*
X137289095Y-124930093D02*
X136139095Y-126080093D01*
X134589095Y-110785905D02*
X134589095Y-119089095D01*
X136615441Y-119650093D02*
X137289095Y-120323747D01*
X140850000Y-104525000D02*
X134589095Y-110785905D01*
%TO.N,EN*%
X130690000Y-104525000D02*
X130690000Y-114190000D01*
X128025000Y-104525000D02*
X113500000Y-90000000D01*
X130690000Y-114190000D02*
X132000000Y-115500000D01*
X130690000Y-104525000D02*
X128025000Y-104525000D01*
%TO.N,D26*%
X138000000Y-117197057D02*
X143802943Y-123000000D01*
X143802943Y-123000000D02*
X148000000Y-123000000D01*
X140500000Y-136500000D02*
X140040093Y-136040093D01*
X151000000Y-102000000D02*
X151010000Y-102010000D01*
X148000000Y-129500000D02*
X147500000Y-129500000D01*
X138000000Y-110161520D02*
X138000000Y-117197057D01*
X151010000Y-104525000D02*
X151010000Y-106490000D01*
X140040093Y-136040093D02*
X136139095Y-136040093D01*
X151010000Y-104525000D02*
X151010000Y-102010000D01*
X147500000Y-129500000D02*
X140500000Y-136500000D01*
X148000000Y-125000000D02*
X148500000Y-125500000D01*
X148500000Y-125500000D02*
X148500000Y-129000000D01*
X148500000Y-129000000D02*
X148000000Y-129500000D01*
X148000000Y-123000000D02*
X148000000Y-125000000D01*
X139161520Y-109000000D02*
X138000000Y-110161520D01*
X148500000Y-109000000D02*
X139161520Y-109000000D01*
X151010000Y-106490000D02*
X148500000Y-109000000D01*
%TO.N,D32*%
X139500000Y-100635000D02*
X139500000Y-100000000D01*
X143390000Y-104525000D02*
X139500000Y-100635000D01*
%TO.N,D27*%
X139654221Y-138780093D02*
X136139095Y-138780093D01*
X153550000Y-102450000D02*
X154000000Y-102000000D01*
X149100000Y-129334314D02*
X139654221Y-138780093D01*
X149100000Y-124600000D02*
X149100000Y-129334314D01*
X153550000Y-104525000D02*
X153550000Y-102450000D01*
X143868628Y-122500000D02*
X149000000Y-122500000D01*
X149000000Y-122500000D02*
X148500000Y-123000000D01*
X138600000Y-117231372D02*
X143868628Y-122500000D01*
X148500000Y-124000000D02*
X149100000Y-124600000D01*
X138600000Y-110127206D02*
X138600000Y-117231372D01*
X153550000Y-104525000D02*
X148475000Y-109600000D01*
X139127206Y-109600000D02*
X138600000Y-110127206D01*
X148500000Y-123000000D02*
X148500000Y-124000000D01*
X148475000Y-109600000D02*
X139127206Y-109600000D01*
%TO.N,D33*%
X146000000Y-102000000D02*
X145930000Y-102070000D01*
X143434314Y-124000000D02*
X146500000Y-124000000D01*
X147500000Y-127000000D02*
X143339907Y-131160093D01*
X142255000Y-108200000D02*
X138830148Y-108200000D01*
X137200000Y-116982093D02*
X137200000Y-117765686D01*
X138830148Y-108200000D02*
X134989095Y-112041053D01*
X134989095Y-116894093D02*
X135077095Y-116982093D01*
X143339907Y-131160093D02*
X136139095Y-131160093D01*
X145930000Y-104525000D02*
X145930000Y-102070000D01*
X135077095Y-116982093D02*
X137200000Y-116982093D01*
X134989095Y-112041053D02*
X134989095Y-116894093D01*
X137200000Y-117765686D02*
X143434314Y-124000000D01*
X146500000Y-126000000D02*
X147500000Y-127000000D01*
X146500000Y-124000000D02*
X146500000Y-126000000D01*
X145930000Y-104525000D02*
X142255000Y-108200000D01*
%TD*%
%TA.AperFunction,Conductor*%
%TO.N,GND*%
G36*
X160203850Y-115955005D02*
G01*
X160259783Y-115996877D01*
X160284044Y-116060378D01*
X160288123Y-116106994D01*
X160288595Y-116117803D01*
X160288595Y-116817963D01*
X160288596Y-116817969D01*
X160295003Y-116877576D01*
X160345297Y-117012421D01*
X160345301Y-117012428D01*
X160431547Y-117127637D01*
X160431550Y-117127640D01*
X160546759Y-117213886D01*
X160546766Y-117213890D01*
X160678176Y-117262903D01*
X160734110Y-117304774D01*
X160758527Y-117370238D01*
X160743675Y-117438511D01*
X160722525Y-117466766D01*
X160600598Y-117588693D01*
X160465061Y-117782261D01*
X160454832Y-117804195D01*
X160444041Y-117822888D01*
X160441564Y-117826426D01*
X160441559Y-117826435D01*
X160348202Y-118026641D01*
X160348199Y-118026647D01*
X160291025Y-118240022D01*
X160291024Y-118240030D01*
X160271772Y-118460090D01*
X160271772Y-118460095D01*
X160291024Y-118680155D01*
X160291025Y-118680163D01*
X160348199Y-118893538D01*
X160348203Y-118893549D01*
X160441580Y-119093798D01*
X160452072Y-119162875D01*
X160431606Y-119208646D01*
X160432614Y-119209150D01*
X160432613Y-119209152D01*
X160429365Y-119213658D01*
X160423552Y-119226659D01*
X160416885Y-119233877D01*
X160409392Y-119241371D01*
X160409391Y-119241370D01*
X160409385Y-119241379D01*
X151812181Y-127838583D01*
X151750858Y-127872068D01*
X151681166Y-127867084D01*
X151625233Y-127825212D01*
X151600816Y-127759748D01*
X151600500Y-127750902D01*
X151600500Y-123941518D01*
X151620185Y-123874479D01*
X151636814Y-123853842D01*
X156612912Y-118877743D01*
X156674233Y-118844260D01*
X156743925Y-118849244D01*
X156799858Y-118891116D01*
X156805584Y-118899454D01*
X156870179Y-119002256D01*
X156870184Y-119002262D01*
X156997738Y-119129816D01*
X157050351Y-119162875D01*
X157131171Y-119213658D01*
X157150478Y-119225789D01*
X157195032Y-119241379D01*
X157320745Y-119285368D01*
X157320750Y-119285369D01*
X157499996Y-119305565D01*
X157500000Y-119305565D01*
X157500004Y-119305565D01*
X157679249Y-119285369D01*
X157679252Y-119285368D01*
X157679255Y-119285368D01*
X157849522Y-119225789D01*
X158002262Y-119129816D01*
X158129816Y-119002262D01*
X158225789Y-118849522D01*
X158285368Y-118679255D01*
X158305565Y-118500000D01*
X158301068Y-118460090D01*
X158285369Y-118320750D01*
X158285368Y-118320745D01*
X158225788Y-118150475D01*
X158154948Y-118037736D01*
X158135947Y-117970499D01*
X158156314Y-117903664D01*
X158172255Y-117884087D01*
X160072837Y-115983504D01*
X160134158Y-115950021D01*
X160203850Y-115955005D01*
G37*
%TD.AperFunction*%
%TA.AperFunction,Conductor*%
G36*
X163960000Y-105855633D02*
G01*
X164173483Y-105798433D01*
X164173492Y-105798429D01*
X164387578Y-105698600D01*
X164581078Y-105563108D01*
X164703133Y-105441053D01*
X164764456Y-105407568D01*
X164834148Y-105412552D01*
X164890082Y-105454423D01*
X164906997Y-105485401D01*
X164956202Y-105617328D01*
X164956206Y-105617335D01*
X165042452Y-105732544D01*
X165042455Y-105732547D01*
X165157664Y-105818793D01*
X165157671Y-105818797D01*
X165202618Y-105835561D01*
X165292517Y-105869091D01*
X165352127Y-105875500D01*
X165525500Y-105875499D01*
X165592539Y-105895183D01*
X165638294Y-105947987D01*
X165649500Y-105999499D01*
X165649500Y-115175436D01*
X165629815Y-115242475D01*
X165613181Y-115263117D01*
X163027683Y-117848614D01*
X162966360Y-117882099D01*
X162896668Y-117877115D01*
X162840735Y-117835243D01*
X162827620Y-117813338D01*
X162813130Y-117782264D01*
X162813127Y-117782260D01*
X162813127Y-117782259D01*
X162677591Y-117588693D01*
X162677590Y-117588692D01*
X162555662Y-117466764D01*
X162522179Y-117405444D01*
X162527163Y-117335752D01*
X162569034Y-117279818D01*
X162600010Y-117262903D01*
X162731426Y-117213889D01*
X162846641Y-117127639D01*
X162932891Y-117012424D01*
X162983186Y-116877576D01*
X162989595Y-116817966D01*
X162989594Y-115022221D01*
X162983186Y-114962610D01*
X162948713Y-114870184D01*
X162932892Y-114827764D01*
X162932888Y-114827757D01*
X162846642Y-114712548D01*
X162846639Y-114712545D01*
X162731430Y-114626299D01*
X162731423Y-114626295D01*
X162596577Y-114576001D01*
X162596578Y-114576001D01*
X162536978Y-114569594D01*
X162536976Y-114569593D01*
X162536968Y-114569593D01*
X162536960Y-114569593D01*
X161786111Y-114569593D01*
X161719072Y-114549908D01*
X161673317Y-114497104D01*
X161663373Y-114427946D01*
X161692398Y-114364390D01*
X161698430Y-114357912D01*
X162166440Y-113889902D01*
X162678506Y-113377836D01*
X162678511Y-113377832D01*
X162688714Y-113367628D01*
X162688716Y-113367628D01*
X162800520Y-113255824D01*
X162879577Y-113118892D01*
X162909534Y-113007089D01*
X162920500Y-112966166D01*
X162920500Y-112808051D01*
X162920500Y-105841051D01*
X162940185Y-105774012D01*
X162992989Y-105728257D01*
X163062147Y-105718313D01*
X163096905Y-105728669D01*
X163246507Y-105798429D01*
X163246516Y-105798433D01*
X163460000Y-105855634D01*
X163460000Y-104958012D01*
X163517007Y-104990925D01*
X163644174Y-105025000D01*
X163775826Y-105025000D01*
X163902993Y-104990925D01*
X163960000Y-104958012D01*
X163960000Y-105855633D01*
G37*
%TD.AperFunction*%
%TA.AperFunction,Conductor*%
G36*
X184454775Y-76619065D02*
G01*
X184493740Y-76677061D01*
X184499500Y-76714415D01*
X184499500Y-88285584D01*
X184479815Y-88352623D01*
X184427011Y-88398378D01*
X184357853Y-88408322D01*
X184321699Y-88397304D01*
X184159643Y-88319263D01*
X184159645Y-88319263D01*
X183901773Y-88239720D01*
X183901767Y-88239718D01*
X183634936Y-88199500D01*
X183634929Y-88199500D01*
X183365071Y-88199500D01*
X183365063Y-88199500D01*
X183098232Y-88239718D01*
X183098226Y-88239720D01*
X182840358Y-88319262D01*
X182597230Y-88436346D01*
X182374258Y-88588365D01*
X182176442Y-88771910D01*
X182008185Y-88982898D01*
X181873258Y-89216599D01*
X181873256Y-89216603D01*
X181774666Y-89467804D01*
X181774664Y-89467811D01*
X181714616Y-89730898D01*
X181694451Y-89999995D01*
X181694451Y-90000004D01*
X181714616Y-90269101D01*
X181772162Y-90521226D01*
X181774666Y-90532195D01*
X181841935Y-90703593D01*
X181848103Y-90773190D01*
X181815665Y-90835073D01*
X181814187Y-90836576D01*
X168762584Y-103888181D01*
X168701261Y-103921666D01*
X168674903Y-103924500D01*
X167724499Y-103924500D01*
X167657460Y-103904815D01*
X167611705Y-103852011D01*
X167600499Y-103800500D01*
X167600499Y-103627129D01*
X167600498Y-103627123D01*
X167594091Y-103567516D01*
X167543797Y-103432671D01*
X167543793Y-103432664D01*
X167457547Y-103317455D01*
X167457544Y-103317452D01*
X167342335Y-103231206D01*
X167342328Y-103231202D01*
X167207482Y-103180908D01*
X167207483Y-103180908D01*
X167147883Y-103174501D01*
X167147881Y-103174500D01*
X167147873Y-103174500D01*
X167147864Y-103174500D01*
X165352129Y-103174500D01*
X165352123Y-103174501D01*
X165292516Y-103180908D01*
X165157671Y-103231202D01*
X165157664Y-103231206D01*
X165042455Y-103317452D01*
X165042452Y-103317455D01*
X164956206Y-103432664D01*
X164956202Y-103432671D01*
X164906997Y-103564598D01*
X164865126Y-103620532D01*
X164799661Y-103644949D01*
X164731388Y-103630097D01*
X164703134Y-103608946D01*
X164581082Y-103486894D01*
X164387578Y-103351399D01*
X164173492Y-103251570D01*
X164173486Y-103251567D01*
X163960000Y-103194364D01*
X163960000Y-104091988D01*
X163902993Y-104059075D01*
X163775826Y-104025000D01*
X163644174Y-104025000D01*
X163517007Y-104059075D01*
X163460000Y-104091988D01*
X163460000Y-103223233D01*
X163479685Y-103156194D01*
X163498243Y-103135645D01*
X163497338Y-103134740D01*
X163540495Y-103091583D01*
X163629816Y-103002262D01*
X163725789Y-102849522D01*
X163785368Y-102679255D01*
X163795161Y-102592329D01*
X163822226Y-102527918D01*
X163830690Y-102518543D01*
X173858506Y-92490728D01*
X173858511Y-92490724D01*
X173868714Y-92480520D01*
X173868716Y-92480520D01*
X173980520Y-92368716D01*
X174059577Y-92231784D01*
X174100500Y-92079057D01*
X174100500Y-91787132D01*
X174120185Y-91720093D01*
X174170697Y-91675413D01*
X174402775Y-91563651D01*
X174583628Y-91440346D01*
X174650104Y-91418847D01*
X174717654Y-91436701D01*
X174728966Y-91444427D01*
X174731284Y-91446206D01*
X174805084Y-91488814D01*
X174868215Y-91525263D01*
X175020943Y-91566187D01*
X175020946Y-91566187D01*
X175179054Y-91566187D01*
X175179057Y-91566187D01*
X175331785Y-91525263D01*
X175394916Y-91488814D01*
X175468716Y-91446206D01*
X175580520Y-91334402D01*
X175580520Y-91334400D01*
X175590724Y-91324197D01*
X175590728Y-91324192D01*
X176543606Y-90371313D01*
X176604925Y-90337831D01*
X176674616Y-90342815D01*
X176730550Y-90384687D01*
X176752174Y-90431404D01*
X176775143Y-90532035D01*
X176775148Y-90532052D01*
X176873709Y-90783181D01*
X176873708Y-90783181D01*
X177008602Y-91016822D01*
X177062294Y-91084151D01*
X177898958Y-90247487D01*
X177923978Y-90307890D01*
X177995112Y-90414351D01*
X178085649Y-90504888D01*
X178192110Y-90576022D01*
X178252510Y-90601041D01*
X177414848Y-91438702D01*
X177597483Y-91563220D01*
X177597485Y-91563221D01*
X177840539Y-91680269D01*
X177840537Y-91680269D01*
X178098337Y-91759790D01*
X178098343Y-91759792D01*
X178365101Y-91799999D01*
X178365110Y-91800000D01*
X178634890Y-91800000D01*
X178634898Y-91799999D01*
X178901656Y-91759792D01*
X178901662Y-91759790D01*
X179159461Y-91680269D01*
X179402521Y-91563218D01*
X179585150Y-91438702D01*
X178747488Y-90601041D01*
X178807890Y-90576022D01*
X178914351Y-90504888D01*
X179004888Y-90414351D01*
X179076022Y-90307890D01*
X179101041Y-90247488D01*
X179937703Y-91084151D01*
X179937704Y-91084150D01*
X179991393Y-91016828D01*
X179991400Y-91016817D01*
X180126290Y-90783181D01*
X180224851Y-90532052D01*
X180224857Y-90532033D01*
X180284886Y-90269028D01*
X180284886Y-90269026D01*
X180305047Y-90000004D01*
X180305047Y-89999995D01*
X180284886Y-89730973D01*
X180284886Y-89730971D01*
X180224857Y-89467966D01*
X180224851Y-89467947D01*
X180126290Y-89216818D01*
X180126291Y-89216818D01*
X179991397Y-88983177D01*
X179937704Y-88915847D01*
X179101041Y-89752510D01*
X179076022Y-89692110D01*
X179004888Y-89585649D01*
X178914351Y-89495112D01*
X178807890Y-89423978D01*
X178747488Y-89398958D01*
X179585150Y-88561296D01*
X179402517Y-88436779D01*
X179402516Y-88436778D01*
X179159460Y-88319730D01*
X179159462Y-88319730D01*
X178924857Y-88247364D01*
X178866598Y-88208793D01*
X178838440Y-88144849D01*
X178849324Y-88075832D01*
X178873721Y-88041198D01*
X183858506Y-83056414D01*
X183858511Y-83056410D01*
X183868714Y-83046206D01*
X183868716Y-83046206D01*
X183980520Y-82934402D01*
X184034778Y-82840423D01*
X184059577Y-82797471D01*
X184100501Y-82644743D01*
X184100501Y-82486629D01*
X184100501Y-82479034D01*
X184100500Y-82479016D01*
X184100500Y-76787132D01*
X184120185Y-76720093D01*
X184170697Y-76675413D01*
X184321699Y-76602694D01*
X184390640Y-76591343D01*
X184454775Y-76619065D01*
G37*
%TD.AperFunction*%
%TA.AperFunction,Conductor*%
G36*
X133390000Y-98330633D02*
G01*
X133603483Y-98273433D01*
X133603492Y-98273429D01*
X133817578Y-98173600D01*
X134011082Y-98038105D01*
X134178105Y-97871082D01*
X134308119Y-97685405D01*
X134362696Y-97641781D01*
X134432195Y-97634588D01*
X134494549Y-97666110D01*
X134511269Y-97685405D01*
X134641505Y-97871401D01*
X134808599Y-98038495D01*
X134848209Y-98066230D01*
X135002165Y-98174032D01*
X135002167Y-98174033D01*
X135002170Y-98174035D01*
X135216337Y-98273903D01*
X135444592Y-98335063D01*
X135632918Y-98351539D01*
X135679999Y-98355659D01*
X135680000Y-98355659D01*
X135680001Y-98355659D01*
X135719234Y-98352226D01*
X135915408Y-98335063D01*
X136143663Y-98273903D01*
X136357830Y-98174035D01*
X136551401Y-98038495D01*
X136718495Y-97871401D01*
X136848425Y-97685842D01*
X136903002Y-97642217D01*
X136972500Y-97635023D01*
X137034855Y-97666546D01*
X137051575Y-97685842D01*
X137181281Y-97871082D01*
X137181505Y-97871401D01*
X137348599Y-98038495D01*
X137388209Y-98066230D01*
X137542165Y-98174032D01*
X137542167Y-98174033D01*
X137542170Y-98174035D01*
X137756337Y-98273903D01*
X137984592Y-98335063D01*
X138172918Y-98351539D01*
X138219999Y-98355659D01*
X138220000Y-98355659D01*
X138220001Y-98355659D01*
X138259234Y-98352226D01*
X138455408Y-98335063D01*
X138683663Y-98273903D01*
X138897830Y-98174035D01*
X139091401Y-98038495D01*
X139258495Y-97871401D01*
X139388425Y-97685842D01*
X139443002Y-97642217D01*
X139512500Y-97635023D01*
X139574855Y-97666546D01*
X139591575Y-97685842D01*
X139721281Y-97871082D01*
X139721505Y-97871401D01*
X139888599Y-98038495D01*
X139928209Y-98066230D01*
X140082165Y-98174032D01*
X140082167Y-98174033D01*
X140082170Y-98174035D01*
X140296337Y-98273903D01*
X140524592Y-98335063D01*
X140712918Y-98351539D01*
X140759999Y-98355659D01*
X140760000Y-98355659D01*
X140760001Y-98355659D01*
X140799234Y-98352226D01*
X140995408Y-98335063D01*
X141223663Y-98273903D01*
X141437830Y-98174035D01*
X141631401Y-98038495D01*
X141798495Y-97871401D01*
X141928425Y-97685842D01*
X141983002Y-97642217D01*
X142052500Y-97635023D01*
X142114855Y-97666546D01*
X142131575Y-97685842D01*
X142261281Y-97871082D01*
X142261505Y-97871401D01*
X142428599Y-98038495D01*
X142468209Y-98066230D01*
X142622165Y-98174032D01*
X142622167Y-98174033D01*
X142622170Y-98174035D01*
X142836337Y-98273903D01*
X143064592Y-98335063D01*
X143252918Y-98351539D01*
X143299999Y-98355659D01*
X143300000Y-98355659D01*
X143300001Y-98355659D01*
X143339234Y-98352226D01*
X143535408Y-98335063D01*
X143763663Y-98273903D01*
X143977830Y-98174035D01*
X144171401Y-98038495D01*
X144338495Y-97871401D01*
X144468425Y-97685842D01*
X144523002Y-97642217D01*
X144592500Y-97635023D01*
X144654855Y-97666546D01*
X144671575Y-97685842D01*
X144801281Y-97871082D01*
X144801505Y-97871401D01*
X144968599Y-98038495D01*
X145008209Y-98066230D01*
X145162165Y-98174032D01*
X145162167Y-98174033D01*
X145162170Y-98174035D01*
X145376337Y-98273903D01*
X145604592Y-98335063D01*
X145792918Y-98351539D01*
X145839999Y-98355659D01*
X145840000Y-98355659D01*
X145840001Y-98355659D01*
X145879234Y-98352226D01*
X146075408Y-98335063D01*
X146303663Y-98273903D01*
X146517830Y-98174035D01*
X146711401Y-98038495D01*
X146878495Y-97871401D01*
X147008425Y-97685842D01*
X147063002Y-97642217D01*
X147132500Y-97635023D01*
X147194855Y-97666546D01*
X147211575Y-97685842D01*
X147341281Y-97871082D01*
X147341505Y-97871401D01*
X147508599Y-98038495D01*
X147548209Y-98066230D01*
X147702165Y-98174032D01*
X147702167Y-98174033D01*
X147702170Y-98174035D01*
X147916337Y-98273903D01*
X148144592Y-98335063D01*
X148332918Y-98351539D01*
X148379999Y-98355659D01*
X148380000Y-98355659D01*
X148380001Y-98355659D01*
X148419234Y-98352226D01*
X148615408Y-98335063D01*
X148843663Y-98273903D01*
X149057830Y-98174035D01*
X149251401Y-98038495D01*
X149418495Y-97871401D01*
X149548425Y-97685842D01*
X149603002Y-97642217D01*
X149672500Y-97635023D01*
X149734855Y-97666546D01*
X149751575Y-97685842D01*
X149881281Y-97871082D01*
X149881505Y-97871401D01*
X150048599Y-98038495D01*
X150088209Y-98066230D01*
X150242165Y-98174032D01*
X150242167Y-98174033D01*
X150242170Y-98174035D01*
X150456337Y-98273903D01*
X150684592Y-98335063D01*
X150872918Y-98351539D01*
X150919999Y-98355659D01*
X150920000Y-98355659D01*
X150920001Y-98355659D01*
X150959234Y-98352226D01*
X151155408Y-98335063D01*
X151383663Y-98273903D01*
X151597830Y-98174035D01*
X151791401Y-98038495D01*
X151958495Y-97871401D01*
X152088425Y-97685842D01*
X152143002Y-97642217D01*
X152212500Y-97635023D01*
X152274855Y-97666546D01*
X152291575Y-97685842D01*
X152421281Y-97871082D01*
X152421505Y-97871401D01*
X152588599Y-98038495D01*
X152628209Y-98066230D01*
X152782165Y-98174032D01*
X152782167Y-98174033D01*
X152782170Y-98174035D01*
X152996337Y-98273903D01*
X153224592Y-98335063D01*
X153412918Y-98351539D01*
X153459999Y-98355659D01*
X153460000Y-98355659D01*
X153460001Y-98355659D01*
X153499234Y-98352226D01*
X153695408Y-98335063D01*
X153923663Y-98273903D01*
X154137830Y-98174035D01*
X154331401Y-98038495D01*
X154498495Y-97871401D01*
X154628425Y-97685842D01*
X154683002Y-97642217D01*
X154752500Y-97635023D01*
X154814855Y-97666546D01*
X154831575Y-97685842D01*
X154961281Y-97871082D01*
X154961505Y-97871401D01*
X155128599Y-98038495D01*
X155168209Y-98066230D01*
X155322165Y-98174032D01*
X155322167Y-98174033D01*
X155322170Y-98174035D01*
X155536337Y-98273903D01*
X155764592Y-98335063D01*
X155952918Y-98351539D01*
X155999999Y-98355659D01*
X156000000Y-98355659D01*
X156000001Y-98355659D01*
X156039234Y-98352226D01*
X156235408Y-98335063D01*
X156463663Y-98273903D01*
X156677830Y-98174035D01*
X156871401Y-98038495D01*
X157038495Y-97871401D01*
X157168425Y-97685842D01*
X157223002Y-97642217D01*
X157292500Y-97635023D01*
X157354855Y-97666546D01*
X157371575Y-97685842D01*
X157501281Y-97871082D01*
X157501505Y-97871401D01*
X157668599Y-98038495D01*
X157708209Y-98066230D01*
X157862165Y-98174032D01*
X157862167Y-98174033D01*
X157862170Y-98174035D01*
X158076337Y-98273903D01*
X158304592Y-98335063D01*
X158492918Y-98351539D01*
X158539999Y-98355659D01*
X158540000Y-98355659D01*
X158540001Y-98355659D01*
X158554855Y-98354359D01*
X158735326Y-98338569D01*
X158803823Y-98352335D01*
X158854006Y-98400950D01*
X158869940Y-98468979D01*
X158851125Y-98528069D01*
X158774211Y-98650476D01*
X158714631Y-98820745D01*
X158714630Y-98820750D01*
X158694435Y-98999996D01*
X158694435Y-99000003D01*
X158714630Y-99179249D01*
X158714631Y-99179254D01*
X158774211Y-99349523D01*
X158867341Y-99497737D01*
X158870184Y-99502262D01*
X158997738Y-99629816D01*
X159056843Y-99666954D01*
X159132721Y-99714632D01*
X159150478Y-99725789D01*
X159288860Y-99774211D01*
X159320745Y-99785368D01*
X159320750Y-99785369D01*
X159499996Y-99805565D01*
X159500000Y-99805565D01*
X159500004Y-99805565D01*
X159679249Y-99785369D01*
X159679252Y-99785368D01*
X159679255Y-99785368D01*
X159849522Y-99725789D01*
X160002262Y-99629816D01*
X160007331Y-99624746D01*
X160068649Y-99591261D01*
X160138341Y-99596242D01*
X160194276Y-99638111D01*
X160210573Y-99673297D01*
X160212332Y-99672682D01*
X160274211Y-99849523D01*
X160312744Y-99910847D01*
X160370184Y-100002262D01*
X160415705Y-100047783D01*
X160444779Y-100076857D01*
X160478263Y-100138181D01*
X160473278Y-100207872D01*
X160464485Y-100226537D01*
X160440423Y-100268213D01*
X160426839Y-100318909D01*
X160399499Y-100420943D01*
X160399499Y-100420945D01*
X160399499Y-100425276D01*
X160398448Y-100428921D01*
X160398438Y-100429003D01*
X160398425Y-100429001D01*
X160380493Y-100491248D01*
X160290976Y-100633711D01*
X160231396Y-100803980D01*
X160231396Y-100803983D01*
X160229154Y-100823878D01*
X160202085Y-100888291D01*
X160144489Y-100927845D01*
X160074652Y-100929980D01*
X160018253Y-100897672D01*
X159258936Y-100138355D01*
X159258934Y-100138352D01*
X159140063Y-100019481D01*
X159140055Y-100019475D01*
X159033491Y-99957951D01*
X159033490Y-99957950D01*
X159033490Y-99957951D01*
X159003131Y-99940423D01*
X158850403Y-99899499D01*
X158692289Y-99899499D01*
X158684693Y-99899499D01*
X158684677Y-99899500D01*
X156582412Y-99899500D01*
X156515373Y-99879815D01*
X156505097Y-99872445D01*
X156502263Y-99870185D01*
X156502262Y-99870184D01*
X156436389Y-99828793D01*
X156349523Y-99774211D01*
X156179254Y-99714631D01*
X156179249Y-99714630D01*
X156000004Y-99694435D01*
X155999996Y-99694435D01*
X155820750Y-99714630D01*
X155820745Y-99714631D01*
X155650476Y-99774211D01*
X155497737Y-99870184D01*
X155370184Y-99997737D01*
X155274211Y-100150476D01*
X155214631Y-100320745D01*
X155214630Y-100320750D01*
X155194435Y-100499996D01*
X155194435Y-100500003D01*
X155214630Y-100679249D01*
X155214631Y-100679254D01*
X155274211Y-100849523D01*
X155358230Y-100983238D01*
X155370184Y-101002262D01*
X155497738Y-101129816D01*
X155588080Y-101186582D01*
X155648636Y-101224632D01*
X155650478Y-101225789D01*
X155818636Y-101284630D01*
X155820745Y-101285368D01*
X155820750Y-101285369D01*
X155999996Y-101305565D01*
X156000000Y-101305565D01*
X156000004Y-101305565D01*
X156179249Y-101285369D01*
X156179252Y-101285368D01*
X156179255Y-101285368D01*
X156349522Y-101225789D01*
X156502262Y-101129816D01*
X156502267Y-101129810D01*
X156505097Y-101127555D01*
X156507275Y-101126665D01*
X156508158Y-101126111D01*
X156508255Y-101126265D01*
X156569783Y-101101145D01*
X156582412Y-101100500D01*
X158471249Y-101100500D01*
X158538288Y-101120185D01*
X158558930Y-101136819D01*
X160558522Y-103136411D01*
X160592007Y-103197734D01*
X160587023Y-103267426D01*
X160545151Y-103323359D01*
X160523246Y-103336474D01*
X160492171Y-103350964D01*
X160492169Y-103350965D01*
X160298597Y-103486505D01*
X160131505Y-103653597D01*
X160001575Y-103839158D01*
X159946998Y-103882783D01*
X159877500Y-103889977D01*
X159815145Y-103858454D01*
X159798425Y-103839158D01*
X159668494Y-103653597D01*
X159501402Y-103486506D01*
X159501395Y-103486501D01*
X159307834Y-103350967D01*
X159307830Y-103350965D01*
X159248629Y-103323359D01*
X159093663Y-103251097D01*
X159093659Y-103251096D01*
X159093655Y-103251094D01*
X158865413Y-103189938D01*
X158865403Y-103189936D01*
X158630001Y-103169341D01*
X158629999Y-103169341D01*
X158394596Y-103189936D01*
X158394586Y-103189938D01*
X158166344Y-103251094D01*
X158166335Y-103251098D01*
X157952171Y-103350964D01*
X157952169Y-103350965D01*
X157758597Y-103486505D01*
X157591505Y-103653597D01*
X157461575Y-103839158D01*
X157406998Y-103882783D01*
X157337500Y-103889977D01*
X157275145Y-103858454D01*
X157258425Y-103839158D01*
X157128494Y-103653597D01*
X156961402Y-103486506D01*
X156961395Y-103486501D01*
X156767834Y-103350967D01*
X156767830Y-103350965D01*
X156708629Y-103323359D01*
X156553663Y-103251097D01*
X156553659Y-103251096D01*
X156553655Y-103251094D01*
X156325413Y-103189938D01*
X156325403Y-103189936D01*
X156090001Y-103169341D01*
X156089999Y-103169341D01*
X155854596Y-103189936D01*
X155854586Y-103189938D01*
X155626344Y-103251094D01*
X155626335Y-103251098D01*
X155412171Y-103350964D01*
X155412169Y-103350965D01*
X155218597Y-103486505D01*
X155051505Y-103653597D01*
X154921575Y-103839158D01*
X154866998Y-103882783D01*
X154797500Y-103889977D01*
X154735145Y-103858454D01*
X154718425Y-103839158D01*
X154588494Y-103653597D01*
X154421402Y-103486506D01*
X154421395Y-103486501D01*
X154227831Y-103350965D01*
X154227826Y-103350962D01*
X154222091Y-103348288D01*
X154169653Y-103302113D01*
X154150500Y-103235908D01*
X154150500Y-102883412D01*
X154170185Y-102816373D01*
X154222989Y-102770618D01*
X154233531Y-102766375D01*
X154349522Y-102725789D01*
X154502262Y-102629816D01*
X154629816Y-102502262D01*
X154725789Y-102349522D01*
X154785368Y-102179255D01*
X154785369Y-102179249D01*
X154805565Y-102000003D01*
X154805565Y-101999996D01*
X154785369Y-101820750D01*
X154785368Y-101820745D01*
X154774190Y-101788800D01*
X154725789Y-101650478D01*
X154725617Y-101650205D01*
X154636099Y-101507738D01*
X154629816Y-101497738D01*
X154502262Y-101370184D01*
X154471793Y-101351039D01*
X154349523Y-101274211D01*
X154179254Y-101214631D01*
X154179249Y-101214630D01*
X154000004Y-101194435D01*
X153999996Y-101194435D01*
X153820750Y-101214630D01*
X153820745Y-101214631D01*
X153650476Y-101274211D01*
X153497737Y-101370184D01*
X153370184Y-101497737D01*
X153274210Y-101650478D01*
X153214630Y-101820750D01*
X153204837Y-101907668D01*
X153177770Y-101972082D01*
X153169299Y-101981465D01*
X153069480Y-102081284D01*
X153040613Y-102131284D01*
X152990423Y-102218215D01*
X152949499Y-102370943D01*
X152949499Y-102370945D01*
X152949499Y-102539046D01*
X152949500Y-102539059D01*
X152949500Y-103235908D01*
X152929815Y-103302947D01*
X152877914Y-103348286D01*
X152872173Y-103350963D01*
X152872169Y-103350965D01*
X152678597Y-103486505D01*
X152511505Y-103653597D01*
X152381575Y-103839158D01*
X152326998Y-103882783D01*
X152257500Y-103889977D01*
X152195145Y-103858454D01*
X152178425Y-103839158D01*
X152048494Y-103653597D01*
X151881402Y-103486506D01*
X151881395Y-103486501D01*
X151687831Y-103350965D01*
X151687826Y-103350962D01*
X151682091Y-103348288D01*
X151629653Y-103302113D01*
X151610500Y-103235908D01*
X151610500Y-102592412D01*
X151630185Y-102525373D01*
X151637555Y-102515097D01*
X151639810Y-102512267D01*
X151639816Y-102512262D01*
X151735789Y-102359522D01*
X151795368Y-102189255D01*
X151796495Y-102179254D01*
X151815565Y-102010003D01*
X151815565Y-102009996D01*
X151795369Y-101830750D01*
X151795368Y-101830745D01*
X151775586Y-101774211D01*
X151735789Y-101660478D01*
X151729504Y-101650476D01*
X151679158Y-101570351D01*
X151639816Y-101507738D01*
X151512262Y-101380184D01*
X151465878Y-101351039D01*
X151359523Y-101284211D01*
X151189254Y-101224631D01*
X151189249Y-101224630D01*
X151010004Y-101204435D01*
X151009996Y-101204435D01*
X150830750Y-101224630D01*
X150830745Y-101224631D01*
X150660476Y-101284211D01*
X150507737Y-101380184D01*
X150380184Y-101507737D01*
X150284211Y-101660476D01*
X150224631Y-101830745D01*
X150224630Y-101830750D01*
X150204435Y-102009996D01*
X150204435Y-102010003D01*
X150224630Y-102189249D01*
X150224631Y-102189254D01*
X150284211Y-102359523D01*
X150325670Y-102425504D01*
X150373216Y-102501173D01*
X150380185Y-102512263D01*
X150382445Y-102515097D01*
X150383334Y-102517275D01*
X150383889Y-102518158D01*
X150383734Y-102518255D01*
X150408855Y-102579783D01*
X150409500Y-102592412D01*
X150409500Y-103235908D01*
X150389815Y-103302947D01*
X150337914Y-103348286D01*
X150332173Y-103350963D01*
X150332169Y-103350965D01*
X150138597Y-103486505D01*
X149971505Y-103653597D01*
X149841575Y-103839158D01*
X149786998Y-103882783D01*
X149717500Y-103889977D01*
X149655145Y-103858454D01*
X149638425Y-103839158D01*
X149508494Y-103653597D01*
X149341402Y-103486506D01*
X149341395Y-103486501D01*
X149147831Y-103350965D01*
X149147826Y-103350962D01*
X149142091Y-103348288D01*
X149089653Y-103302113D01*
X149070500Y-103235908D01*
X149070500Y-102612940D01*
X149090185Y-102545901D01*
X149106819Y-102525259D01*
X149116981Y-102515097D01*
X149129816Y-102502262D01*
X149225789Y-102349522D01*
X149285368Y-102179255D01*
X149285369Y-102179249D01*
X149305565Y-102000003D01*
X149305565Y-101999996D01*
X149285369Y-101820750D01*
X149285368Y-101820745D01*
X149274190Y-101788800D01*
X149225789Y-101650478D01*
X149225617Y-101650205D01*
X149136099Y-101507738D01*
X149129816Y-101497738D01*
X149002262Y-101370184D01*
X148971793Y-101351039D01*
X148849523Y-101274211D01*
X148679254Y-101214631D01*
X148679249Y-101214630D01*
X148500004Y-101194435D01*
X148499996Y-101194435D01*
X148320750Y-101214630D01*
X148320745Y-101214631D01*
X148150476Y-101274211D01*
X147997737Y-101370184D01*
X147870184Y-101497737D01*
X147774211Y-101650476D01*
X147714631Y-101820745D01*
X147714630Y-101820750D01*
X147694435Y-101999996D01*
X147694435Y-102000003D01*
X147714630Y-102179249D01*
X147714631Y-102179254D01*
X147774211Y-102349522D01*
X147850494Y-102470925D01*
X147869500Y-102536897D01*
X147869500Y-103235908D01*
X147849815Y-103302947D01*
X147797914Y-103348286D01*
X147792173Y-103350963D01*
X147792169Y-103350965D01*
X147598597Y-103486505D01*
X147431505Y-103653597D01*
X147301575Y-103839158D01*
X147246998Y-103882783D01*
X147177500Y-103889977D01*
X147115145Y-103858454D01*
X147098425Y-103839158D01*
X146968494Y-103653597D01*
X146801402Y-103486506D01*
X146801395Y-103486501D01*
X146607831Y-103350965D01*
X146607826Y-103350962D01*
X146602091Y-103348288D01*
X146549653Y-103302113D01*
X146530500Y-103235908D01*
X146530500Y-102652412D01*
X146550185Y-102585373D01*
X146557555Y-102575097D01*
X146559810Y-102572267D01*
X146559816Y-102572262D01*
X146655789Y-102419522D01*
X146715368Y-102249255D01*
X146715369Y-102249249D01*
X146735565Y-102070003D01*
X146735565Y-102069996D01*
X146715369Y-101890750D01*
X146715368Y-101890745D01*
X146674591Y-101774211D01*
X146655789Y-101720478D01*
X146652114Y-101714630D01*
X146611804Y-101650476D01*
X146559816Y-101567738D01*
X146432262Y-101440184D01*
X146320858Y-101370184D01*
X146279523Y-101344211D01*
X146109254Y-101284631D01*
X146109249Y-101284630D01*
X145930004Y-101264435D01*
X145929996Y-101264435D01*
X145750750Y-101284630D01*
X145750745Y-101284631D01*
X145580476Y-101344211D01*
X145427737Y-101440184D01*
X145300184Y-101567737D01*
X145204211Y-101720476D01*
X145144631Y-101890745D01*
X145144630Y-101890750D01*
X145124435Y-102069996D01*
X145124435Y-102070003D01*
X145144630Y-102249249D01*
X145144631Y-102249254D01*
X145204211Y-102419523D01*
X145253630Y-102498172D01*
X145273036Y-102529057D01*
X145300185Y-102572263D01*
X145302445Y-102575097D01*
X145303334Y-102577275D01*
X145303889Y-102578158D01*
X145303734Y-102578255D01*
X145328855Y-102639783D01*
X145329500Y-102652412D01*
X145329500Y-103235908D01*
X145309815Y-103302947D01*
X145257914Y-103348286D01*
X145252173Y-103350963D01*
X145252169Y-103350965D01*
X145058597Y-103486505D01*
X144891505Y-103653597D01*
X144761575Y-103839158D01*
X144706998Y-103882783D01*
X144637500Y-103889977D01*
X144575145Y-103858454D01*
X144558425Y-103839158D01*
X144428494Y-103653597D01*
X144261402Y-103486506D01*
X144261395Y-103486501D01*
X144067834Y-103350967D01*
X144067830Y-103350965D01*
X144008629Y-103323359D01*
X143853663Y-103251097D01*
X143853659Y-103251096D01*
X143853655Y-103251094D01*
X143625413Y-103189938D01*
X143625403Y-103189936D01*
X143390001Y-103169341D01*
X143389999Y-103169341D01*
X143154596Y-103189936D01*
X143154586Y-103189938D01*
X143026243Y-103224327D01*
X142956393Y-103222664D01*
X142906469Y-103192233D01*
X141584142Y-101869906D01*
X140233187Y-100518952D01*
X140199703Y-100457630D01*
X140204687Y-100387938D01*
X140215876Y-100365299D01*
X140225788Y-100349524D01*
X140229441Y-100339085D01*
X140285368Y-100179255D01*
X140285792Y-100175494D01*
X140305565Y-100000003D01*
X140305565Y-99999996D01*
X140285369Y-99820750D01*
X140285368Y-99820745D01*
X140241170Y-99694435D01*
X140225789Y-99650478D01*
X140209622Y-99624749D01*
X140168698Y-99559618D01*
X140129816Y-99497738D01*
X140002262Y-99370184D01*
X139969377Y-99349521D01*
X139849523Y-99274211D01*
X139679254Y-99214631D01*
X139679249Y-99214630D01*
X139500004Y-99194435D01*
X139499996Y-99194435D01*
X139320750Y-99214630D01*
X139320745Y-99214631D01*
X139150476Y-99274211D01*
X138997737Y-99370184D01*
X138870184Y-99497737D01*
X138774211Y-99650476D01*
X138714631Y-99820745D01*
X138714630Y-99820750D01*
X138694435Y-99999996D01*
X138694435Y-100000003D01*
X138714630Y-100179249D01*
X138714631Y-100179254D01*
X138774211Y-100349523D01*
X138870182Y-100502259D01*
X138872441Y-100505091D01*
X138873330Y-100507268D01*
X138873889Y-100508158D01*
X138873733Y-100508255D01*
X138898854Y-100569776D01*
X138899499Y-100582410D01*
X138899499Y-100714054D01*
X138899498Y-100714054D01*
X138940423Y-100866787D01*
X138950104Y-100883553D01*
X138950103Y-100883553D01*
X138950105Y-100883555D01*
X139019475Y-101003709D01*
X139019481Y-101003717D01*
X139138349Y-101122585D01*
X139138355Y-101122590D01*
X140578584Y-102562819D01*
X140612069Y-102624142D01*
X140607085Y-102693834D01*
X140565213Y-102749767D01*
X140499749Y-102774184D01*
X140490903Y-102774500D01*
X137006670Y-102774500D01*
X137006654Y-102774499D01*
X136999058Y-102774499D01*
X136840943Y-102774499D01*
X136773898Y-102792464D01*
X136688214Y-102815423D01*
X136688209Y-102815426D01*
X136551290Y-102894475D01*
X136551286Y-102894478D01*
X136253529Y-103192234D01*
X136192206Y-103225718D01*
X136133755Y-103224327D01*
X136005413Y-103189938D01*
X136005403Y-103189936D01*
X135770001Y-103169341D01*
X135769999Y-103169341D01*
X135534596Y-103189936D01*
X135534583Y-103189939D01*
X135406241Y-103224327D01*
X135336392Y-103222664D01*
X135286468Y-103192233D01*
X130650002Y-98555767D01*
X130616517Y-98494444D01*
X130621501Y-98424752D01*
X130663373Y-98368819D01*
X130726874Y-98344558D01*
X130835408Y-98335063D01*
X131063663Y-98273903D01*
X131277830Y-98174035D01*
X131471401Y-98038495D01*
X131638495Y-97871401D01*
X131768730Y-97685405D01*
X131823307Y-97641781D01*
X131892805Y-97634587D01*
X131955160Y-97666110D01*
X131971879Y-97685405D01*
X132101890Y-97871078D01*
X132268917Y-98038105D01*
X132462421Y-98173600D01*
X132676507Y-98273429D01*
X132676516Y-98273433D01*
X132890000Y-98330634D01*
X132890000Y-97433012D01*
X132947007Y-97465925D01*
X133074174Y-97500000D01*
X133205826Y-97500000D01*
X133332993Y-97465925D01*
X133390000Y-97433012D01*
X133390000Y-98330633D01*
G37*
%TD.AperFunction*%
%TA.AperFunction,Conductor*%
G36*
X163023246Y-98211841D02*
G01*
X163156337Y-98273903D01*
X163384592Y-98335063D01*
X163572918Y-98351539D01*
X163619999Y-98355659D01*
X163620000Y-98355659D01*
X163620001Y-98355659D01*
X163634106Y-98354424D01*
X163647842Y-98353223D01*
X163716342Y-98366989D01*
X163766525Y-98415604D01*
X163782459Y-98483633D01*
X163759084Y-98549476D01*
X163746332Y-98564432D01*
X163631286Y-98679478D01*
X163519481Y-98791282D01*
X163519479Y-98791284D01*
X163502468Y-98820750D01*
X163469360Y-98878095D01*
X163463398Y-98888422D01*
X163449563Y-98912383D01*
X163429861Y-98938059D01*
X163370184Y-98997736D01*
X163274211Y-99150476D01*
X163214631Y-99320745D01*
X163214630Y-99320750D01*
X163194435Y-99499996D01*
X163194435Y-99500003D01*
X163214630Y-99679249D01*
X163214631Y-99679254D01*
X163274211Y-99849523D01*
X163353084Y-99975048D01*
X163370184Y-100002262D01*
X163497738Y-100129816D01*
X163650478Y-100225789D01*
X163747610Y-100259777D01*
X163820745Y-100285368D01*
X163820750Y-100285369D01*
X163999996Y-100305565D01*
X164000000Y-100305565D01*
X164000003Y-100305565D01*
X164036888Y-100301409D01*
X164105710Y-100313463D01*
X164157090Y-100360812D01*
X164174714Y-100428423D01*
X164152988Y-100494829D01*
X164138453Y-100512310D01*
X162981465Y-101669298D01*
X162920142Y-101702783D01*
X162907668Y-101704837D01*
X162820750Y-101714630D01*
X162650478Y-101774210D01*
X162497737Y-101870184D01*
X162370184Y-101997737D01*
X162274211Y-102150476D01*
X162214631Y-102320745D01*
X162214630Y-102320750D01*
X162194435Y-102499996D01*
X162194435Y-102500003D01*
X162214630Y-102679249D01*
X162214632Y-102679257D01*
X162258465Y-102804525D01*
X162262026Y-102874304D01*
X162227297Y-102934931D01*
X162165304Y-102967158D01*
X162095728Y-102960752D01*
X162053742Y-102933160D01*
X161102328Y-101981746D01*
X161068843Y-101920423D01*
X161073827Y-101850731D01*
X161115699Y-101794798D01*
X161176126Y-101770845D01*
X161196015Y-101768604D01*
X161196018Y-101768603D01*
X161196020Y-101768603D01*
X161366287Y-101709024D01*
X161519027Y-101613051D01*
X161646581Y-101485497D01*
X161742554Y-101332757D01*
X161802133Y-101162490D01*
X161802134Y-101162484D01*
X161822330Y-100983238D01*
X161822330Y-100983231D01*
X161802134Y-100803985D01*
X161802132Y-100803975D01*
X161771739Y-100717120D01*
X161761279Y-100687228D01*
X161757717Y-100617451D01*
X161790638Y-100558595D01*
X162604852Y-99744382D01*
X162604857Y-99744378D01*
X162615060Y-99734174D01*
X162615062Y-99734174D01*
X162726866Y-99622370D01*
X162805923Y-99485438D01*
X162842342Y-99349522D01*
X162846846Y-99332712D01*
X162846846Y-99174597D01*
X162846846Y-98324225D01*
X162866531Y-98257186D01*
X162919335Y-98211431D01*
X162988493Y-98201487D01*
X163023246Y-98211841D01*
G37*
%TD.AperFunction*%
%TA.AperFunction,Conductor*%
G36*
X185361555Y-70149966D02*
G01*
X185676793Y-70235924D01*
X185686087Y-70238856D01*
X186051907Y-70370326D01*
X186060949Y-70373984D01*
X186415276Y-70533840D01*
X186424015Y-70538205D01*
X186764631Y-70725443D01*
X186773000Y-70730482D01*
X187097842Y-70943967D01*
X187105788Y-70949650D01*
X187412801Y-71188033D01*
X187420275Y-71194323D01*
X187707581Y-71456145D01*
X187714537Y-71463005D01*
X187980330Y-71746622D01*
X187986724Y-71754008D01*
X188229376Y-72057681D01*
X188235169Y-72065547D01*
X188453153Y-72387365D01*
X188458309Y-72395663D01*
X188650287Y-72733652D01*
X188654773Y-72742329D01*
X188770970Y-72990591D01*
X188782663Y-73042949D01*
X188823414Y-97419234D01*
X188822707Y-97432660D01*
X188822095Y-97438363D01*
X188823513Y-97497242D01*
X188823549Y-97500027D01*
X188823559Y-97506245D01*
X188823503Y-97510155D01*
X188814234Y-97819762D01*
X188813113Y-97833098D01*
X188770635Y-98139144D01*
X188768082Y-98152282D01*
X188692871Y-98451959D01*
X188688917Y-98464745D01*
X188581850Y-98754560D01*
X188576542Y-98766846D01*
X188438854Y-99043454D01*
X188432252Y-99055095D01*
X188265566Y-99315236D01*
X188257748Y-99326099D01*
X188063993Y-99566766D01*
X188055050Y-99576723D01*
X187836478Y-99795113D01*
X187826514Y-99804047D01*
X187585693Y-99997598D01*
X187574824Y-100005407D01*
X187539118Y-100028244D01*
X187472036Y-100047783D01*
X187405039Y-100027952D01*
X187359400Y-99975048D01*
X187349607Y-99905868D01*
X187378770Y-99842376D01*
X187392589Y-99828802D01*
X187562558Y-99686183D01*
X187802412Y-99431953D01*
X188011130Y-99151596D01*
X188185889Y-98848904D01*
X188324326Y-98527971D01*
X188424569Y-98193136D01*
X188427938Y-98174034D01*
X188485260Y-97848938D01*
X188485259Y-97848938D01*
X188485262Y-97848927D01*
X188505453Y-97502261D01*
X188505585Y-97500003D01*
X188505585Y-97499996D01*
X188499766Y-97400099D01*
X188485262Y-97151073D01*
X188455635Y-96983049D01*
X188424571Y-96806872D01*
X188424569Y-96806865D01*
X188424569Y-96806864D01*
X188324326Y-96472029D01*
X188185889Y-96151096D01*
X188076429Y-95961505D01*
X188011129Y-95848402D01*
X187802415Y-95568050D01*
X187802410Y-95568044D01*
X187618999Y-95373641D01*
X187562558Y-95313817D01*
X187374854Y-95156315D01*
X187294813Y-95089152D01*
X187294805Y-95089146D01*
X187002796Y-94897088D01*
X186690458Y-94740226D01*
X186690452Y-94740223D01*
X186362012Y-94620681D01*
X186362009Y-94620680D01*
X186021915Y-94540077D01*
X185978519Y-94535004D01*
X185674759Y-94499500D01*
X185325241Y-94499500D01*
X185021480Y-94535004D01*
X184978085Y-94540077D01*
X184978083Y-94540077D01*
X184637990Y-94620680D01*
X184637987Y-94620681D01*
X184309547Y-94740223D01*
X184309541Y-94740226D01*
X183997203Y-94897088D01*
X183705194Y-95089146D01*
X183705186Y-95089152D01*
X183437442Y-95313817D01*
X183437440Y-95313819D01*
X183197589Y-95568044D01*
X183197584Y-95568050D01*
X182988870Y-95848402D01*
X182814113Y-96151091D01*
X182814107Y-96151104D01*
X182675674Y-96472027D01*
X182575430Y-96806865D01*
X182575428Y-96806872D01*
X182514739Y-97151061D01*
X182514738Y-97151072D01*
X182494415Y-97499996D01*
X182494415Y-97500003D01*
X182514738Y-97848927D01*
X182514739Y-97848938D01*
X182575428Y-98193127D01*
X182575430Y-98193134D01*
X182675674Y-98527972D01*
X182814107Y-98848895D01*
X182814113Y-98848908D01*
X182988870Y-99151597D01*
X183197584Y-99431949D01*
X183197589Y-99431955D01*
X183248054Y-99485444D01*
X183437442Y-99686183D01*
X183567260Y-99795113D01*
X183705186Y-99910847D01*
X183705194Y-99910853D01*
X183997203Y-100102911D01*
X184149204Y-100179249D01*
X184309549Y-100259777D01*
X184485267Y-100323733D01*
X184541530Y-100365158D01*
X184566466Y-100430426D01*
X184552157Y-100498815D01*
X184503145Y-100548611D01*
X184459042Y-100563193D01*
X184114562Y-100608545D01*
X184114555Y-100608546D01*
X183568720Y-100717120D01*
X183568680Y-100717130D01*
X183031118Y-100861169D01*
X183031103Y-100861173D01*
X182504096Y-101040069D01*
X182504085Y-101040073D01*
X181989900Y-101253055D01*
X181490744Y-101499211D01*
X181008762Y-101777484D01*
X181008737Y-101777500D01*
X180545994Y-102086695D01*
X180104457Y-102425498D01*
X179686013Y-102792464D01*
X179292464Y-103186013D01*
X178925498Y-103604457D01*
X178586695Y-104045994D01*
X178277500Y-104508737D01*
X178277484Y-104508762D01*
X177999211Y-104990744D01*
X177753055Y-105489900D01*
X177540073Y-106004085D01*
X177540069Y-106004096D01*
X177361173Y-106531103D01*
X177361169Y-106531118D01*
X177217130Y-107068680D01*
X177217120Y-107068720D01*
X177108546Y-107614555D01*
X177108544Y-107614566D01*
X177035900Y-108166353D01*
X177035900Y-108166359D01*
X176999500Y-108721722D01*
X176999500Y-108721733D01*
X176999500Y-108954050D01*
X176997948Y-108973606D01*
X176942914Y-109318200D01*
X176940494Y-109329777D01*
X176847024Y-109690136D01*
X176843512Y-109701429D01*
X176716135Y-110051245D01*
X176711563Y-110062154D01*
X176551435Y-110398245D01*
X176545844Y-110408668D01*
X176354425Y-110727971D01*
X176347867Y-110737813D01*
X176126899Y-111037425D01*
X176119433Y-111046598D01*
X175870924Y-111323796D01*
X175862617Y-111332217D01*
X175588827Y-111584476D01*
X175579757Y-111592066D01*
X175283171Y-111817100D01*
X175273418Y-111823791D01*
X174956760Y-112019533D01*
X174946415Y-112025265D01*
X174612541Y-112189951D01*
X174601696Y-112194672D01*
X174253636Y-112326803D01*
X174242391Y-112330468D01*
X173883347Y-112428832D01*
X173871803Y-112431410D01*
X173505004Y-112495121D01*
X173493268Y-112496587D01*
X173122074Y-112525062D01*
X173110251Y-112525403D01*
X172786495Y-112519295D01*
X172774062Y-112518267D01*
X172772450Y-112518242D01*
X172722512Y-112517468D01*
X172716184Y-112517209D01*
X172666370Y-112513887D01*
X172665844Y-112513921D01*
X172641276Y-112516135D01*
X172640679Y-112516204D01*
X172592258Y-112528378D01*
X172586082Y-112529764D01*
X172537088Y-112539453D01*
X172536534Y-112539641D01*
X172513358Y-112548145D01*
X172512880Y-112548334D01*
X172469246Y-112572634D01*
X172463640Y-112575571D01*
X172418829Y-112597608D01*
X172418370Y-112597914D01*
X172398196Y-112612119D01*
X172397737Y-112612460D01*
X172361892Y-112647213D01*
X172357235Y-112651503D01*
X172319653Y-112684388D01*
X172319270Y-112684823D01*
X172303476Y-112703747D01*
X172303125Y-112704189D01*
X172303125Y-112704190D01*
X172301957Y-112706143D01*
X172277489Y-112747045D01*
X172274104Y-112752389D01*
X172246315Y-112793880D01*
X172246076Y-112794363D01*
X172235679Y-112816812D01*
X172235473Y-112817287D01*
X172221805Y-112865312D01*
X172219917Y-112871355D01*
X172203814Y-112918619D01*
X172203710Y-112919140D01*
X172199482Y-112943488D01*
X172199402Y-112944036D01*
X172198628Y-112993965D01*
X172198369Y-113000289D01*
X172195048Y-113050118D01*
X172195084Y-113050690D01*
X172197360Y-113075947D01*
X171524205Y-156585310D01*
X171523504Y-156596694D01*
X171462270Y-157164230D01*
X171461222Y-157171771D01*
X171363230Y-157746467D01*
X171361720Y-157753929D01*
X171228647Y-158321502D01*
X171226682Y-158328858D01*
X171059030Y-158887185D01*
X171056618Y-158894407D01*
X170855007Y-159441418D01*
X170852156Y-159448477D01*
X170617361Y-159982066D01*
X170614082Y-159988938D01*
X170346975Y-160507128D01*
X170343280Y-160513785D01*
X170044884Y-161014585D01*
X170040788Y-161021003D01*
X169712218Y-161502549D01*
X169707736Y-161508703D01*
X169350214Y-161969200D01*
X169345362Y-161975068D01*
X168960280Y-162412722D01*
X168955078Y-162418281D01*
X168543849Y-162831491D01*
X168538315Y-162836721D01*
X168102483Y-163223930D01*
X168096638Y-163228809D01*
X167637895Y-163588516D01*
X167631762Y-163593028D01*
X167151796Y-163923911D01*
X167145398Y-163928038D01*
X166646035Y-164228838D01*
X166639396Y-164232565D01*
X166122495Y-164502160D01*
X166115639Y-164505471D01*
X165583182Y-164742829D01*
X165576136Y-164745715D01*
X165030109Y-164949948D01*
X165022900Y-164952395D01*
X164465375Y-165122732D01*
X164458028Y-165124732D01*
X163891089Y-165260533D01*
X163883634Y-165262078D01*
X163309443Y-165362826D01*
X163301907Y-165363911D01*
X162722618Y-165429231D01*
X162715029Y-165429852D01*
X162134383Y-165459415D01*
X162127904Y-165459575D01*
X135906607Y-165422815D01*
X135895238Y-165422277D01*
X135335684Y-165369962D01*
X135328104Y-165369017D01*
X134760953Y-165280493D01*
X134753445Y-165279083D01*
X134192811Y-165155802D01*
X134185405Y-165153932D01*
X133633442Y-164996370D01*
X133626165Y-164994048D01*
X133084943Y-164802796D01*
X133077822Y-164800030D01*
X132741520Y-164657333D01*
X132549393Y-164575811D01*
X132542483Y-164572625D01*
X132028855Y-164316292D01*
X132022135Y-164312675D01*
X131525284Y-164025212D01*
X131518793Y-164021185D01*
X131040586Y-163703676D01*
X131034355Y-163699257D01*
X130576586Y-163352891D01*
X130570640Y-163348096D01*
X130135097Y-162974227D01*
X130129456Y-162969075D01*
X130068405Y-162909761D01*
X130034039Y-162848928D01*
X130038017Y-162779171D01*
X130079077Y-162722639D01*
X130144182Y-162697280D01*
X130210461Y-162710013D01*
X130309549Y-162759777D01*
X130637989Y-162879319D01*
X130978086Y-162959923D01*
X131325241Y-163000500D01*
X131325248Y-163000500D01*
X131674752Y-163000500D01*
X131674759Y-163000500D01*
X132021914Y-162959923D01*
X132362011Y-162879319D01*
X132690451Y-162759777D01*
X133002793Y-162602913D01*
X133294811Y-162410849D01*
X133562558Y-162186183D01*
X133802412Y-161931953D01*
X134011130Y-161651596D01*
X134185889Y-161348904D01*
X134324326Y-161027971D01*
X134424569Y-160693136D01*
X134429240Y-160666649D01*
X134485260Y-160348938D01*
X134485259Y-160348938D01*
X134485262Y-160348927D01*
X134505585Y-160000000D01*
X134505585Y-159999996D01*
X163494415Y-159999996D01*
X163494415Y-160000003D01*
X163514738Y-160348927D01*
X163514739Y-160348938D01*
X163575428Y-160693127D01*
X163575430Y-160693134D01*
X163675674Y-161027972D01*
X163814107Y-161348895D01*
X163814113Y-161348908D01*
X163988870Y-161651597D01*
X164197584Y-161931949D01*
X164197589Y-161931955D01*
X164321463Y-162063253D01*
X164437442Y-162186183D01*
X164613903Y-162334251D01*
X164705186Y-162410847D01*
X164705194Y-162410853D01*
X164997203Y-162602911D01*
X164997207Y-162602913D01*
X165309549Y-162759777D01*
X165637989Y-162879319D01*
X165978086Y-162959923D01*
X166325241Y-163000500D01*
X166325248Y-163000500D01*
X166674752Y-163000500D01*
X166674759Y-163000500D01*
X167021914Y-162959923D01*
X167362011Y-162879319D01*
X167690451Y-162759777D01*
X168002793Y-162602913D01*
X168294811Y-162410849D01*
X168562558Y-162186183D01*
X168802412Y-161931953D01*
X169011130Y-161651596D01*
X169185889Y-161348904D01*
X169324326Y-161027971D01*
X169424569Y-160693136D01*
X169429240Y-160666649D01*
X169485260Y-160348938D01*
X169485259Y-160348938D01*
X169485262Y-160348927D01*
X169505585Y-160000000D01*
X169505022Y-159990341D01*
X169501554Y-159930796D01*
X169485262Y-159651073D01*
X169448924Y-159444989D01*
X169424571Y-159306872D01*
X169424569Y-159306865D01*
X169370145Y-159125076D01*
X169324326Y-158972029D01*
X169185889Y-158651096D01*
X169011130Y-158348404D01*
X168996579Y-158328858D01*
X168802415Y-158068050D01*
X168802410Y-158068044D01*
X168686433Y-157945117D01*
X168562558Y-157813817D01*
X168414488Y-157689572D01*
X168294813Y-157589152D01*
X168294805Y-157589146D01*
X168002796Y-157397088D01*
X167690458Y-157240226D01*
X167690452Y-157240223D01*
X167362012Y-157120681D01*
X167362009Y-157120680D01*
X167021915Y-157040077D01*
X166978519Y-157035004D01*
X166674759Y-156999500D01*
X166325241Y-156999500D01*
X166021480Y-157035004D01*
X165978085Y-157040077D01*
X165978083Y-157040077D01*
X165637990Y-157120680D01*
X165637987Y-157120681D01*
X165309547Y-157240223D01*
X165309541Y-157240226D01*
X164997203Y-157397088D01*
X164705194Y-157589146D01*
X164705186Y-157589152D01*
X164437442Y-157813817D01*
X164437440Y-157813819D01*
X164197589Y-158068044D01*
X164197584Y-158068050D01*
X163988870Y-158348402D01*
X163814113Y-158651091D01*
X163814107Y-158651104D01*
X163675674Y-158972027D01*
X163575430Y-159306865D01*
X163575428Y-159306872D01*
X163514739Y-159651061D01*
X163514738Y-159651072D01*
X163494415Y-159999996D01*
X134505585Y-159999996D01*
X134505022Y-159990341D01*
X134501554Y-159930796D01*
X134485262Y-159651073D01*
X134448924Y-159444989D01*
X134424571Y-159306872D01*
X134424569Y-159306865D01*
X134370145Y-159125076D01*
X134324326Y-158972029D01*
X134185889Y-158651096D01*
X134011130Y-158348404D01*
X133996579Y-158328858D01*
X133802415Y-158068050D01*
X133802410Y-158068044D01*
X133686433Y-157945117D01*
X133562558Y-157813817D01*
X133414488Y-157689572D01*
X133294813Y-157589152D01*
X133294805Y-157589146D01*
X133002796Y-157397088D01*
X132690458Y-157240226D01*
X132690452Y-157240223D01*
X132362012Y-157120681D01*
X132362009Y-157120680D01*
X132021915Y-157040077D01*
X131978519Y-157035004D01*
X131674759Y-156999500D01*
X131325241Y-156999500D01*
X131021480Y-157035004D01*
X130978085Y-157040077D01*
X130978083Y-157040077D01*
X130637990Y-157120680D01*
X130637987Y-157120681D01*
X130309547Y-157240223D01*
X130309541Y-157240226D01*
X129997203Y-157397088D01*
X129705194Y-157589146D01*
X129705186Y-157589152D01*
X129437442Y-157813817D01*
X129437440Y-157813819D01*
X129197589Y-158068044D01*
X129197584Y-158068050D01*
X128988870Y-158348402D01*
X128814113Y-158651091D01*
X128814107Y-158651104D01*
X128675674Y-158972027D01*
X128575430Y-159306865D01*
X128575428Y-159306872D01*
X128514739Y-159651061D01*
X128514738Y-159651072D01*
X128494415Y-159999996D01*
X128494415Y-160000003D01*
X128514738Y-160348927D01*
X128514739Y-160348938D01*
X128570760Y-160666649D01*
X128563016Y-160736088D01*
X128518959Y-160790317D01*
X128452578Y-160812119D01*
X128384948Y-160794571D01*
X128343151Y-160753352D01*
X128320066Y-160715984D01*
X128316253Y-160709365D01*
X128307555Y-160693127D01*
X128045188Y-160203332D01*
X128041807Y-160196524D01*
X127802434Y-159674804D01*
X127799464Y-159667768D01*
X127793016Y-159651073D01*
X127592662Y-159132282D01*
X127590132Y-159125076D01*
X127416697Y-158577878D01*
X127414615Y-158570529D01*
X127390031Y-158472337D01*
X127275201Y-158013690D01*
X127273578Y-158006237D01*
X127168715Y-157441866D01*
X127167558Y-157434366D01*
X127099805Y-156882221D01*
X127098892Y-156868438D01*
X126645464Y-113233736D01*
X126647815Y-113208393D01*
X126648098Y-113206965D01*
X126644878Y-113158686D01*
X126644613Y-113151779D01*
X126644111Y-113103428D01*
X126643720Y-113102029D01*
X126639428Y-113076928D01*
X126639331Y-113075473D01*
X126623727Y-113029677D01*
X126621673Y-113023040D01*
X126608683Y-112976497D01*
X126608682Y-112976495D01*
X126607934Y-112975231D01*
X126597301Y-112952115D01*
X126596829Y-112950730D01*
X126569913Y-112910547D01*
X126566219Y-112904681D01*
X126541608Y-112863058D01*
X126541606Y-112863056D01*
X126541605Y-112863054D01*
X126540556Y-112862027D01*
X126524303Y-112842452D01*
X126523490Y-112841238D01*
X126487106Y-112809402D01*
X126481996Y-112804671D01*
X126447458Y-112770844D01*
X126446172Y-112770119D01*
X126425413Y-112755423D01*
X126424311Y-112754459D01*
X126380932Y-112733127D01*
X126374772Y-112729880D01*
X126332651Y-112706142D01*
X126332648Y-112706141D01*
X126331220Y-112705774D01*
X126307373Y-112696955D01*
X126306052Y-112696305D01*
X126258628Y-112686927D01*
X126251840Y-112685385D01*
X126205016Y-112673359D01*
X126205000Y-112673357D01*
X126203537Y-112673373D01*
X126178215Y-112671027D01*
X126176771Y-112670741D01*
X126128535Y-112673958D01*
X126121574Y-112674226D01*
X126073234Y-112674728D01*
X126071754Y-112674939D01*
X126056644Y-112676151D01*
X125732887Y-112682261D01*
X125721064Y-112681920D01*
X125349868Y-112653448D01*
X125338132Y-112651982D01*
X124971332Y-112588274D01*
X124959791Y-112585696D01*
X124822718Y-112548145D01*
X124600743Y-112487334D01*
X124589498Y-112483669D01*
X124241447Y-112351543D01*
X124230602Y-112346823D01*
X123896722Y-112182136D01*
X123886376Y-112176404D01*
X123569704Y-111980656D01*
X123559951Y-111973964D01*
X123362028Y-111823791D01*
X123263367Y-111748933D01*
X123254300Y-111741345D01*
X123092281Y-111592066D01*
X122980508Y-111489081D01*
X122972206Y-111480665D01*
X122723696Y-111203466D01*
X122716230Y-111194293D01*
X122648836Y-111102913D01*
X122495255Y-110894671D01*
X122488700Y-110884833D01*
X122485394Y-110879319D01*
X122297282Y-110565528D01*
X122291695Y-110555111D01*
X122265438Y-110500000D01*
X122131562Y-110219007D01*
X122127000Y-110208122D01*
X121999618Y-109858288D01*
X121996108Y-109846999D01*
X121995017Y-109842794D01*
X121902640Y-109486634D01*
X121900221Y-109475061D01*
X121895524Y-109445652D01*
X121845197Y-109130510D01*
X121843645Y-109110955D01*
X121843645Y-108878569D01*
X121807242Y-108323220D01*
X121798636Y-108257853D01*
X121764687Y-107999996D01*
X122494415Y-107999996D01*
X122494415Y-108000003D01*
X122514738Y-108348927D01*
X122514739Y-108348938D01*
X122575428Y-108693127D01*
X122575430Y-108693134D01*
X122675674Y-109027972D01*
X122814107Y-109348895D01*
X122814113Y-109348908D01*
X122988870Y-109651597D01*
X123197584Y-109931949D01*
X123197589Y-109931955D01*
X123310134Y-110051245D01*
X123437442Y-110186183D01*
X123613903Y-110334251D01*
X123705186Y-110410847D01*
X123705194Y-110410853D01*
X123997203Y-110602911D01*
X123997207Y-110602913D01*
X124309549Y-110759777D01*
X124637989Y-110879319D01*
X124978086Y-110959923D01*
X125325241Y-111000500D01*
X125325248Y-111000500D01*
X125674752Y-111000500D01*
X125674759Y-111000500D01*
X126021914Y-110959923D01*
X126362011Y-110879319D01*
X126690451Y-110759777D01*
X127002793Y-110602913D01*
X127167436Y-110494625D01*
X127294805Y-110410853D01*
X127294805Y-110410852D01*
X127294811Y-110410849D01*
X127562558Y-110186183D01*
X127802412Y-109931953D01*
X128011130Y-109651596D01*
X128185889Y-109348904D01*
X128324326Y-109027971D01*
X128424569Y-108693136D01*
X128458624Y-108500003D01*
X128485260Y-108348938D01*
X128485259Y-108348938D01*
X128485262Y-108348927D01*
X128505585Y-108000000D01*
X128504409Y-107979815D01*
X128493604Y-107794297D01*
X128485262Y-107651073D01*
X128478823Y-107614555D01*
X128424571Y-107306872D01*
X128424569Y-107306865D01*
X128424569Y-107306864D01*
X128324326Y-106972029D01*
X128185889Y-106651096D01*
X128011130Y-106348404D01*
X128011129Y-106348402D01*
X127802415Y-106068050D01*
X127802410Y-106068044D01*
X127639323Y-105895183D01*
X127562558Y-105813817D01*
X127414488Y-105689572D01*
X127294813Y-105589152D01*
X127294805Y-105589146D01*
X127002796Y-105397088D01*
X126690458Y-105240226D01*
X126690452Y-105240223D01*
X126362012Y-105120681D01*
X126362009Y-105120680D01*
X126021915Y-105040077D01*
X125978519Y-105035004D01*
X125674759Y-104999500D01*
X125325241Y-104999500D01*
X125021480Y-105035004D01*
X124978085Y-105040077D01*
X124978083Y-105040077D01*
X124637990Y-105120680D01*
X124637987Y-105120681D01*
X124309547Y-105240223D01*
X124309541Y-105240226D01*
X123997203Y-105397088D01*
X123705194Y-105589146D01*
X123705186Y-105589152D01*
X123437442Y-105813817D01*
X123437440Y-105813819D01*
X123197589Y-106068044D01*
X123197584Y-106068050D01*
X122988870Y-106348402D01*
X122814113Y-106651091D01*
X122814107Y-106651104D01*
X122675674Y-106972027D01*
X122575430Y-107306865D01*
X122575428Y-107306872D01*
X122514739Y-107651061D01*
X122514738Y-107651072D01*
X122494415Y-107999996D01*
X121764687Y-107999996D01*
X121734594Y-107771420D01*
X121626013Y-107225560D01*
X121481964Y-106687971D01*
X121303064Y-106160953D01*
X121090079Y-105646765D01*
X121077216Y-105620681D01*
X120843920Y-105147606D01*
X120565643Y-104665620D01*
X120256435Y-104202859D01*
X119917632Y-103761323D01*
X119917627Y-103761317D01*
X119550666Y-103342878D01*
X119157122Y-102949334D01*
X118738683Y-102582373D01*
X118738681Y-102582372D01*
X118738676Y-102582367D01*
X118297140Y-102243564D01*
X117834379Y-101934356D01*
X117352393Y-101656079D01*
X116853245Y-101409925D01*
X116642224Y-101322517D01*
X116339047Y-101196936D01*
X116339039Y-101196933D01*
X116339036Y-101196932D01*
X116339037Y-101196932D01*
X115876947Y-101040073D01*
X115812029Y-101018036D01*
X115362832Y-100897672D01*
X115274441Y-100873987D01*
X115274437Y-100873986D01*
X114728583Y-100765406D01*
X114176777Y-100692757D01*
X114176781Y-100692757D01*
X113621424Y-100656354D01*
X113396342Y-100656354D01*
X113375373Y-100654568D01*
X113362852Y-100652419D01*
X113328169Y-100655614D01*
X113325826Y-100655830D01*
X113314455Y-100656353D01*
X113277257Y-100656353D01*
X113277249Y-100656354D01*
X113264980Y-100659641D01*
X113244265Y-100663342D01*
X111019930Y-100868221D01*
X110994924Y-100867882D01*
X110994047Y-100867892D01*
X110944532Y-100875006D01*
X110938275Y-100875743D01*
X110883700Y-100880770D01*
X110876487Y-100881901D01*
X110599854Y-100906417D01*
X110586404Y-100906876D01*
X110262948Y-100900342D01*
X110249525Y-100899340D01*
X109928683Y-100857786D01*
X109915453Y-100855335D01*
X109601012Y-100779254D01*
X109588122Y-100775384D01*
X109283771Y-100665667D01*
X109271375Y-100660421D01*
X108980708Y-100518362D01*
X108968954Y-100511805D01*
X108695403Y-100339085D01*
X108684429Y-100331292D01*
X108441790Y-100138355D01*
X108431203Y-100129937D01*
X108421151Y-100121012D01*
X108191226Y-99893381D01*
X108182197Y-99883414D01*
X107978318Y-99632230D01*
X107970415Y-99621335D01*
X107892093Y-99500003D01*
X107794949Y-99349512D01*
X107788284Y-99337842D01*
X107643452Y-99048882D01*
X107631012Y-98980132D01*
X107657716Y-98915567D01*
X107715087Y-98875689D01*
X107784911Y-98873159D01*
X107845019Y-98908780D01*
X107861695Y-98931323D01*
X107988870Y-99151597D01*
X108197584Y-99431949D01*
X108197589Y-99431955D01*
X108248054Y-99485444D01*
X108437442Y-99686183D01*
X108567260Y-99795113D01*
X108705186Y-99910847D01*
X108705194Y-99910853D01*
X108997203Y-100102911D01*
X109149204Y-100179249D01*
X109309549Y-100259777D01*
X109637989Y-100379319D01*
X109978086Y-100459923D01*
X110325241Y-100500500D01*
X110325248Y-100500500D01*
X110674752Y-100500500D01*
X110674759Y-100500500D01*
X111021914Y-100459923D01*
X111362011Y-100379319D01*
X111690451Y-100259777D01*
X112002793Y-100102913D01*
X112294811Y-99910849D01*
X112562558Y-99686183D01*
X112802412Y-99431953D01*
X113011130Y-99151596D01*
X113185889Y-98848904D01*
X113324326Y-98527971D01*
X113424569Y-98193136D01*
X113427938Y-98174034D01*
X113485260Y-97848938D01*
X113485259Y-97848938D01*
X113485262Y-97848927D01*
X113505453Y-97502261D01*
X113505585Y-97500003D01*
X113505585Y-97499996D01*
X113499766Y-97400099D01*
X113485262Y-97151073D01*
X113455635Y-96983049D01*
X113424571Y-96806872D01*
X113424569Y-96806865D01*
X113424569Y-96806864D01*
X113324326Y-96472029D01*
X113185889Y-96151096D01*
X113076429Y-95961505D01*
X113011129Y-95848402D01*
X112802415Y-95568050D01*
X112802410Y-95568044D01*
X112618999Y-95373641D01*
X112562558Y-95313817D01*
X112374854Y-95156315D01*
X112294813Y-95089152D01*
X112294805Y-95089146D01*
X112002796Y-94897088D01*
X111690458Y-94740226D01*
X111690452Y-94740223D01*
X111362012Y-94620681D01*
X111362009Y-94620680D01*
X111021915Y-94540077D01*
X110978519Y-94535004D01*
X110674759Y-94499500D01*
X110325241Y-94499500D01*
X110021480Y-94535004D01*
X109978085Y-94540077D01*
X109978083Y-94540077D01*
X109637990Y-94620680D01*
X109637987Y-94620681D01*
X109309547Y-94740223D01*
X109309541Y-94740226D01*
X108997203Y-94897088D01*
X108705194Y-95089146D01*
X108705186Y-95089152D01*
X108437442Y-95313817D01*
X108437440Y-95313819D01*
X108197589Y-95568044D01*
X108197584Y-95568050D01*
X107988870Y-95848402D01*
X107814113Y-96151091D01*
X107814107Y-96151104D01*
X107675674Y-96472027D01*
X107633891Y-96611593D01*
X107595806Y-96670170D01*
X107532097Y-96698859D01*
X107462992Y-96688549D01*
X107410431Y-96642515D01*
X107391102Y-96575373D01*
X107391103Y-96575223D01*
X107391356Y-96536335D01*
X107540074Y-73652135D01*
X111699500Y-73652135D01*
X111699500Y-76347870D01*
X111699501Y-76347871D01*
X111705908Y-76407483D01*
X111756202Y-76542328D01*
X111756206Y-76542335D01*
X111842452Y-76657544D01*
X111842455Y-76657547D01*
X111957664Y-76743793D01*
X111957671Y-76743797D01*
X111970911Y-76748735D01*
X112092517Y-76794091D01*
X112152127Y-76800500D01*
X112775500Y-76800499D01*
X112842539Y-76820183D01*
X112888294Y-76872987D01*
X112899500Y-76924499D01*
X112899500Y-82402644D01*
X112899499Y-82402662D01*
X112899499Y-82568368D01*
X112899498Y-82568368D01*
X112940423Y-82721101D01*
X112946588Y-82731776D01*
X112946590Y-82731787D01*
X112946593Y-82731786D01*
X113019475Y-82858023D01*
X113019481Y-82858031D01*
X113138349Y-82976899D01*
X113138355Y-82976904D01*
X118187804Y-88026353D01*
X118221289Y-88087676D01*
X118216305Y-88157368D01*
X118174433Y-88213301D01*
X118118608Y-88236648D01*
X118098228Y-88239720D01*
X118098226Y-88239720D01*
X118098223Y-88239721D01*
X118098219Y-88239722D01*
X117840358Y-88319262D01*
X117597230Y-88436346D01*
X117374258Y-88588365D01*
X117176442Y-88771910D01*
X117008185Y-88982898D01*
X116873258Y-89216599D01*
X116873256Y-89216603D01*
X116774666Y-89467804D01*
X116774664Y-89467811D01*
X116714616Y-89730898D01*
X116694451Y-89999995D01*
X116694451Y-90000004D01*
X116714616Y-90269101D01*
X116774664Y-90532188D01*
X116774666Y-90532195D01*
X116873256Y-90783396D01*
X116873258Y-90783400D01*
X116883567Y-90801255D01*
X117008185Y-91017102D01*
X117122558Y-91160521D01*
X117176442Y-91228089D01*
X117305543Y-91347876D01*
X117374259Y-91411635D01*
X117597226Y-91563651D01*
X117840359Y-91680738D01*
X118098228Y-91760280D01*
X118098229Y-91760280D01*
X118098232Y-91760281D01*
X118365063Y-91800499D01*
X118365068Y-91800499D01*
X118365071Y-91800500D01*
X118365072Y-91800500D01*
X118634928Y-91800500D01*
X118634929Y-91800500D01*
X118634936Y-91800499D01*
X118901767Y-91760281D01*
X118901768Y-91760280D01*
X118901772Y-91760280D01*
X119159641Y-91680738D01*
X119321699Y-91602695D01*
X119334738Y-91596416D01*
X119403679Y-91585064D01*
X119467813Y-91612786D01*
X119476220Y-91620455D01*
X130816333Y-102960568D01*
X130849818Y-103021891D01*
X130844834Y-103091583D01*
X130802962Y-103147516D01*
X130737498Y-103171933D01*
X130717844Y-103171777D01*
X130690001Y-103169341D01*
X130689999Y-103169341D01*
X130454596Y-103189936D01*
X130454586Y-103189938D01*
X130226344Y-103251094D01*
X130226335Y-103251098D01*
X130012171Y-103350964D01*
X130012169Y-103350965D01*
X129818597Y-103486505D01*
X129651506Y-103653596D01*
X129515965Y-103847170D01*
X129515962Y-103847175D01*
X129513289Y-103852909D01*
X129467115Y-103905346D01*
X129400909Y-103924500D01*
X128325097Y-103924500D01*
X128258058Y-103904815D01*
X128237416Y-103888181D01*
X115336818Y-90987583D01*
X115303333Y-90926260D01*
X115300499Y-90899902D01*
X115300499Y-88652129D01*
X115300498Y-88652123D01*
X115300497Y-88652116D01*
X115294091Y-88592517D01*
X115292542Y-88588365D01*
X115243797Y-88457671D01*
X115243793Y-88457664D01*
X115157547Y-88342455D01*
X115157544Y-88342452D01*
X115042335Y-88256206D01*
X115042328Y-88256202D01*
X114907482Y-88205908D01*
X114907483Y-88205908D01*
X114847883Y-88199501D01*
X114847881Y-88199500D01*
X114847873Y-88199500D01*
X114847864Y-88199500D01*
X112152129Y-88199500D01*
X112152123Y-88199501D01*
X112092516Y-88205908D01*
X111957671Y-88256202D01*
X111957664Y-88256206D01*
X111842455Y-88342452D01*
X111842452Y-88342455D01*
X111756206Y-88457664D01*
X111756202Y-88457671D01*
X111705908Y-88592517D01*
X111699501Y-88652116D01*
X111699501Y-88652123D01*
X111699500Y-88652135D01*
X111699500Y-91347870D01*
X111699501Y-91347876D01*
X111705908Y-91407483D01*
X111756202Y-91542328D01*
X111756206Y-91542335D01*
X111842452Y-91657544D01*
X111842455Y-91657547D01*
X111957664Y-91743793D01*
X111957671Y-91743797D01*
X112092517Y-91794091D01*
X112092516Y-91794091D01*
X112099444Y-91794835D01*
X112152127Y-91800500D01*
X114399902Y-91800499D01*
X114466941Y-91820184D01*
X114487583Y-91836818D01*
X127540139Y-104889374D01*
X127540149Y-104889385D01*
X127544479Y-104893715D01*
X127544480Y-104893716D01*
X127656284Y-105005520D01*
X127716140Y-105040077D01*
X127743095Y-105055639D01*
X127743097Y-105055641D01*
X127781151Y-105077611D01*
X127793215Y-105084577D01*
X127945943Y-105125501D01*
X127945946Y-105125501D01*
X128111653Y-105125501D01*
X128111669Y-105125500D01*
X129400909Y-105125500D01*
X129467948Y-105145185D01*
X129513292Y-105197097D01*
X129515965Y-105202830D01*
X129651505Y-105396401D01*
X129818599Y-105563495D01*
X129900268Y-105620680D01*
X130012165Y-105699032D01*
X130012167Y-105699033D01*
X130012170Y-105699035D01*
X130017898Y-105701706D01*
X130070339Y-105747872D01*
X130089500Y-105814090D01*
X130089500Y-114103330D01*
X130089499Y-114103348D01*
X130089499Y-114269054D01*
X130089498Y-114269054D01*
X130130423Y-114421785D01*
X130159358Y-114471900D01*
X130159359Y-114471904D01*
X130159360Y-114471904D01*
X130209479Y-114558714D01*
X130209481Y-114558717D01*
X130328349Y-114677585D01*
X130328355Y-114677590D01*
X131169298Y-115518533D01*
X131202783Y-115579856D01*
X131204837Y-115592330D01*
X131214630Y-115679249D01*
X131274210Y-115849521D01*
X131341150Y-115956055D01*
X131370184Y-116002262D01*
X131497738Y-116129816D01*
X131650478Y-116225789D01*
X131788909Y-116274228D01*
X131820745Y-116285368D01*
X131820750Y-116285369D01*
X131999996Y-116305565D01*
X132000000Y-116305565D01*
X132000004Y-116305565D01*
X132179249Y-116285369D01*
X132179252Y-116285368D01*
X132179255Y-116285368D01*
X132349522Y-116225789D01*
X132439527Y-116169234D01*
X132506764Y-116150234D01*
X132573599Y-116170601D01*
X132618814Y-116223869D01*
X132629500Y-116274228D01*
X132629500Y-124586223D01*
X132629499Y-124586241D01*
X132629499Y-124751947D01*
X132629498Y-124751947D01*
X132670423Y-124904678D01*
X132670425Y-124904682D01*
X132671225Y-124906068D01*
X132671228Y-124906072D01*
X132749477Y-125041605D01*
X132749481Y-125041610D01*
X132868349Y-125160478D01*
X132868355Y-125160483D01*
X135091414Y-127383542D01*
X135124899Y-127444865D01*
X135119915Y-127514557D01*
X135102929Y-127543713D01*
X135103705Y-127544257D01*
X134965060Y-127742262D01*
X134965059Y-127742264D01*
X134865193Y-127956428D01*
X134865189Y-127956437D01*
X134804033Y-128184679D01*
X134804031Y-128184689D01*
X134783436Y-128420092D01*
X134783436Y-128420093D01*
X134804031Y-128655496D01*
X134804033Y-128655506D01*
X134865189Y-128883748D01*
X134865191Y-128883752D01*
X134865192Y-128883756D01*
X134965060Y-129097923D01*
X134970314Y-129105426D01*
X134970319Y-129105433D01*
X134981126Y-129124152D01*
X135041561Y-129253755D01*
X135041563Y-129253759D01*
X135168265Y-129434708D01*
X135168270Y-129434714D01*
X135324473Y-129590917D01*
X135324479Y-129590922D01*
X135387149Y-129634804D01*
X135430774Y-129689381D01*
X135437968Y-129758879D01*
X135406445Y-129821234D01*
X135387150Y-129837954D01*
X135267689Y-129921601D01*
X135100600Y-130088690D01*
X134965060Y-130282262D01*
X134965059Y-130282264D01*
X134865193Y-130496428D01*
X134865189Y-130496437D01*
X134804033Y-130724679D01*
X134804031Y-130724689D01*
X134783436Y-130960092D01*
X134783436Y-130960093D01*
X134804031Y-131195496D01*
X134804033Y-131195506D01*
X134865189Y-131423748D01*
X134865191Y-131423752D01*
X134865192Y-131423756D01*
X134965060Y-131637923D01*
X134970319Y-131645433D01*
X134981126Y-131664152D01*
X135041561Y-131793755D01*
X135041563Y-131793759D01*
X135168265Y-131974708D01*
X135168270Y-131974714D01*
X135324473Y-132130917D01*
X135324479Y-132130922D01*
X135387149Y-132174804D01*
X135430774Y-132229381D01*
X135437968Y-132298879D01*
X135406445Y-132361234D01*
X135387150Y-132377954D01*
X135267689Y-132461601D01*
X135100600Y-132628690D01*
X134965060Y-132822262D01*
X134965059Y-132822264D01*
X134865193Y-133036428D01*
X134865189Y-133036437D01*
X134804033Y-133264679D01*
X134804031Y-133264689D01*
X134783436Y-133500092D01*
X134783436Y-133500093D01*
X134804031Y-133735496D01*
X134804033Y-133735506D01*
X134865189Y-133963748D01*
X134865191Y-133963752D01*
X134865192Y-133963756D01*
X134965060Y-134177923D01*
X134970319Y-134185433D01*
X134981126Y-134204152D01*
X135041561Y-134333755D01*
X135041563Y-134333759D01*
X135168265Y-134514708D01*
X135168270Y-134514714D01*
X135324473Y-134670917D01*
X135324479Y-134670922D01*
X135387149Y-134714804D01*
X135430774Y-134769381D01*
X135437968Y-134838879D01*
X135406445Y-134901234D01*
X135387150Y-134917954D01*
X135267689Y-135001601D01*
X135100600Y-135168690D01*
X134965060Y-135362262D01*
X134965059Y-135362264D01*
X134865193Y-135576428D01*
X134865189Y-135576437D01*
X134804033Y-135804679D01*
X134804031Y-135804689D01*
X134783436Y-136040092D01*
X134783436Y-136040093D01*
X134804031Y-136275496D01*
X134804033Y-136275506D01*
X134865189Y-136503748D01*
X134865191Y-136503752D01*
X134865192Y-136503756D01*
X134965060Y-136717923D01*
X134970314Y-136725426D01*
X134970319Y-136725433D01*
X134981126Y-136744152D01*
X135041561Y-136873755D01*
X135041563Y-136873759D01*
X135168265Y-137054708D01*
X135168270Y-137054714D01*
X135324473Y-137210917D01*
X135324479Y-137210922D01*
X135387149Y-137254804D01*
X135430774Y-137309381D01*
X135437968Y-137378879D01*
X135406445Y-137441234D01*
X135387150Y-137457954D01*
X135267689Y-137541601D01*
X135100600Y-137708690D01*
X134965060Y-137902262D01*
X134965059Y-137902264D01*
X134865193Y-138116428D01*
X134865189Y-138116437D01*
X134804033Y-138344679D01*
X134804031Y-138344689D01*
X134783436Y-138580092D01*
X134783436Y-138580093D01*
X134804031Y-138815496D01*
X134804033Y-138815506D01*
X134865189Y-139043748D01*
X134865191Y-139043752D01*
X134865192Y-139043756D01*
X134965060Y-139257923D01*
X134970319Y-139265433D01*
X134981126Y-139284152D01*
X135041561Y-139413755D01*
X135041563Y-139413759D01*
X135168265Y-139594708D01*
X135168270Y-139594714D01*
X135324473Y-139750917D01*
X135324479Y-139750922D01*
X135387149Y-139794804D01*
X135430774Y-139849381D01*
X135437968Y-139918879D01*
X135406445Y-139981234D01*
X135387150Y-139997954D01*
X135267689Y-140081601D01*
X135100600Y-140248690D01*
X134965060Y-140442262D01*
X134965059Y-140442264D01*
X134865193Y-140656428D01*
X134865189Y-140656437D01*
X134804033Y-140884679D01*
X134804031Y-140884689D01*
X134783436Y-141120092D01*
X134783436Y-141120093D01*
X134804031Y-141355496D01*
X134804033Y-141355506D01*
X134865189Y-141583748D01*
X134865191Y-141583752D01*
X134865192Y-141583756D01*
X134965060Y-141797923D01*
X134970319Y-141805433D01*
X134981126Y-141824152D01*
X135041561Y-141953755D01*
X135041563Y-141953759D01*
X135168265Y-142134708D01*
X135168270Y-142134714D01*
X135324473Y-142290917D01*
X135324479Y-142290922D01*
X135387149Y-142334804D01*
X135430774Y-142389381D01*
X135437968Y-142458879D01*
X135406445Y-142521234D01*
X135387150Y-142537954D01*
X135267689Y-142621601D01*
X135100600Y-142788690D01*
X134965060Y-142982262D01*
X134965059Y-142982264D01*
X134865193Y-143196428D01*
X134865189Y-143196437D01*
X134804033Y-143424679D01*
X134804031Y-143424689D01*
X134783436Y-143660092D01*
X134783436Y-143660093D01*
X134804031Y-143895496D01*
X134804033Y-143895506D01*
X134865189Y-144123748D01*
X134865191Y-144123752D01*
X134865192Y-144123756D01*
X134965060Y-144337923D01*
X134970319Y-144345433D01*
X134981126Y-144364152D01*
X135041561Y-144493755D01*
X135041563Y-144493759D01*
X135168265Y-144674708D01*
X135168270Y-144674714D01*
X135324473Y-144830917D01*
X135324479Y-144830922D01*
X135387149Y-144874804D01*
X135430774Y-144929381D01*
X135437968Y-144998879D01*
X135406445Y-145061234D01*
X135387150Y-145077954D01*
X135267689Y-145161601D01*
X135100600Y-145328690D01*
X134965060Y-145522262D01*
X134965059Y-145522264D01*
X134865193Y-145736428D01*
X134865189Y-145736437D01*
X134804033Y-145964679D01*
X134804031Y-145964689D01*
X134783436Y-146200092D01*
X134783436Y-146200093D01*
X134804031Y-146435496D01*
X134804033Y-146435506D01*
X134865189Y-146663748D01*
X134865191Y-146663752D01*
X134865192Y-146663756D01*
X134965060Y-146877923D01*
X134970319Y-146885433D01*
X134981126Y-146904152D01*
X135041561Y-147033755D01*
X135041563Y-147033759D01*
X135154065Y-147194428D01*
X135168269Y-147214713D01*
X135324475Y-147370919D01*
X135324477Y-147370920D01*
X135324479Y-147370922D01*
X135387585Y-147415109D01*
X135431210Y-147469685D01*
X135438404Y-147539184D01*
X135406881Y-147601539D01*
X135387586Y-147618258D01*
X135268024Y-147701977D01*
X135268015Y-147701984D01*
X135100986Y-147869013D01*
X135100981Y-147869019D01*
X134965495Y-148062513D01*
X134965494Y-148062515D01*
X134865665Y-148276600D01*
X134865662Y-148276606D01*
X134808459Y-148490092D01*
X134808459Y-148490093D01*
X135706083Y-148490093D01*
X135673170Y-148547100D01*
X135639095Y-148674267D01*
X135639095Y-148805919D01*
X135673170Y-148933086D01*
X135706083Y-148990093D01*
X134808459Y-148990093D01*
X134865662Y-149203579D01*
X134865665Y-149203585D01*
X134965495Y-149417671D01*
X134970754Y-149425182D01*
X134981561Y-149443901D01*
X135041995Y-149573502D01*
X135041996Y-149573504D01*
X135087353Y-149638280D01*
X135087354Y-149638281D01*
X135716865Y-149008769D01*
X135738996Y-149047100D01*
X135790901Y-149099005D01*
X135834219Y-149174033D01*
X135905155Y-149244969D01*
X135992034Y-149295129D01*
X136088935Y-149321093D01*
X136111646Y-149321093D01*
X135440905Y-149991833D01*
X135445257Y-150041579D01*
X135431490Y-150110079D01*
X135392852Y-150153961D01*
X135267692Y-150241598D01*
X135100600Y-150408690D01*
X134965060Y-150602262D01*
X134965059Y-150602264D01*
X134865193Y-150816428D01*
X134865189Y-150816437D01*
X134804033Y-151044679D01*
X134804031Y-151044689D01*
X134783436Y-151280092D01*
X134783436Y-151280093D01*
X134804031Y-151515496D01*
X134804033Y-151515506D01*
X134865189Y-151743748D01*
X134865191Y-151743752D01*
X134865192Y-151743756D01*
X134965060Y-151957923D01*
X134970314Y-151965426D01*
X134970319Y-151965433D01*
X134981126Y-151984152D01*
X135041561Y-152113755D01*
X135041563Y-152113759D01*
X135168265Y-152294708D01*
X135168270Y-152294714D01*
X135324473Y-152450917D01*
X135324479Y-152450922D01*
X135505428Y-152577624D01*
X135505430Y-152577625D01*
X135505433Y-152577627D01*
X135705645Y-152670987D01*
X135919027Y-152728163D01*
X136076218Y-152741915D01*
X136139093Y-152747416D01*
X136139095Y-152747416D01*
X136139097Y-152747416D01*
X136194112Y-152742602D01*
X136359163Y-152728163D01*
X136572545Y-152670987D01*
X136772757Y-152577627D01*
X136953715Y-152450919D01*
X137109921Y-152294713D01*
X137236629Y-152113755D01*
X137297065Y-151984146D01*
X137307870Y-151965433D01*
X137313130Y-151957923D01*
X137412998Y-151743756D01*
X137474158Y-151515501D01*
X137494754Y-151280093D01*
X137491656Y-151244689D01*
X137475141Y-151055922D01*
X137488907Y-150987422D01*
X137510985Y-150957436D01*
X138368713Y-150099709D01*
X138368716Y-150099708D01*
X138480520Y-149987904D01*
X138530639Y-149901092D01*
X138559577Y-149850973D01*
X138600500Y-149698245D01*
X138600500Y-149540131D01*
X138600500Y-149190093D01*
X160299564Y-149190093D01*
X160348670Y-149373363D01*
X160348675Y-149373377D01*
X160441995Y-149573503D01*
X160441997Y-149573506D01*
X160444463Y-149577028D01*
X160455268Y-149595742D01*
X160465494Y-149617672D01*
X160482983Y-149642650D01*
X160482984Y-149642650D01*
X160935542Y-149190093D01*
X160299564Y-149190093D01*
X138600500Y-149190093D01*
X138600500Y-148690092D01*
X160299563Y-148690092D01*
X160299564Y-148690093D01*
X160935542Y-148690093D01*
X160935542Y-148690092D01*
X160482985Y-148237535D01*
X160482984Y-148237535D01*
X160465495Y-148262513D01*
X160455267Y-148284446D01*
X160444476Y-148303139D01*
X160441999Y-148306677D01*
X160441991Y-148306690D01*
X160348675Y-148506808D01*
X160348670Y-148506822D01*
X160299563Y-148690092D01*
X138600500Y-148690092D01*
X138600500Y-146883062D01*
X138620185Y-146816023D01*
X138672989Y-146770268D01*
X138742147Y-146760324D01*
X138765448Y-146766018D01*
X138820745Y-146785368D01*
X138820748Y-146785368D01*
X138820750Y-146785369D01*
X138999996Y-146805565D01*
X139000000Y-146805565D01*
X139000004Y-146805565D01*
X139179249Y-146785369D01*
X139179252Y-146785368D01*
X139179255Y-146785368D01*
X139349522Y-146725789D01*
X139502262Y-146629816D01*
X139629816Y-146502262D01*
X139725789Y-146349522D01*
X139785368Y-146179255D01*
X139785369Y-146179249D01*
X139805565Y-146000003D01*
X139805565Y-145999996D01*
X139785369Y-145820750D01*
X139785368Y-145820745D01*
X139725788Y-145650476D01*
X139692645Y-145597730D01*
X139629816Y-145497738D01*
X139629814Y-145497736D01*
X139629813Y-145497734D01*
X139627550Y-145494896D01*
X139626659Y-145492715D01*
X139626111Y-145491842D01*
X139626264Y-145491745D01*
X139601144Y-145430209D01*
X139600500Y-145417587D01*
X139600500Y-143300096D01*
X139620185Y-143233057D01*
X139636814Y-143212420D01*
X152018535Y-130830698D01*
X152079856Y-130797215D01*
X152092311Y-130795163D01*
X152179255Y-130785368D01*
X152349522Y-130725789D01*
X152502262Y-130629816D01*
X152629816Y-130502262D01*
X152725789Y-130349522D01*
X152785368Y-130179255D01*
X152785369Y-130179249D01*
X152805565Y-130000003D01*
X152805565Y-129999996D01*
X152785369Y-129820750D01*
X152785368Y-129820745D01*
X152725788Y-129650476D01*
X152629815Y-129497737D01*
X152502262Y-129370184D01*
X152349521Y-129274210D01*
X152332447Y-129268236D01*
X152275671Y-129227514D01*
X152249923Y-129162562D01*
X152263379Y-129094000D01*
X152285717Y-129063516D01*
X160104934Y-121244299D01*
X160166255Y-121210816D01*
X160235947Y-121215800D01*
X160291880Y-121257672D01*
X160312388Y-121299888D01*
X160348199Y-121433538D01*
X160348200Y-121433540D01*
X160348201Y-121433543D01*
X160362290Y-121463757D01*
X160441562Y-121633758D01*
X160444028Y-121637279D01*
X160454833Y-121655993D01*
X160465058Y-121677921D01*
X160465060Y-121677924D01*
X160600596Y-121871488D01*
X160600601Y-121871495D01*
X160767692Y-122038586D01*
X160767698Y-122038591D01*
X160953253Y-122168518D01*
X160996878Y-122223095D01*
X161004072Y-122292593D01*
X160972549Y-122354948D01*
X160953253Y-122371668D01*
X160767692Y-122501598D01*
X160600600Y-122668690D01*
X160465061Y-122862261D01*
X160454832Y-122884195D01*
X160444041Y-122902888D01*
X160441564Y-122906426D01*
X160441559Y-122906435D01*
X160348202Y-123106641D01*
X160348199Y-123106647D01*
X160291025Y-123320022D01*
X160291024Y-123320030D01*
X160271772Y-123540090D01*
X160271772Y-123540095D01*
X160291024Y-123760155D01*
X160291025Y-123760163D01*
X160348199Y-123973538D01*
X160348200Y-123973540D01*
X160348201Y-123973543D01*
X160401628Y-124088118D01*
X160441562Y-124173758D01*
X160444028Y-124177279D01*
X160454833Y-124195993D01*
X160465058Y-124217921D01*
X160465060Y-124217924D01*
X160560838Y-124354708D01*
X160591959Y-124399154D01*
X160600596Y-124411488D01*
X160600601Y-124411495D01*
X160767692Y-124578586D01*
X160767698Y-124578591D01*
X160953253Y-124708518D01*
X160996878Y-124763095D01*
X161004072Y-124832593D01*
X160972549Y-124894948D01*
X160953253Y-124911668D01*
X160767692Y-125041598D01*
X160600600Y-125208690D01*
X160465061Y-125402261D01*
X160454832Y-125424195D01*
X160444041Y-125442888D01*
X160441564Y-125446426D01*
X160441559Y-125446435D01*
X160348202Y-125646641D01*
X160348199Y-125646647D01*
X160291025Y-125860022D01*
X160291024Y-125860030D01*
X160271772Y-126080090D01*
X160271772Y-126080095D01*
X160291024Y-126300155D01*
X160291025Y-126300163D01*
X160348199Y-126513538D01*
X160348200Y-126513540D01*
X160348201Y-126513543D01*
X160362290Y-126543757D01*
X160441562Y-126713758D01*
X160444028Y-126717279D01*
X160454833Y-126735993D01*
X160465058Y-126757921D01*
X160465060Y-126757924D01*
X160600596Y-126951488D01*
X160600601Y-126951495D01*
X160767692Y-127118586D01*
X160767698Y-127118591D01*
X160953253Y-127248518D01*
X160996878Y-127303095D01*
X161004072Y-127372593D01*
X160972549Y-127434948D01*
X160953253Y-127451668D01*
X160767692Y-127581598D01*
X160600600Y-127748690D01*
X160465061Y-127942261D01*
X160454832Y-127964195D01*
X160444041Y-127982888D01*
X160441564Y-127986426D01*
X160441559Y-127986435D01*
X160348202Y-128186641D01*
X160348199Y-128186647D01*
X160291025Y-128400022D01*
X160291024Y-128400030D01*
X160271772Y-128620090D01*
X160271772Y-128620095D01*
X160291024Y-128840155D01*
X160291025Y-128840163D01*
X160348199Y-129053538D01*
X160348200Y-129053540D01*
X160348201Y-129053543D01*
X160399037Y-129162562D01*
X160441562Y-129253758D01*
X160444028Y-129257279D01*
X160454833Y-129275993D01*
X160465058Y-129297921D01*
X160465060Y-129297924D01*
X160600596Y-129491488D01*
X160600601Y-129491495D01*
X160767692Y-129658586D01*
X160767698Y-129658591D01*
X160953253Y-129788518D01*
X160996878Y-129843095D01*
X161004072Y-129912593D01*
X160972549Y-129974948D01*
X160953253Y-129991668D01*
X160767692Y-130121598D01*
X160600600Y-130288690D01*
X160465061Y-130482261D01*
X160454832Y-130504195D01*
X160444041Y-130522888D01*
X160441564Y-130526426D01*
X160441559Y-130526435D01*
X160348202Y-130726641D01*
X160348199Y-130726647D01*
X160291025Y-130940022D01*
X160291024Y-130940030D01*
X160271772Y-131160090D01*
X160271772Y-131160095D01*
X160291024Y-131380155D01*
X160291025Y-131380163D01*
X160348199Y-131593538D01*
X160348200Y-131593540D01*
X160348201Y-131593543D01*
X160395009Y-131693923D01*
X160441562Y-131793758D01*
X160444028Y-131797279D01*
X160454833Y-131815993D01*
X160465058Y-131837921D01*
X160465060Y-131837924D01*
X160600596Y-132031488D01*
X160600601Y-132031495D01*
X160767692Y-132198586D01*
X160767698Y-132198591D01*
X160953253Y-132328518D01*
X160996878Y-132383095D01*
X161004072Y-132452593D01*
X160972549Y-132514948D01*
X160953253Y-132531668D01*
X160767692Y-132661598D01*
X160600600Y-132828690D01*
X160465061Y-133022261D01*
X160454832Y-133044195D01*
X160444041Y-133062888D01*
X160441564Y-133066426D01*
X160441559Y-133066435D01*
X160348202Y-133266641D01*
X160348199Y-133266647D01*
X160291025Y-133480022D01*
X160291024Y-133480030D01*
X160271772Y-133700090D01*
X160271772Y-133700095D01*
X160291024Y-133920155D01*
X160291025Y-133920163D01*
X160348199Y-134133538D01*
X160348200Y-134133540D01*
X160348201Y-134133543D01*
X160401628Y-134248118D01*
X160441562Y-134333758D01*
X160444028Y-134337279D01*
X160454833Y-134355993D01*
X160465058Y-134377921D01*
X160465060Y-134377924D01*
X160600596Y-134571488D01*
X160600601Y-134571495D01*
X160767692Y-134738586D01*
X160767698Y-134738591D01*
X160953253Y-134868518D01*
X160996878Y-134923095D01*
X161004072Y-134992593D01*
X160972549Y-135054948D01*
X160953253Y-135071668D01*
X160767692Y-135201598D01*
X160600600Y-135368690D01*
X160465061Y-135562261D01*
X160454832Y-135584195D01*
X160444041Y-135602888D01*
X160441564Y-135606426D01*
X160441559Y-135606435D01*
X160348202Y-135806641D01*
X160348199Y-135806647D01*
X160291025Y-136020022D01*
X160291024Y-136020030D01*
X160271772Y-136240090D01*
X160271772Y-136240095D01*
X160291024Y-136460155D01*
X160291025Y-136460163D01*
X160348199Y-136673538D01*
X160348200Y-136673540D01*
X160348201Y-136673543D01*
X160401628Y-136788118D01*
X160441562Y-136873758D01*
X160444028Y-136877279D01*
X160454833Y-136895993D01*
X160465058Y-136917921D01*
X160465060Y-136917924D01*
X160600596Y-137111488D01*
X160600601Y-137111495D01*
X160767692Y-137278586D01*
X160767698Y-137278591D01*
X160953253Y-137408518D01*
X160996878Y-137463095D01*
X161004072Y-137532593D01*
X160972549Y-137594948D01*
X160953253Y-137611668D01*
X160767692Y-137741598D01*
X160600600Y-137908690D01*
X160465061Y-138102261D01*
X160454832Y-138124195D01*
X160444041Y-138142888D01*
X160441564Y-138146426D01*
X160441559Y-138146435D01*
X160348202Y-138346641D01*
X160348199Y-138346647D01*
X160291025Y-138560022D01*
X160291024Y-138560030D01*
X160271772Y-138780090D01*
X160271772Y-138780095D01*
X160291024Y-139000155D01*
X160291025Y-139000163D01*
X160348199Y-139213538D01*
X160348200Y-139213540D01*
X160348201Y-139213543D01*
X160401628Y-139328118D01*
X160441562Y-139413758D01*
X160444028Y-139417279D01*
X160454833Y-139435993D01*
X160465058Y-139457921D01*
X160465060Y-139457924D01*
X160600596Y-139651488D01*
X160600601Y-139651495D01*
X160767692Y-139818586D01*
X160767698Y-139818591D01*
X160953253Y-139948518D01*
X160996878Y-140003095D01*
X161004072Y-140072593D01*
X160972549Y-140134948D01*
X160953253Y-140151668D01*
X160767692Y-140281598D01*
X160600600Y-140448690D01*
X160465061Y-140642261D01*
X160454832Y-140664195D01*
X160444041Y-140682888D01*
X160441564Y-140686426D01*
X160441559Y-140686435D01*
X160348202Y-140886641D01*
X160348199Y-140886647D01*
X160291025Y-141100022D01*
X160291024Y-141100030D01*
X160271772Y-141320090D01*
X160271772Y-141320095D01*
X160291024Y-141540155D01*
X160291025Y-141540163D01*
X160348199Y-141753538D01*
X160348200Y-141753540D01*
X160348201Y-141753543D01*
X160401628Y-141868118D01*
X160441562Y-141953758D01*
X160444028Y-141957279D01*
X160454833Y-141975993D01*
X160465058Y-141997921D01*
X160465060Y-141997924D01*
X160600596Y-142191488D01*
X160600601Y-142191495D01*
X160767692Y-142358586D01*
X160767698Y-142358591D01*
X160953253Y-142488518D01*
X160996878Y-142543095D01*
X161004072Y-142612593D01*
X160972549Y-142674948D01*
X160953253Y-142691668D01*
X160767692Y-142821598D01*
X160600600Y-142988690D01*
X160465061Y-143182261D01*
X160454832Y-143204195D01*
X160444041Y-143222888D01*
X160441564Y-143226426D01*
X160441559Y-143226435D01*
X160348202Y-143426641D01*
X160348199Y-143426647D01*
X160291025Y-143640022D01*
X160291024Y-143640030D01*
X160271772Y-143860090D01*
X160271772Y-143860095D01*
X160291024Y-144080155D01*
X160291025Y-144080163D01*
X160348199Y-144293538D01*
X160348200Y-144293540D01*
X160348201Y-144293543D01*
X160401628Y-144408118D01*
X160441562Y-144493758D01*
X160444028Y-144497279D01*
X160454833Y-144515993D01*
X160465058Y-144537921D01*
X160465060Y-144537924D01*
X160600596Y-144731488D01*
X160600601Y-144731495D01*
X160767692Y-144898586D01*
X160767698Y-144898591D01*
X160953253Y-145028518D01*
X160996878Y-145083095D01*
X161004072Y-145152593D01*
X160972549Y-145214948D01*
X160953253Y-145231668D01*
X160767692Y-145361598D01*
X160600600Y-145528690D01*
X160465061Y-145722261D01*
X160454832Y-145744195D01*
X160444041Y-145762888D01*
X160441564Y-145766426D01*
X160441559Y-145766435D01*
X160348202Y-145966641D01*
X160348199Y-145966647D01*
X160291025Y-146180022D01*
X160291024Y-146180030D01*
X160271772Y-146400090D01*
X160271772Y-146400095D01*
X160291024Y-146620155D01*
X160291025Y-146620163D01*
X160348199Y-146833538D01*
X160348200Y-146833540D01*
X160348201Y-146833543D01*
X160401628Y-146948118D01*
X160441562Y-147033758D01*
X160444028Y-147037279D01*
X160454833Y-147055993D01*
X160465058Y-147077921D01*
X160465060Y-147077924D01*
X160525498Y-147164238D01*
X160600600Y-147271494D01*
X160767694Y-147438588D01*
X160911360Y-147539184D01*
X160953690Y-147568824D01*
X160997314Y-147623401D01*
X161004507Y-147692900D01*
X160972985Y-147755254D01*
X160953689Y-147771974D01*
X160818905Y-147866349D01*
X160818904Y-147866350D01*
X161433816Y-148481261D01*
X161332088Y-148539994D01*
X161238996Y-148633086D01*
X161173170Y-148747100D01*
X161139095Y-148874267D01*
X161139095Y-149005919D01*
X161173170Y-149133086D01*
X161238996Y-149247100D01*
X161332088Y-149340192D01*
X161433815Y-149398924D01*
X160818904Y-150013834D01*
X160953690Y-150108212D01*
X160997314Y-150162789D01*
X161004507Y-150232288D01*
X160972985Y-150294642D01*
X160953690Y-150311362D01*
X160767689Y-150441601D01*
X160600600Y-150608690D01*
X160465061Y-150802261D01*
X160454832Y-150824195D01*
X160444041Y-150842888D01*
X160441564Y-150846426D01*
X160441559Y-150846435D01*
X160348202Y-151046641D01*
X160348199Y-151046647D01*
X160291025Y-151260022D01*
X160291024Y-151260030D01*
X160271772Y-151480090D01*
X160271772Y-151480095D01*
X160291024Y-151700155D01*
X160291025Y-151700163D01*
X160348199Y-151913538D01*
X160348200Y-151913540D01*
X160348201Y-151913543D01*
X160401628Y-152028118D01*
X160441562Y-152113758D01*
X160444028Y-152117279D01*
X160454833Y-152135993D01*
X160465058Y-152157921D01*
X160465060Y-152157924D01*
X160560838Y-152294708D01*
X160600600Y-152351494D01*
X160767694Y-152518588D01*
X160852006Y-152577624D01*
X160961260Y-152654125D01*
X160961262Y-152654126D01*
X160961265Y-152654128D01*
X161175432Y-152753996D01*
X161403687Y-152815156D01*
X161592013Y-152831632D01*
X161639094Y-152835752D01*
X161639095Y-152835752D01*
X161639096Y-152835752D01*
X161678329Y-152832319D01*
X161874503Y-152815156D01*
X162102758Y-152753996D01*
X162316925Y-152654128D01*
X162510496Y-152518588D01*
X162677590Y-152351494D01*
X162813130Y-152157923D01*
X162912998Y-151943756D01*
X162974158Y-151715501D01*
X162994754Y-151480093D01*
X162974158Y-151244685D01*
X162921095Y-151046647D01*
X162913000Y-151016437D01*
X162912999Y-151016436D01*
X162912998Y-151016430D01*
X162813130Y-150802264D01*
X162677590Y-150608692D01*
X162677589Y-150608690D01*
X162510497Y-150441599D01*
X162510496Y-150441598D01*
X162324500Y-150311362D01*
X162280876Y-150256785D01*
X162273683Y-150187286D01*
X162305205Y-150124932D01*
X162324500Y-150108212D01*
X162510177Y-149978198D01*
X162677200Y-149811175D01*
X162812695Y-149617671D01*
X162912524Y-149403585D01*
X162912527Y-149403579D01*
X162969731Y-149190093D01*
X162072107Y-149190093D01*
X162105020Y-149133086D01*
X162139095Y-149005919D01*
X162139095Y-148874267D01*
X162105020Y-148747100D01*
X162072107Y-148690093D01*
X162969731Y-148690093D01*
X162969730Y-148690092D01*
X162912527Y-148476606D01*
X162912524Y-148476600D01*
X162812695Y-148262515D01*
X162812694Y-148262513D01*
X162677208Y-148069019D01*
X162677203Y-148069013D01*
X162510173Y-147901983D01*
X162324500Y-147771972D01*
X162280875Y-147717395D01*
X162273683Y-147647897D01*
X162305205Y-147585542D01*
X162324501Y-147568823D01*
X162366830Y-147539184D01*
X162510496Y-147438588D01*
X162677590Y-147271494D01*
X162813130Y-147077923D01*
X162912998Y-146863756D01*
X162974158Y-146635501D01*
X162994754Y-146400093D01*
X162974158Y-146164685D01*
X162921095Y-145966647D01*
X162913000Y-145936437D01*
X162912999Y-145936436D01*
X162912998Y-145936430D01*
X162813130Y-145722264D01*
X162802781Y-145707483D01*
X162677589Y-145528690D01*
X162510497Y-145361599D01*
X162510491Y-145361594D01*
X162324937Y-145231668D01*
X162281312Y-145177091D01*
X162274118Y-145107593D01*
X162305641Y-145045238D01*
X162324937Y-145028518D01*
X162367266Y-144998879D01*
X162510496Y-144898588D01*
X162677590Y-144731494D01*
X162813130Y-144537923D01*
X162912998Y-144323756D01*
X162974158Y-144095501D01*
X162994754Y-143860093D01*
X162974158Y-143624685D01*
X162921095Y-143426647D01*
X162918635Y-143417466D01*
X162920298Y-143347616D01*
X162950727Y-143297694D01*
X170933506Y-135314916D01*
X170933511Y-135314912D01*
X170943714Y-135304708D01*
X170943716Y-135304708D01*
X171055520Y-135192904D01*
X171134577Y-135055972D01*
X171175500Y-134903245D01*
X171175500Y-110720666D01*
X171195185Y-110653627D01*
X171247989Y-110607872D01*
X171317147Y-110597928D01*
X171380703Y-110626953D01*
X171389683Y-110635561D01*
X171437442Y-110686183D01*
X171613903Y-110834251D01*
X171705186Y-110910847D01*
X171705194Y-110910853D01*
X171997203Y-111102911D01*
X171997207Y-111102913D01*
X172309549Y-111259777D01*
X172637989Y-111379319D01*
X172978086Y-111459923D01*
X173325241Y-111500500D01*
X173325248Y-111500500D01*
X173674752Y-111500500D01*
X173674759Y-111500500D01*
X174021914Y-111459923D01*
X174362011Y-111379319D01*
X174690451Y-111259777D01*
X175002793Y-111102913D01*
X175294811Y-110910849D01*
X175562558Y-110686183D01*
X175802412Y-110431953D01*
X176011130Y-110151596D01*
X176185889Y-109848904D01*
X176324326Y-109527971D01*
X176424569Y-109193136D01*
X176426082Y-109184560D01*
X176485260Y-108848938D01*
X176485259Y-108848938D01*
X176485262Y-108848927D01*
X176505585Y-108500000D01*
X176485262Y-108151073D01*
X176482547Y-108135677D01*
X176424571Y-107806872D01*
X176424569Y-107806865D01*
X176424569Y-107806864D01*
X176324326Y-107472029D01*
X176185889Y-107151096D01*
X176011130Y-106848404D01*
X175974728Y-106799507D01*
X175802415Y-106568050D01*
X175802410Y-106568044D01*
X175686433Y-106445117D01*
X175562558Y-106313817D01*
X175294811Y-106089151D01*
X175294809Y-106089149D01*
X175294805Y-106089146D01*
X175002796Y-105897088D01*
X174690458Y-105740226D01*
X174690452Y-105740223D01*
X174362012Y-105620681D01*
X174362009Y-105620680D01*
X174021915Y-105540077D01*
X173978519Y-105535004D01*
X173674759Y-105499500D01*
X173325241Y-105499500D01*
X173095612Y-105526340D01*
X173026741Y-105514571D01*
X172975165Y-105467436D01*
X172957260Y-105399899D01*
X172978711Y-105333403D01*
X172993531Y-105315502D01*
X186658506Y-91650528D01*
X186658511Y-91650524D01*
X186668714Y-91640320D01*
X186668716Y-91640320D01*
X186780520Y-91528516D01*
X186831379Y-91440424D01*
X186859577Y-91391585D01*
X186900500Y-91238858D01*
X186900500Y-91080743D01*
X186900500Y-73761143D01*
X186859577Y-73608415D01*
X186830639Y-73558295D01*
X186780520Y-73471484D01*
X186668716Y-73359680D01*
X186668715Y-73359679D01*
X186664385Y-73355349D01*
X186664374Y-73355339D01*
X185147390Y-71838355D01*
X185147388Y-71838352D01*
X185028517Y-71719481D01*
X185028516Y-71719480D01*
X184941704Y-71669360D01*
X184941704Y-71669359D01*
X184941700Y-71669358D01*
X184891585Y-71640423D01*
X184738857Y-71599499D01*
X184580743Y-71599499D01*
X184573147Y-71599499D01*
X184573131Y-71599500D01*
X134116315Y-71599500D01*
X133958200Y-71599500D01*
X133805473Y-71640423D01*
X133805472Y-71640423D01*
X133805470Y-71640424D01*
X133805467Y-71640425D01*
X133755354Y-71669359D01*
X133755353Y-71669360D01*
X133711947Y-71694420D01*
X133668543Y-71719479D01*
X133668540Y-71719481D01*
X131419481Y-73968540D01*
X131419479Y-73968543D01*
X131369361Y-74055352D01*
X131369359Y-74055354D01*
X131340425Y-74105467D01*
X131340424Y-74105468D01*
X131340423Y-74105473D01*
X131299499Y-74258201D01*
X131299499Y-74258203D01*
X131299499Y-74426304D01*
X131299500Y-74426317D01*
X131299500Y-88930903D01*
X131279815Y-88997942D01*
X131227011Y-89043697D01*
X131157853Y-89053641D01*
X131094297Y-89024616D01*
X131087819Y-89018584D01*
X129136819Y-87067584D01*
X129103334Y-87006261D01*
X129100500Y-86979903D01*
X129100500Y-76787132D01*
X129120185Y-76720093D01*
X129170697Y-76675413D01*
X129402775Y-76563651D01*
X129625741Y-76411635D01*
X129820107Y-76231290D01*
X129823557Y-76228089D01*
X129823557Y-76228087D01*
X129823561Y-76228085D01*
X129991815Y-76017102D01*
X130126743Y-75783398D01*
X130225334Y-75532195D01*
X130285383Y-75269103D01*
X130305549Y-75000000D01*
X130299309Y-74916736D01*
X130285389Y-74730973D01*
X130285383Y-74730897D01*
X130225334Y-74467805D01*
X130126743Y-74216602D01*
X129991815Y-73982898D01*
X129823561Y-73771915D01*
X129823560Y-73771914D01*
X129823557Y-73771910D01*
X129625741Y-73588365D01*
X129586038Y-73561296D01*
X129402775Y-73436349D01*
X129402769Y-73436346D01*
X129402768Y-73436345D01*
X129402767Y-73436344D01*
X129159643Y-73319263D01*
X129159645Y-73319263D01*
X128901773Y-73239720D01*
X128901767Y-73239718D01*
X128634936Y-73199500D01*
X128634929Y-73199500D01*
X128365071Y-73199500D01*
X128365063Y-73199500D01*
X128098232Y-73239718D01*
X128098226Y-73239720D01*
X127840358Y-73319262D01*
X127597230Y-73436346D01*
X127374258Y-73588365D01*
X127176442Y-73771910D01*
X127008185Y-73982898D01*
X126873258Y-74216599D01*
X126873256Y-74216603D01*
X126774666Y-74467804D01*
X126774664Y-74467811D01*
X126714616Y-74730898D01*
X126694451Y-74999995D01*
X126694451Y-75000004D01*
X126714616Y-75269101D01*
X126774664Y-75532188D01*
X126774666Y-75532195D01*
X126869250Y-75773190D01*
X126873257Y-75783398D01*
X127008185Y-76017102D01*
X127144080Y-76187509D01*
X127176442Y-76228089D01*
X127327457Y-76368209D01*
X127374259Y-76411635D01*
X127597226Y-76563651D01*
X127597231Y-76563653D01*
X127597232Y-76563654D01*
X127597233Y-76563655D01*
X127655422Y-76591677D01*
X127829302Y-76675413D01*
X127881161Y-76722234D01*
X127899500Y-76787132D01*
X127899500Y-87193330D01*
X127899499Y-87193348D01*
X127899499Y-87359054D01*
X127899498Y-87359054D01*
X127940423Y-87511785D01*
X127969358Y-87561900D01*
X127969359Y-87561904D01*
X127969360Y-87561904D01*
X128019479Y-87648714D01*
X128019481Y-87648717D01*
X128138349Y-87767585D01*
X128138355Y-87767590D01*
X128369700Y-87998935D01*
X128403185Y-88060258D01*
X128398201Y-88129950D01*
X128356329Y-88185883D01*
X128300501Y-88209231D01*
X128098231Y-88239719D01*
X128098226Y-88239720D01*
X127840358Y-88319262D01*
X127597230Y-88436346D01*
X127374258Y-88588365D01*
X127176442Y-88771910D01*
X127008185Y-88982898D01*
X126873258Y-89216599D01*
X126873256Y-89216603D01*
X126774666Y-89467804D01*
X126774664Y-89467811D01*
X126714616Y-89730898D01*
X126694451Y-89999995D01*
X126694451Y-90000004D01*
X126714616Y-90269101D01*
X126774664Y-90532188D01*
X126774666Y-90532195D01*
X126873256Y-90783396D01*
X126873258Y-90783400D01*
X126883567Y-90801255D01*
X127008185Y-91017102D01*
X127122558Y-91160521D01*
X127176442Y-91228089D01*
X127305543Y-91347876D01*
X127374259Y-91411635D01*
X127597226Y-91563651D01*
X127840359Y-91680738D01*
X128098228Y-91760280D01*
X128098229Y-91760280D01*
X128098232Y-91760281D01*
X128365063Y-91800499D01*
X128365068Y-91800499D01*
X128365071Y-91800500D01*
X128365072Y-91800500D01*
X128634928Y-91800500D01*
X128634929Y-91800500D01*
X128634936Y-91800499D01*
X128901767Y-91760281D01*
X128901768Y-91760280D01*
X128901772Y-91760280D01*
X129159641Y-91680738D01*
X129402775Y-91563651D01*
X129625741Y-91411635D01*
X129791159Y-91258150D01*
X129823557Y-91228089D01*
X129823557Y-91228087D01*
X129823561Y-91228085D01*
X129991815Y-91017102D01*
X130126743Y-90783398D01*
X130225334Y-90532195D01*
X130285383Y-90269103D01*
X130289896Y-90208881D01*
X130314534Y-90143500D01*
X130370609Y-90101818D01*
X130440317Y-90097070D01*
X130501230Y-90130465D01*
X131415139Y-91044374D01*
X131415149Y-91044385D01*
X131419479Y-91048715D01*
X131419480Y-91048716D01*
X131531284Y-91160520D01*
X131531285Y-91160520D01*
X131538352Y-91167587D01*
X131538351Y-91167587D01*
X131538354Y-91167589D01*
X135806333Y-95435569D01*
X135839817Y-95496890D01*
X135834833Y-95566582D01*
X135792961Y-95622515D01*
X135727497Y-95646932D01*
X135707847Y-95646776D01*
X135680007Y-95644341D01*
X135679999Y-95644341D01*
X135444596Y-95664936D01*
X135444586Y-95664938D01*
X135216344Y-95726094D01*
X135216335Y-95726098D01*
X135002171Y-95825964D01*
X135002169Y-95825965D01*
X134808597Y-95961505D01*
X134641508Y-96128594D01*
X134511269Y-96314595D01*
X134456692Y-96358219D01*
X134387193Y-96365412D01*
X134324839Y-96333890D01*
X134308119Y-96314594D01*
X134178113Y-96128926D01*
X134178108Y-96128920D01*
X134011082Y-95961894D01*
X133817578Y-95826399D01*
X133603492Y-95726570D01*
X133603486Y-95726567D01*
X133390000Y-95669364D01*
X133390000Y-96566988D01*
X133332993Y-96534075D01*
X133205826Y-96500000D01*
X133074174Y-96500000D01*
X132947007Y-96534075D01*
X132890000Y-96566988D01*
X132890000Y-95669364D01*
X132889999Y-95669364D01*
X132676513Y-95726567D01*
X132676507Y-95726570D01*
X132462422Y-95826399D01*
X132462420Y-95826400D01*
X132268926Y-95961886D01*
X132268920Y-95961891D01*
X132101891Y-96128920D01*
X132101890Y-96128922D01*
X131971880Y-96314595D01*
X131917303Y-96358219D01*
X131847804Y-96365412D01*
X131785450Y-96333890D01*
X131768730Y-96314594D01*
X131638494Y-96128597D01*
X131471402Y-95961506D01*
X131471395Y-95961501D01*
X131277834Y-95825967D01*
X131277830Y-95825965D01*
X131235594Y-95806270D01*
X131063663Y-95726097D01*
X131063659Y-95726096D01*
X131063655Y-95726094D01*
X130835413Y-95664938D01*
X130835403Y-95664936D01*
X130600001Y-95644341D01*
X130599999Y-95644341D01*
X130364596Y-95664936D01*
X130364586Y-95664938D01*
X130136344Y-95726094D01*
X130136335Y-95726098D01*
X129922171Y-95825964D01*
X129922169Y-95825965D01*
X129728597Y-95961505D01*
X129561505Y-96128597D01*
X129425965Y-96322169D01*
X129425964Y-96322171D01*
X129326098Y-96536335D01*
X129326094Y-96536344D01*
X129264938Y-96764586D01*
X129264936Y-96764596D01*
X129255441Y-96873124D01*
X129229988Y-96938193D01*
X129173397Y-96979171D01*
X129103635Y-96983049D01*
X129044232Y-96949997D01*
X124136819Y-92042584D01*
X124103334Y-91981261D01*
X124100500Y-91954903D01*
X124100500Y-91787132D01*
X124120185Y-91720093D01*
X124170697Y-91675413D01*
X124402775Y-91563651D01*
X124625741Y-91411635D01*
X124791159Y-91258150D01*
X124823557Y-91228089D01*
X124823557Y-91228087D01*
X124823561Y-91228085D01*
X124991815Y-91017102D01*
X125126743Y-90783398D01*
X125225334Y-90532195D01*
X125285383Y-90269103D01*
X125292105Y-90179402D01*
X125305549Y-90000004D01*
X125305549Y-89999995D01*
X125285389Y-89730973D01*
X125285383Y-89730897D01*
X125225334Y-89467805D01*
X125126743Y-89216602D01*
X124991815Y-88982898D01*
X124823561Y-88771915D01*
X124823560Y-88771914D01*
X124823557Y-88771910D01*
X124625741Y-88588365D01*
X124586038Y-88561296D01*
X124402775Y-88436349D01*
X124402769Y-88436346D01*
X124402768Y-88436345D01*
X124402767Y-88436344D01*
X124159643Y-88319263D01*
X124159645Y-88319263D01*
X123901773Y-88239720D01*
X123901767Y-88239718D01*
X123634936Y-88199500D01*
X123634929Y-88199500D01*
X123365071Y-88199500D01*
X123365063Y-88199500D01*
X123098232Y-88239718D01*
X123098226Y-88239720D01*
X122840358Y-88319262D01*
X122597230Y-88436346D01*
X122374258Y-88588365D01*
X122176442Y-88771910D01*
X122008185Y-88982898D01*
X121873258Y-89216599D01*
X121873256Y-89216603D01*
X121774666Y-89467804D01*
X121774664Y-89467811D01*
X121741536Y-89612955D01*
X121707427Y-89673933D01*
X121645766Y-89706791D01*
X121576129Y-89701096D01*
X121532964Y-89673043D01*
X114136819Y-82276898D01*
X114103334Y-82215575D01*
X114100500Y-82189217D01*
X114100500Y-76924499D01*
X114120185Y-76857460D01*
X114172989Y-76811705D01*
X114224500Y-76800499D01*
X114847871Y-76800499D01*
X114847872Y-76800499D01*
X114907483Y-76794091D01*
X115042331Y-76743796D01*
X115157546Y-76657546D01*
X115243796Y-76542331D01*
X115294091Y-76407483D01*
X115300500Y-76347873D01*
X115300499Y-74999995D01*
X116694953Y-74999995D01*
X116694953Y-75000004D01*
X116715113Y-75269026D01*
X116715113Y-75269028D01*
X116775142Y-75532033D01*
X116775148Y-75532052D01*
X116873709Y-75783181D01*
X116873708Y-75783181D01*
X117008602Y-76016822D01*
X117062294Y-76084151D01*
X117062295Y-76084151D01*
X117898958Y-75247488D01*
X117923978Y-75307890D01*
X117995112Y-75414351D01*
X118085649Y-75504888D01*
X118192110Y-75576022D01*
X118252510Y-75601041D01*
X117414848Y-76438702D01*
X117597483Y-76563220D01*
X117597485Y-76563221D01*
X117840539Y-76680269D01*
X117840537Y-76680269D01*
X118098337Y-76759790D01*
X118098343Y-76759792D01*
X118365101Y-76799999D01*
X118365110Y-76800000D01*
X118634890Y-76800000D01*
X118634898Y-76799999D01*
X118901656Y-76759792D01*
X118901662Y-76759790D01*
X119159461Y-76680269D01*
X119402521Y-76563218D01*
X119585150Y-76438702D01*
X118747488Y-75601041D01*
X118807890Y-75576022D01*
X118914351Y-75504888D01*
X119004888Y-75414351D01*
X119076022Y-75307890D01*
X119101041Y-75247488D01*
X119937703Y-76084151D01*
X119937704Y-76084150D01*
X119991393Y-76016828D01*
X119991400Y-76016817D01*
X120126290Y-75783181D01*
X120224851Y-75532052D01*
X120224857Y-75532033D01*
X120284886Y-75269028D01*
X120284886Y-75269026D01*
X120305047Y-75000004D01*
X120305047Y-74999995D01*
X121694451Y-74999995D01*
X121694451Y-75000004D01*
X121714616Y-75269101D01*
X121774664Y-75532188D01*
X121774666Y-75532195D01*
X121869250Y-75773190D01*
X121873257Y-75783398D01*
X122008185Y-76017102D01*
X122144080Y-76187509D01*
X122176442Y-76228089D01*
X122327457Y-76368209D01*
X122374259Y-76411635D01*
X122597226Y-76563651D01*
X122840359Y-76680738D01*
X123098228Y-76760280D01*
X123098229Y-76760280D01*
X123098232Y-76760281D01*
X123365063Y-76800499D01*
X123365068Y-76800499D01*
X123365071Y-76800500D01*
X123365072Y-76800500D01*
X123634928Y-76800500D01*
X123634929Y-76800500D01*
X123634936Y-76800499D01*
X123901767Y-76760281D01*
X123901768Y-76760280D01*
X123901772Y-76760280D01*
X124159641Y-76680738D01*
X124196370Y-76663049D01*
X124265309Y-76651696D01*
X124329444Y-76679417D01*
X124337853Y-76687088D01*
X124363181Y-76712416D01*
X124396666Y-76773739D01*
X124399500Y-76800097D01*
X124399500Y-82917587D01*
X124379815Y-82984626D01*
X124372450Y-82994896D01*
X124370186Y-82997734D01*
X124274211Y-83150476D01*
X124214631Y-83320745D01*
X124214630Y-83320750D01*
X124194435Y-83499996D01*
X124194435Y-83500003D01*
X124214630Y-83679249D01*
X124214631Y-83679254D01*
X124274211Y-83849523D01*
X124370184Y-84002262D01*
X124497738Y-84129816D01*
X124650478Y-84225789D01*
X124820745Y-84285368D01*
X124820750Y-84285369D01*
X124999996Y-84305565D01*
X125000000Y-84305565D01*
X125000004Y-84305565D01*
X125179249Y-84285369D01*
X125179252Y-84285368D01*
X125179255Y-84285368D01*
X125349522Y-84225789D01*
X125502262Y-84129816D01*
X125629816Y-84002262D01*
X125725789Y-83849522D01*
X125785368Y-83679255D01*
X125788807Y-83648735D01*
X125805565Y-83500003D01*
X125805565Y-83499996D01*
X125785369Y-83320750D01*
X125785368Y-83320745D01*
X125731995Y-83168215D01*
X125725789Y-83150478D01*
X125629816Y-82997738D01*
X125629814Y-82997736D01*
X125629813Y-82997734D01*
X125627550Y-82994896D01*
X125626659Y-82992715D01*
X125626111Y-82991842D01*
X125626264Y-82991745D01*
X125601144Y-82930209D01*
X125600500Y-82917587D01*
X125600500Y-76420942D01*
X125596893Y-76407483D01*
X125596892Y-76407478D01*
X125580921Y-76347872D01*
X125559577Y-76268216D01*
X125538255Y-76231285D01*
X125480524Y-76131290D01*
X125480521Y-76131286D01*
X125480520Y-76131284D01*
X125368716Y-76019480D01*
X125368715Y-76019479D01*
X125364385Y-76015149D01*
X125364374Y-76015139D01*
X125185811Y-75836576D01*
X125152326Y-75775253D01*
X125157310Y-75705561D01*
X125158064Y-75703593D01*
X125225334Y-75532195D01*
X125285383Y-75269103D01*
X125305549Y-75000000D01*
X125299309Y-74916736D01*
X125285389Y-74730973D01*
X125285383Y-74730897D01*
X125225334Y-74467805D01*
X125126743Y-74216602D01*
X124991815Y-73982898D01*
X124823561Y-73771915D01*
X124823560Y-73771914D01*
X124823557Y-73771910D01*
X124625741Y-73588365D01*
X124586038Y-73561296D01*
X124402775Y-73436349D01*
X124402769Y-73436346D01*
X124402768Y-73436345D01*
X124402767Y-73436344D01*
X124159643Y-73319263D01*
X124159645Y-73319263D01*
X123901773Y-73239720D01*
X123901767Y-73239718D01*
X123634936Y-73199500D01*
X123634929Y-73199500D01*
X123365071Y-73199500D01*
X123365063Y-73199500D01*
X123098232Y-73239718D01*
X123098226Y-73239720D01*
X122840358Y-73319262D01*
X122597230Y-73436346D01*
X122374258Y-73588365D01*
X122176442Y-73771910D01*
X122008185Y-73982898D01*
X121873258Y-74216599D01*
X121873256Y-74216603D01*
X121774666Y-74467804D01*
X121774664Y-74467811D01*
X121714616Y-74730898D01*
X121694451Y-74999995D01*
X120305047Y-74999995D01*
X120284886Y-74730973D01*
X120284886Y-74730971D01*
X120224857Y-74467966D01*
X120224851Y-74467947D01*
X120126290Y-74216818D01*
X120126291Y-74216818D01*
X119991397Y-73983177D01*
X119937704Y-73915847D01*
X119101041Y-74752510D01*
X119076022Y-74692110D01*
X119004888Y-74585649D01*
X118914351Y-74495112D01*
X118807890Y-74423978D01*
X118747488Y-74398958D01*
X119585150Y-73561296D01*
X119402517Y-73436779D01*
X119402516Y-73436778D01*
X119159460Y-73319730D01*
X119159462Y-73319730D01*
X118901662Y-73240209D01*
X118901656Y-73240207D01*
X118634898Y-73200000D01*
X118365101Y-73200000D01*
X118098343Y-73240207D01*
X118098337Y-73240209D01*
X117840538Y-73319730D01*
X117597485Y-73436778D01*
X117597476Y-73436783D01*
X117414848Y-73561296D01*
X118252511Y-74398958D01*
X118192110Y-74423978D01*
X118085649Y-74495112D01*
X117995112Y-74585649D01*
X117923978Y-74692110D01*
X117898958Y-74752511D01*
X117062295Y-73915848D01*
X117008600Y-73983180D01*
X116873709Y-74216818D01*
X116775148Y-74467947D01*
X116775142Y-74467966D01*
X116715113Y-74730971D01*
X116715113Y-74730973D01*
X116694953Y-74999995D01*
X115300499Y-74999995D01*
X115300499Y-73652128D01*
X115294091Y-73592517D01*
X115292542Y-73588365D01*
X115243797Y-73457671D01*
X115243793Y-73457664D01*
X115157547Y-73342455D01*
X115157544Y-73342452D01*
X115042335Y-73256206D01*
X115042328Y-73256202D01*
X114907482Y-73205908D01*
X114907483Y-73205908D01*
X114847883Y-73199501D01*
X114847881Y-73199500D01*
X114847873Y-73199500D01*
X114847864Y-73199500D01*
X112152129Y-73199500D01*
X112152123Y-73199501D01*
X112092516Y-73205908D01*
X111957671Y-73256202D01*
X111957664Y-73256206D01*
X111842455Y-73342452D01*
X111842452Y-73342455D01*
X111756206Y-73457664D01*
X111756202Y-73457671D01*
X111705908Y-73592517D01*
X111702934Y-73620185D01*
X111699501Y-73652123D01*
X111699500Y-73652135D01*
X107540074Y-73652135D01*
X107541719Y-73399073D01*
X107553408Y-73347319D01*
X107670281Y-73097617D01*
X107674742Y-73088986D01*
X107866743Y-72750961D01*
X107871886Y-72742684D01*
X108089886Y-72420843D01*
X108095674Y-72412985D01*
X108338329Y-72109311D01*
X108344698Y-72101954D01*
X108610527Y-71818302D01*
X108617461Y-71811465D01*
X108904780Y-71549633D01*
X108912223Y-71543367D01*
X109219286Y-71304948D01*
X109227192Y-71299295D01*
X109552065Y-71085791D01*
X109560390Y-71080778D01*
X109901049Y-70893520D01*
X109909767Y-70889166D01*
X110264109Y-70729306D01*
X110273145Y-70725651D01*
X110638975Y-70594181D01*
X110648222Y-70591263D01*
X110965080Y-70504866D01*
X110997694Y-70500500D01*
X112926244Y-70500500D01*
X112931641Y-70500840D01*
X112936560Y-70500815D01*
X112936565Y-70500817D01*
X113000732Y-70500502D01*
X113000966Y-70500501D01*
X113001573Y-70500500D01*
X113070819Y-70500500D01*
X113076225Y-70500131D01*
X185328339Y-70145600D01*
X185361555Y-70149966D01*
G37*
%TD.AperFunction*%
%TD*%
M02*
